<svg xmlns="http://www.w3.org/2000/svg" viewBox="0 0 30 30">
  <defs>
    <style>
      .cls-1 {
        fill: #fff;
      }
    </style>
  </defs>
  <title>資產 2</title>
  <g id="圖層_2" data-name="圖層 2">
    <g id="圖層_1-2" data-name="圖層 1">
      <path class="cls-1" d="M27,0H3.005A3,3,0,0,0,0,3.005V27a3,3,0,0,0,3.005,3H15V19.688H11.25V15H15V11.25a5.624,5.624,0,0,1,5.625-5.625h3.75v4.688H22.5c-1.035,0-1.875-.1-1.875.937V15h4.687l-1.875,4.688H20.625V30H27a3,3,0,0,0,3-3V3.005A3,3,0,0,0,27,0Z"/>
    </g>
  </g>
</svg>
