<svg xmlns="http://www.w3.org/2000/svg" viewBox="0 0 129.904 76.357">
  <defs>
    <style>
      .cls-1, .cls-2, .cls-5 {
        fill: #fff;
      }

      .cls-1 {
        fill-rule: evenodd;
      }

      .cls-2 {
        font-size: 16.802px;
      }

      .cls-2, .cls-5 {
        font-family: MicrosoftJhengHeiBold, Microsoft JhengHei;
        font-weight: 700;
      }

      .cls-3 {
        letter-spacing: -0.024em;
      }

      .cls-4 {
        letter-spacing: -0.037em;
      }

      .cls-5 {
        font-size: 11.122px;
      }

      .cls-6 {
        letter-spacing: -0.014em;
      }

      .cls-7 {
        letter-spacing: 0em;
      }
    </style>
  </defs>
  <title>資產 4</title>
  <g id="圖層_2" data-name="圖層 2">
    <g id="圖層_1-2" data-name="圖層 1">
      <g>
        <path class="cls-1" d="M101.249,15.089c2.741-.7,6.26-4.055,9.836-2.186a4,4,0,0,1,1.64,4.372c-.982,4.2-8.23,2.2-10.747.364-1.737,3.242-2.993,6.965-4.736,10.2-19.3,4.686-47.035,4.7-66.3,0-1.553-3.546-3.5-6.7-5.1-10.2-2.667.591-4.07,2.739-7.469,2.186a3.713,3.713,0,0,1-3.278-4.19c.542-4.981,8.144-2.754,10.929-.728,3.73-1.494,7.066-3.9,10.747-6.193C40.238,6.557,43.242,3.4,46.6,1.792a10,10,0,0,1,7.65-.546c2.471-1.432,7.109-1.767,9.472,0,2.287-1.31,7.221-1.979,9.29,0C80.577-.492,84.822,5,89.956,8.349A105.3,105.3,0,0,0,101.249,15.089ZM56.076,2.7c1.1,3.034-.894,7.1-3.643,7.469-1.433.191-3-.429-3.279-1.822-.606-2.995,2.369-4,2.914-5.647-5.463.132-8.516,4.022-12.022,6.376-3.716,2.5-7.42,4.55-11.293,7.1a13.138,13.138,0,0,0,4.008,1.457c4.3.5,8.171-3.888,12.75-3.1,2.792.482,4.49,2.905,7.468,3.1s4.266-1.269,5.647-2a11.688,11.688,0,0,1,9.472-.546c1.244.487,2.364,1.908,4.007,2.368,5.224,1.461,6.822-2.449,10.747-2.914,5.787-.688,10.6,6.106,16.212,1.639A99.483,99.483,0,0,1,88.5,9.989c-4.09-2.9-7.944-7.455-14.208-7.1C75.5,6.229,72.954,11,69.555,10.171c-2.6-.635-1.685-4.092-.546-5.647.653-.892,2.052-1.643,1.821-2.186-1.95-.82-4.595-.092-6.011.729,1.255,3.4-1,7.622-4.19,7.1-4.358-.708-.772-6.418,1.093-7.651C60.105,1.685,57.622,2.027,56.076,2.7ZM51.158,7.8c1.913,1.033,3.066-1.6,3.1-3.643C52.591,4.743,51.9,6.3,51.158,7.8ZM72.105,4.342c-.819,1.185-2.3,1.7-2.368,3.643C71.668,8.849,72.991,5.688,72.105,4.342ZM60.812,8.167c1.757-.246,2.207-1.8,2.368-3.643A3.529,3.529,0,0,0,60.812,8.167ZM17.46,15.089c-1.087,4.242,4.588,2.383,6.193,1.275C22.505,15.052,19.438,13.9,17.46,15.089ZM103.8,16.364c1.951.5,4.183,2.172,6.558,1.093a2.912,2.912,0,0,0,.182-2.368C108.406,13.76,105.327,15.359,103.8,16.364Zm-9.836,3.461c-4.526-.007-7.94-4.606-12.2-2.915-2.259.9-4.061,2.514-6.193,2.733a11.391,11.391,0,0,1-3.825-.182c-1.57-.386-2.417-1.813-4.554-2.551-5.35-1.847-7.749,1.737-11.111,2.551-5.556,1.344-7.333-2.279-10.929-2.915-4.76-.842-6.881,3.261-11.111,3.279-1.891.008-3.23-.906-5.283-1.093,1.348,2.417,2.387,5.142,3.825,7.468,18.384,4.192,44.8,4.105,63.207,0,.88-2.824,2.428-4.98,3.461-7.65C97.046,19.087,95.9,19.828,93.963,19.825Z"/>
        <g>
          <text class="cls-2" transform="translate(0 56.24)"><tspan class="cls-3">Y</tspan><tspan x="9.968" y="0">O</tspan><tspan class="cls-4" x="23.677" y="0">L</tspan><tspan x="31.848" y="0">O MOMENT</tspan></text>
          <text class="cls-5" transform="translate(23.837 73.452)">Since<tspan class="cls-6" x="28.511" y="0">r</tspan><tspan x="32.742" y="0">e Ki</tspan><tspan class="cls-6" x="52.205" y="0">t</tspan><tspan class="cls-7" x="56.333" y="0">chen</tspan></text>
        </g>
      </g>
    </g>
  </g>
</svg>
