<svg xmlns="http://www.w3.org/2000/svg" viewBox="0 0 30 30">
  <defs>
    <style>
      .cls-1 {
        fill: #fff;
      }
    </style>
  </defs>
  <title>資產 3</title>
  <g id="圖層_2" data-name="圖層 2">
    <g id="圖層_1-2" data-name="圖層 1">
      <g id="post-instagram">
        <path class="cls-1" d="M27,0H3A3.009,3.009,0,0,0,0,3V27a3.009,3.009,0,0,0,3,3H27a3.009,3.009,0,0,0,3-3V3A3.009,3.009,0,0,0,27,0ZM15,9a6,6,0,1,1-6,6A6.018,6.018,0,0,1,15,9ZM3.75,27A.709.709,0,0,1,3,26.25V13.5H6.15A5.1,5.1,0,0,0,6,15a9,9,0,0,0,18,0,5.1,5.1,0,0,0-.15-1.5H27V26.25a.709.709,0,0,1-.75.75ZM27,6.75a.709.709,0,0,1-.75.75h-3a.709.709,0,0,1-.75-.75v-3A.709.709,0,0,1,23.25,3h3a.709.709,0,0,1,.75.75Z"/>
      </g>
    </g>
  </g>
</svg>
