<svg xmlns="http://www.w3.org/2000/svg" viewBox="0 0 83.753 26.862">
  <defs>
    <style>
      .cls-1 {
        fill: #fff;
        fill-rule: evenodd;
      }
    </style>
  </defs>
  <title>資產 3</title>
  <g id="圖層_2" data-name="圖層 2">
    <g id="圖層_1-2" data-name="圖層 1">
      <path class="cls-1" d="M73.826,12.925c2.348-.6,5.362-3.473,8.426-1.872A3.422,3.422,0,0,1,83.657,14.8c-.841,3.6-7.051,1.882-9.207.312-1.487,2.777-2.564,5.966-4.056,8.738-16.533,4.014-40.292,4.023-56.8,0-1.33-3.038-3-5.738-4.369-8.738-2.284.506-3.486,2.346-6.4,1.872A3.181,3.181,0,0,1,.021,13.393C.486,9.127,7,11.035,9.383,12.769c3.2-1.279,6.054-3.345,9.207-5.3,2.972-1.847,5.546-4.556,8.425-5.929a8.569,8.569,0,0,1,6.554-.468c2.116-1.226,6.09-1.513,8.114,0,1.959-1.122,6.186-1.695,7.958,0C56.117-.421,59.754,4.284,64.152,7.152A90.081,90.081,0,0,0,73.826,12.925Zm-38.7-10.61c.946,2.6-.765,6.084-3.12,6.4A2.377,2.377,0,0,1,29.2,7.152c-.519-2.566,2.03-3.43,2.5-4.837-4.68.113-7.294,3.445-10.3,5.462-3.183,2.137-6.356,3.9-9.674,6.085a11.262,11.262,0,0,0,3.433,1.248c3.685.432,7-3.331,10.923-2.652,2.391.413,3.846,2.488,6.4,2.652s3.654-1.087,4.837-1.717a10.015,10.015,0,0,1,8.114-.468c1.066.418,2.025,1.635,3.432,2.029,4.475,1.251,5.844-2.1,9.206-2.5,4.958-.589,9.082,5.231,13.888,1.4a85.2,85.2,0,0,1-9.05-5.3C59.4,6.07,56.1,2.171,50.733,2.471c1.038,2.865-1.145,6.951-4.057,6.242-2.23-.544-1.443-3.506-.468-4.838.56-.764,1.758-1.407,1.56-1.872a6.443,6.443,0,0,0-5.149.624c1.076,2.915-.857,6.529-3.589,6.086-3.734-.607-.661-5.5.936-6.554A6.27,6.27,0,0,0,35.129,2.315ZM30.916,6.684c1.639.885,2.627-1.373,2.653-3.12C32.144,4.063,31.554,5.4,30.916,6.684ZM48.86,3.72c-.7,1.014-1.973,1.459-2.028,3.12C48.486,7.581,49.619,4.872,48.86,3.72ZM39.186,7c1.505-.211,1.891-1.542,2.029-3.121A3.026,3.026,0,0,0,39.186,7ZM2.05,12.925c-.931,3.634,3.93,2.042,5.305,1.093C6.372,12.894,3.744,11.9,2.05,12.925Zm73.96,1.093c1.672.43,3.583,1.86,5.618.936a2.493,2.493,0,0,0,.156-2.029C79.957,11.788,77.319,13.157,76.01,14.018Zm-8.425,2.964c-3.878,0-6.8-3.945-10.454-2.5-1.936.768-3.48,2.153-5.306,2.34a9.724,9.724,0,0,1-3.276-.156c-1.345-.33-2.071-1.552-3.9-2.184-4.583-1.583-6.637,1.487-9.518,2.184-4.758,1.152-6.281-1.952-9.362-2.5-4.077-.721-5.894,2.793-9.518,2.808-1.62.007-2.767-.775-4.525-.936,1.154,2.071,2.045,4.405,3.277,6.4,15.748,3.592,38.377,3.517,54.144,0,.754-2.418,2.08-4.265,2.965-6.553C70.225,16.351,69.24,16.985,67.585,16.982Z"/>
    </g>
  </g>
</svg>
