<svg xmlns="http://www.w3.org/2000/svg" viewBox="0 0 60 60">
  <defs>
    <style>
      .cls-1 {
        fill: #fff;
      }
    </style>
  </defs>
  <title>資產 7</title>
  <g id="圖層_2" data-name="圖層 2">
    <g id="圖層_1-2" data-name="圖層 1">
      <path class="cls-1" d="M3.317,8.652,8.654,3.315a11.321,11.321,0,0,1,16.009,0l9.023,9.026a15.017,15.017,0,0,0-8.643,2.027L19.327,8.652a3.781,3.781,0,0,0-5.337,0L8.654,13.988a3.781,3.781,0,0,0,0,5.339L24.663,35.336a3.776,3.776,0,0,0,5.337,0L35.337,30l5.336,5.336-5.336,5.337a11.317,11.317,0,0,1-16.01,0L3.317,24.663A11.318,11.318,0,0,1,3.317,8.652Zm23,39.009,9.022,9.022a11.316,11.316,0,0,0,16.009,0l5.337-5.336a11.318,11.318,0,0,0,0-16.011L40.673,19.327a11.321,11.321,0,0,0-16.01,0l-5.336,5.336L24.663,30,30,24.663a3.781,3.781,0,0,1,5.337,0l16.009,16.01a3.773,3.773,0,0,1,0,5.337L46.01,51.347a3.777,3.777,0,0,1-5.337,0l-5.712-5.713A15.087,15.087,0,0,1,26.315,47.661Z"/>
    </g>
  </g>
</svg>
