<svg xmlns="http://www.w3.org/2000/svg" viewBox="0 0 42.33 29.68"><defs><style>.cls-1{fill:#42210b;}</style></defs><title>資產 8</title><g id="圖層_2" data-name="圖層 2"><g id="圖層_1-2" data-name="圖層 1"><path class="cls-1" d="M29.62,9.44A42.68,42.68,0,0,1,32.68,4.5c2.39-2.85,5.64-3.17,7.81-1a5.49,5.49,0,0,1-.3,8.45,29.19,29.19,0,0,1-7.74,4.32A6.37,6.37,0,0,0,28.89,20c-1.47,3.18-3.82,5.91-5.8,8.83a.47.47,0,0,1-.22.18c-5.18.11-10.72,1.48-15.42-.05C3.18,27.57.42,22.51.13,17.17-.13,12.23.1,7.28,0,2.33,0,.63.6,0,2.19,0Q14.91.06,27.64,0c1.52,0,2,.69,2,2.18C29.59,4.34,29.62,6.5,29.62,9.44ZM1.86,2.25c0,4.15,0,8.16,0,12.17,0,1.2-.28,2.63.22,3.58,1.59,3,3.15,6.23,5.39,8.66,1.08,1.17,3.67.86,5.6,1s3.82-.13,5.71.08c2.28.26,3.68-.89,5.13-2.53C30,18.34,27,10,27.74,2.25ZM30.13,14.4l.83.72c2.53-1.35,5.24-2.44,7.51-4.17,1.05-.8,1.57-2.83,1.67-4.36C40.2,5.84,38.7,4.23,38,4.3c-1.45.16-3.37.75-4.09,1.89C32.34,8.69,31.36,11.63,30.13,14.4Z"/></g></g></svg>