<svg xmlns="http://www.w3.org/2000/svg" viewBox="0 0 41.77 41.76"><defs><style>.cls-1{fill:#42210b;}</style></defs><title>資產 4</title><g id="圖層_2" data-name="圖層 2"><g id="圖層_1-2" data-name="圖層 1"><path class="cls-1" d="M26,10.1a2.61,2.61,0,0,1-.82-1.54A2.56,2.56,0,0,1,26,7a4.53,4.53,0,0,0,1.61-3.36A4.53,4.53,0,0,0,26,.31a1.22,1.22,0,1,0-1.63,1.82,2.1,2.1,0,0,1,.79,1.54,2.1,2.1,0,0,1-.79,1.54,4.92,4.92,0,0,0-1.63,3.35,5,5,0,0,0,1.63,3.36A1.22,1.22,0,0,0,26,10.1Z"/><path class="cls-1" d="M18.64,10.1a2.61,2.61,0,0,1-.82-1.54A2.56,2.56,0,0,1,18.64,7a4.53,4.53,0,0,0,1.61-3.36A4.53,4.53,0,0,0,18.64.31,1.22,1.22,0,1,0,17,2.13a2.11,2.11,0,0,1,.8,1.54A2.11,2.11,0,0,1,17,5.21a4.92,4.92,0,0,0-1.63,3.35A5,5,0,0,0,17,11.92a1.22,1.22,0,0,0,1.63-1.82Z"/><path class="cls-1" d="M11.3,10.1a2.56,2.56,0,0,1-.82-1.54A2.56,2.56,0,0,1,11.3,7a4.53,4.53,0,0,0,1.61-3.36A4.53,4.53,0,0,0,11.3.31,1.22,1.22,0,1,0,9.67,2.13a2.1,2.1,0,0,1,.79,1.54,2.1,2.1,0,0,1-.79,1.54A4.91,4.91,0,0,0,8,8.56a4.94,4.94,0,0,0,1.64,3.36A1.22,1.22,0,0,0,11.3,10.1Z"/><path class="cls-1" d="M21.1,21.88c-2.29-2.29-6.24-3.27-8.65-.87h0c-2.35,2.35-1.49,6.29.87,8.65s6.24,3.26,8.65.86h0C24.37,28.13,23.39,24.17,21.1,21.88Zm-6.05,6.05a4.73,4.73,0,0,1-1.47-4.06l5.54,5.54A4.74,4.74,0,0,1,15.05,27.93Zm5.8-.25L15.3,22.14a4.72,4.72,0,0,1,4.07,1.47A4.78,4.78,0,0,1,20.85,27.68Z"/><path class="cls-1" d="M38.09,17.21H34.31c0-.41,0-.82,0-1.22a1.23,1.23,0,0,0-1.23-1.23H1.22A1.23,1.23,0,0,0,0,16c0,6.68,2.15,13.7,6.62,18.43H1.22A1.22,1.22,0,0,0,.13,36.19a10.09,10.09,0,0,0,9,5.57H25.2a10.09,10.09,0,0,0,9-5.57,1.23,1.23,0,0,0-1.1-1.77H27.72a20.19,20.19,0,0,0,2.09-2.62,14.44,14.44,0,0,0,7.21-3,13.14,13.14,0,0,0,4.62-6.92A3.69,3.69,0,0,0,38.09,17.21ZM30.8,36.85a7.61,7.61,0,0,1-5.6,2.46H9.14a7.61,7.61,0,0,1-5.6-2.46Zm-6.73-2.43H10.27c-4.51-3.41-7.49-10-7.8-17.23H31.86C31.6,23.54,29.07,30.64,24.07,34.42ZM39.28,21.24A11.41,11.41,0,0,1,31.44,29a28.69,28.69,0,0,0,2.69-9.31h4A1.24,1.24,0,0,1,39.28,21.24Z"/></g></g></svg>