<svg xmlns="http://www.w3.org/2000/svg" viewBox="0 0 41.44 48.19"><defs><style>.cls-1{fill:#42210b;}</style></defs><title>資產 1</title><g id="圖層_2" data-name="圖層 2"><g id="圖層_1-2" data-name="圖層 1"><path class="cls-1" d="M21.44,0a68,68,0,0,1,6.85,1C34.35,2.37,39.6,5.23,41,12.13c1.48,7.32-.71,14-6.51,18.25A31.5,31.5,0,0,0,24.32,43.13c-3.1,6.61-13.95,6.72-18.65.44C-1.18,34.43-1.93,18.92,4,9.12,7.77,2.88,13,.18,21.44,0ZM1.88,26.93c.75,2.63,1.8,7.15,3.33,11.49,1.77,5,5.35,7.7,10.59,7.71,4.95,0,6.57-3.76,8.63-7.57a26.8,26.8,0,0,1,6.84-8.17c4.35-3.38,7.14-7.46,7.9-13A11.41,11.41,0,0,0,36,7.16C29.92,1.34,16.36.7,9.67,5.89,3.56,10.62,2.69,17.69,1.88,26.93Z"/><path class="cls-1" d="M18.94,7.67c5.79,0,10.45,4.87,10.53,11A10.81,10.81,0,0,1,19,29.82,10.92,10.92,0,0,1,8.18,18.94,11,11,0,0,1,18.94,7.67Zm0,19.89a8.68,8.68,0,0,0,8.43-9c-.15-4.75-4-8.73-8.43-8.72a9,9,0,0,0-8.64,8.92A8.67,8.67,0,0,0,19,27.56Z"/><path class="cls-1" d="M19.34,13.8c1.27.51,2.95.67,3.7,1.63s.88,2.89,1.26,4.38l-.84.17q-2.09-2.55-4.19-5.08C19.29,14.53,19.32,14.17,19.34,13.8Z"/></g></g></svg>