<svg xmlns="http://www.w3.org/2000/svg" viewBox="0 0 34.22 48.5"><defs><style>.cls-1{fill:#42210b;}</style></defs><title>資產 6</title><g id="圖層_2" data-name="圖層 2"><g id="圖層_1-2" data-name="圖層 1"><path class="cls-1" d="M9.5,11.33c1-2.78,1.56-5.58,2.9-7.93,2.61-4.55,6.94-4.53,9.52.05,1.33,2.35,1.91,5.14,2.88,7.89,2.75-.57,5.7-.62,7.4,2.41,2.21,3.93.11,7.18-2.06,10.31,4.18,3.33,4.9,5.43,3.27,9.32a12,12,0,0,1-12,6.9c-.95-.13-1.88-.39-3.52-.74v9H16.45c-.14-2.83-.28-5.67-.44-8.77C9.31,41.4,3.91,39.65.83,33.18-.88,29.57,0,27.53,4.07,24,2,20.89-.15,17.59,2.08,13.71,3.79,10.75,6.79,10.8,9.5,11.33Zm1.91,2.76c-1.05-.33-2-.7-3.07-.93-3.45-.8-5.89,1.4-5.06,4.83.42,1.7,1.61,3.21,2.52,4.77a10,10,0,0,0,1.12,1.48C5,26.41,2.59,28,2.25,29.9,1.71,33,3.91,35.57,6.73,37.1s5.68,2.15,8.67.2L8,29.55l1.06-1.07,6.74,6.13C17.2,28.56,16,23.74,11,20.25a10.16,10.16,0,0,1-2-2.05,5,5,0,0,1-.51-1.49l.73-.62,6.79,6.27c.68-4.28-.39-8.37.67-12.18l1.29.06v12.4l7.37-6.4,1.19.94C21.38,22,15.38,26.37,18.64,34.57l6.53-6.06,1,1-7.3,7.91c4.85,1.81,9.47.47,11.91-3.26,2.67-4.1,1.84-6.65-2.74-8.43a8.91,8.91,0,0,1-1.36-.89c2.45-3,6-5.74,3.93-9.92-1.79-3.67-5.21-1.39-7.75-.94-.7-3-1-6-2.11-8.56C20.17,4,18.36,2.33,17,2.21c-1.09-.1-2.9,1.83-3.45,3.23C12.47,8.07,12.12,11,11.41,14.09Z"/></g></g></svg>