<svg xmlns="http://www.w3.org/2000/svg" viewBox="0 0 43.74 37.05"><defs><style>.cls-1{fill:#42210b;}</style></defs><title>資產 2</title><g id="圖層_2" data-name="圖層 2"><g id="圖層_1-2" data-name="圖層 1"><path class="cls-1" d="M24.79,16.58c8.09.14,10.6,2.31,12.22,8,1.47-.35,3-1,4.4-.92a3.23,3.23,0,0,1,2.29,2.06,2,2,0,0,1-2.41,2.25,35.08,35.08,0,0,1-4.49-1.2c0,2.42-.06,4.78,0,7.14s-.92,3.19-3.17,3.17c-7.88,0-15.76,0-23.64,0-2.74,0-3.31-.63-3.34-3.48,0-2.16,0-4.32,0-6.84a13.82,13.82,0,0,1-3.31,1.05,5,5,0,0,1-3-.85A2.35,2.35,0,0,1,.26,24.6a4.69,4.69,0,0,1,2.92-1,11.62,11.62,0,0,1,3.13,1c2.41-6.56,4.62-7.77,12.28-7.94.15-3,1.15-4.39,3.13-4.41S24.73,13.55,24.79,16.58ZM8.19,22.81c0,4-.07,7.77.1,11.51,0,.45,1.32,1.19,2,1.2,7.63.09,15.26,0,22.89.09,1.74,0,2.23-.64,2.17-2.27-.1-2.73-.13-5.46,0-8.19.09-1.8-.52-2.4-2.32-2.36-5.14.09-10.28,0-15.42,0Zm25.5-1.61c-3.72-4.43-21-4.27-23.82,0ZM23.9,15.28c-.93-.7-1.51-1.47-2-1.45s-1.15.78-1.73,1.22c.54.56,1,1.41,1.65,1.58C22.22,16.75,22.91,15.94,23.9,15.28Z"/><path class="cls-1" d="M29.4.43c-.07,1.36.21,2.91-.3,4-.61,1.31-1.31,2.37-.69,3.87.08.18-.3.57-.55,1a3.31,3.31,0,0,1-.68-4.12c.79-1.32,1.38-2.51,1-4.1,0-.19.37-.52.57-.78Z"/><path class="cls-1" d="M16.07,0c1,2,1,3.49,0,5.11a7.29,7.29,0,0,0-.55,2.6c-.08.48-.1,1-.2,1.91C13.94,8,13.58,6.59,14.41,5.18s1.61-2.41.91-4C15.26,1,15.67.6,16.07,0Z"/><path class="cls-1" d="M21.34,9.42C20.17,7.59,20,6.14,21.1,4.48a8.77,8.77,0,0,0,.63-2.81c.09-.43.16-.87.3-1.67,1.32,1.54,1.52,3,.76,4.27s-1.54,2.58-.86,4.23C22,8.64,21.66,9,21.34,9.42Z"/></g></g></svg>