<svg xmlns="http://www.w3.org/2000/svg" viewBox="0 0 42.31 49.12"><defs><style>.cls-1{fill:#42210b;}</style></defs><title>資產 10</title><g id="圖層_2" data-name="圖層 2"><g id="圖層_1-2" data-name="圖層 1"><path class="cls-1" d="M24,43.3a1,1,0,1,0,1,1A1,1,0,0,0,24,43.3Z"/><path class="cls-1" d="M10.55,19.22a1,1,0,0,0-1,1V38.5a1,1,0,0,0,1.92,0V20.18A1,1,0,0,0,10.55,19.22Z"/><path class="cls-1" d="M18.23,19.22a1,1,0,0,0-1,1V38.5a1,1,0,0,0,1.92,0V20.18A1,1,0,0,0,18.23,19.22Z"/><path class="cls-1" d="M37.51,15.45h-4.8V12.54A4.78,4.78,0,0,0,30.89,4a4.88,4.88,0,0,0-2.76.2,4.82,4.82,0,0,0-5.86-1.87A8.59,8.59,0,0,0,9.16,3.89,8.66,8.66,0,0,0,0,12.5V24a2.9,2.9,0,0,0,2.93,2.88,2.77,2.77,0,0,0,1-.18V44.32a4.81,4.81,0,0,0,4.8,4.8H27.92a4.8,4.8,0,0,0,4.79-4.8V41.44h4.8a4.8,4.8,0,0,0,4.8-4.79V20.24A4.8,4.8,0,0,0,37.51,15.45ZM30.8,43.37H27.87a1,1,0,1,0,0,1.9h2.76a2.89,2.89,0,0,1-2.71,1.93H8.73A2.87,2.87,0,0,1,6,45.28H20.19a1,1,0,1,0,0-1.91H5.85V17.22a6.63,6.63,0,0,0,5-3.69.71.71,0,0,1,.51.2,5.76,5.76,0,0,0,4,1.65,5.7,5.7,0,0,0,4.14-1.76.31.31,0,0,1,.22-.09c1.5,0,2.47.32,2.91,1A3.18,3.18,0,0,1,23,16.29v3.89a2.88,2.88,0,0,0,1.91,2.71V38.5a1,1,0,1,0,1.92,0V22.89a2.88,2.88,0,0,0,1.92-2.71V13.41a5.09,5.09,0,0,0,2,0ZM28.26,11.22a1,1,0,0,0-1.4.85v8.11a1,1,0,0,1-1.92,0V16.29a4.91,4.91,0,0,0-.69-2.9c-.82-1.18-2.32-1.78-4.49-1.78a2.25,2.25,0,0,0-1.6.68,3.84,3.84,0,0,1-5.45.07,2.64,2.64,0,0,0-1.86-.75,1.93,1.93,0,0,0-1.72,1.08,4.76,4.76,0,0,1-4.25,2.69,1,1,0,0,0-.95,1V24a1,1,0,0,1-1,1,1,1,0,0,1-1-1V12.5A6.73,6.73,0,0,1,8.67,5.8a8.46,8.46,0,0,1,.87,0,1,1,0,0,0,1-.48A6.68,6.68,0,0,1,21.36,4.19a1,1,0,0,0,1.23.17,2.76,2.76,0,0,1,1.49-.43A2.9,2.9,0,0,1,26.8,5.86a.93.93,0,0,0,.6.59,1,1,0,0,0,.84-.11,2.87,2.87,0,0,1,4.4,1.71A3,3,0,0,1,28.26,11.22Zm4.45,10h3.84V35.69H32.71Zm7.68,15.45a2.88,2.88,0,0,1-2.88,2.88h-4.8V37.61h4.8a1,1,0,0,0,1-1V20.24a1,1,0,0,0-1-1h-4.8V17.36h4.8a2.89,2.89,0,0,1,2.88,2.88Z"/></g></g></svg>