<svg xmlns="http://www.w3.org/2000/svg" viewBox="0 0 43 40.7"><defs><style>.cls-1{fill:#42210b;}</style></defs><title>資產 9</title><g id="圖層_2" data-name="圖層 2"><g id="圖層_1-2" data-name="圖層 1"><path class="cls-1" d="M36.15,10.48H33.84V0H0V32.67a8,8,0,0,0,8,8H25.82a8,8,0,0,0,8-8V30.22h2.31A6.85,6.85,0,0,0,43,23.37v-6A6.85,6.85,0,0,0,36.15,10.48ZM31.29,32.67a5.49,5.49,0,0,1-5.47,5.48H8a5.49,5.49,0,0,1-5.48-5.48V2.56H31.29V32.67Zm9.16-9.3a4.31,4.31,0,0,1-4.3,4.3H33.84V13h2.31a4.3,4.3,0,0,1,4.3,4.29Z"/><path class="cls-1" d="M27.18,17.18a19.83,19.83,0,0,0-.93-5.37L26,11.23l-.57-.2a19.72,19.72,0,0,0-6-.95,12.78,12.78,0,0,0-9.29,3.52,12.9,12.9,0,0,0-3.5,9.93,19.71,19.71,0,0,0,.93,5.36l.21.58.57.2a19.64,19.64,0,0,0,6,.95h0a12.81,12.81,0,0,0,9.29-3.51A13,13,0,0,0,27.18,17.18ZM19,12.64h.44a17.07,17.07,0,0,1,3.08.29L19,16.45Zm-4.83,1.15A9.81,9.81,0,0,1,16.47,13v6l-2.28,2.28Zm-2.56,2v8.07L9.5,26C9,23.4,8.78,19,11.63,15.77Zm2.76,12.3a18,18,0,0,1-3.09-.29l2.14-2.14h8.07A10.32,10.32,0,0,1,14.39,28.07Zm9.09-5H16l2.28-2.28h6A9.94,9.94,0,0,1,23.48,23.09Zm1.15-4.84h-3.8l3.52-3.52A17.49,17.49,0,0,1,24.63,18.25Z"/></g></g></svg>