<svg xmlns="http://www.w3.org/2000/svg" viewBox="0 0 42.53 46.61"><defs><style>.cls-1{fill:#42210b;}</style></defs><title>資產 11</title><g id="圖層_2" data-name="圖層 2"><g id="圖層_1-2" data-name="圖層 1"><path class="cls-1" d="M42.13.15A.89.89,0,0,0,40.9.39L37.7,5.16C34.37,3.74,28.88,3,23.5,3a48.94,48.94,0,0,0-9.89,1A7.51,7.51,0,1,0,10,15.4c.69,1,1.45,2,2.23,3a1.44,1.44,0,0,0,.36.47c3,3.91,6.36,8,8.42,10.44a3.83,3.83,0,0,0,2.08,1.26v9.78c-2.85.07-9.8.49-9.8,3.11,0,3,8.91,3.12,10.7,3.12s10.69-.15,10.69-3.12c0-2.62-6.95-3-9.8-3.11V30.57a3.79,3.79,0,0,0,2-1.31q4.72-5.9,7.85-10.21a1.45,1.45,0,0,0,.47-.66c3.47-4.83,5.36-8.07,5.64-9.7a1.75,1.75,0,0,0,.05-.4A2.94,2.94,0,0,0,39.29,6l3.09-4.61A.9.9,0,0,0,42.13.15ZM14.5,5.53a48.84,48.84,0,0,1,9-.8A38.88,38.88,0,0,1,36.69,6.68l-2.33,3.47A61.18,61.18,0,0,1,23.5,11a70.27,70.27,0,0,1-8.79-.5,1.29,1.29,0,0,0,0-.19,5.32,5.32,0,0,0,.16-.69c0-.1,0-.2.05-.3a6.63,6.63,0,0,0,.08-1c0-.24,0-.48,0-.72s0-.3-.06-.44,0-.18,0-.27a5.29,5.29,0,0,0-.13-.54l0-.14c-.06-.2-.13-.39-.2-.58ZM34.2,16.7a7.89,7.89,0,0,0-1.69-.59l2.92-4.35a18.25,18.25,0,0,0,2.47-.69C37.12,12.44,35.91,14.3,34.2,16.7Zm-2.76,1a12.32,12.32,0,0,1,1.41.3,14.69,14.69,0,0,1-1.9.43Zm-2.85,1.05C27.26,18.9,25.7,19,24,19a39,39,0,0,1-9.32-1A42.8,42.8,0,0,1,24,17.2c2.14,0,4,.11,5.52.26Zm2-3A51.06,51.06,0,0,0,24,15.42c-6.4,0-9.42.62-10.79,1.33-.75-1-1.46-2-2.11-2.88l0-.07c0-.06-.08-.12-.13-.19-.16-.23-.33-.47-.48-.7l-.17-.25Q10,12.32,9.78,12l-.12-.17-.41-.67a16.59,16.59,0,0,0,1.76.5l1.14.24v0l1.19.18.65.1h0a70.61,70.61,0,0,0,9.51.59A73.68,73.68,0,0,0,33,12.17ZM7.52,14a5.74,5.74,0,1,1,4.92-8.67A6,6,0,0,1,13,6.74a.29.29,0,0,0,0,.09,5.79,5.79,0,0,1,.12.6.77.77,0,0,1,0,.15,5.78,5.78,0,0,1,.05.71,6.11,6.11,0,0,1-.07.86,1.55,1.55,0,0,1,0,.21,6.45,6.45,0,0,1-.21.84l-.77-.15L11.71,10l-.22-.05L11,9.79l-.1,0-.47-.12-.06,0L10,9.49l0,0-.35-.12-.09,0-.25-.1L9,9.13l-.1,0c-.91-.43-1-.77-1-.77h0v0h0a.86.86,0,0,0-1-.59.9.9,0,0,0-.66.59H6.12c0,.63.28,1.73,2.07,4.52l0,0,0,.06c.19.3.4.61.63.95A5.78,5.78,0,0,1,7.52,14Zm25.2,29.46c-.8.53-3.79,1.34-8.77,1.34s-8-.81-8.77-1.34c.74-.5,3.43-1.24,7.88-1.33v1a.89.89,0,0,0,1.78,0v-1C29.28,42.25,32,43,32.72,43.49ZM25.48,28.15a2,2,0,0,1-1.56.76h0a2,2,0,0,1-1.56-.72c-1.64-2-4.13-5-6.57-8.07a48.34,48.34,0,0,0,8.19.65c1.13,0,2.28,0,3.38-.11l-3.92,5.85a.88.88,0,0,0,.24,1.23.91.91,0,0,0,.5.15.88.88,0,0,0,.74-.39l4.72-7c.59-.07,1.16-.15,1.68-.24l.41-.09C30,22.43,27.93,25.09,25.48,28.15ZM39.09,8.29c0,.31-.69.78-2.17,1.25l1.39-2.09C38.82,7.77,39.09,8.06,39.09,8.29Z"/></g></g></svg>