<svg xmlns="http://www.w3.org/2000/svg" viewBox="0 0 42.77 30.17"><defs><style>.cls-1{fill:#42210b;}</style></defs><title>資產 7</title><g id="圖層_2" data-name="圖層 2"><g id="圖層_1-2" data-name="圖層 1"><path class="cls-1" d="M2.72,30.17l3.76-5.73C-2.28,18.06.47,8.83.21,0H31.28V7.92c1.25-1.71,1.9-2.75,2.7-3.66,2.23-2.52,5.06-2.73,7.19-.6a4.62,4.62,0,0,1-.31,7.24c-2.1,1.66-4.82,2.52-7.14,3.94a13.58,13.58,0,0,0-3.4,3.06c-1.75,2.22-3.29,4.61-5,7l3.36,5.28ZM2.18,1.74c0,3.38.15,6.35,0,9.3-.29,4.42,1.44,7.88,4.51,10.86C9,24.18,22.25,24.17,24.72,22c6.56-5.7,4.4-13.11,4.52-20.28ZM6.79,27.33c.06.36.11.72.17,1.08H24.58l.46-.92c-1.23-.66-2.56-2-3.69-1.86C16.51,26.23,11.11,23.59,6.79,27.33ZM32,12.45c.26.27.53.53.79.79a68.49,68.49,0,0,0,6.62-3.81,2.62,2.62,0,0,0,.28-4.28c-1.58-1.63-3.17-1-4.15.51A72.8,72.8,0,0,0,32,12.45Z"/><path class="cls-1" d="M12.25,15.05c-2.25-.87-5-1.12-6.27-2.62C4.38,10.57,7.15,8.05,9.81,9a42.1,42.1,0,0,1,3.91,1.85C14.46,8,10.41,3.15,16,3.32c4.69.14,1.52,4.57,1.78,7.26,2.61-.27,4.89-3.66,7.49-.75,1.71,1.93.07,4.63-2.78,4.63A30.73,30.73,0,0,1,18.8,14c.95,2.79,7.37,4.16,2.58,7.4-3.79,2.57-3.79-2.67-5.54-4.73-1.88,1.8-1.69,7.83-6,4.49C5.92,18.13,11.36,16.68,12.25,15.05Z"/></g></g></svg>