<svg xmlns="http://www.w3.org/2000/svg" viewBox="0 0 42.53 40.57"><defs><style>.cls-1{fill:#42210b;}</style></defs><title>資產 3</title><g id="圖層_2" data-name="圖層 2"><g id="圖層_1-2" data-name="圖層 1"><path class="cls-1" d="M5.84,39.93c0-6.6.09-13.2-.1-19.79a4.63,4.63,0,0,0-2.06-3.23c-3.81-2.3-4.9-6-2.14-9.5A14.5,14.5,0,0,1,6.6,3.33a33.32,33.32,0,0,1,29.77.36,14.2,14.2,0,0,1,5.26,4.72c1.94,2.93.61,6.82-2.81,8.46-2,.95-2.36,2.12-2.32,4.07.12,5.67,0,11.34.06,17,0,1.56-.16,2.63-2.14,2.62-8.92-.08-17.85-.06-26.77-.1a3.27,3.27,0,0,1-.88-.26Zm28.91-1.31c0-5.82-.08-11.38,0-16.94.06-2.67.14-5-3.32-5.68-.84-.17-1.64-2-1.84-3.19-.09-.57,1.32-2,1.94-2a6,6,0,0,1,3.33,1.7,14.76,14.76,0,0,1,1.94,3.49c2.45-1,4.09-2.67,3.58-4.83a8.59,8.59,0,0,0-3.5-5.13C26.94.58,16.67.37,6.41,5.48A9.9,9.9,0,0,0,3.3,8.06c-2.66,3.26-1.66,6.22,2.46,7.62C6.5,14.43,7,12.79,8.07,12c.89-.62,2.52-.19,3.82-.23a15.29,15.29,0,0,1-.47,4.11c-.25.65-1.67.77-2.41,1.33-.58.44-1.34,1.17-1.34,1.78-.1,6.49-.07,13-.07,19.6Z"/></g></g></svg>