<svg xmlns="http://www.w3.org/2000/svg" viewBox="0 0 41.56 18.28"><defs><style>.cls-1{fill:#42210b;}</style></defs><title>資產 5</title><g id="圖層_2" data-name="圖層 2"><g id="圖層_1-2" data-name="圖層 1"><path class="cls-1" d="M37.1,10.62a8.34,8.34,0,0,0-.78,2c-.42,3.4-2.25,4.1-4.54,4.57A51.75,51.75,0,0,1,8.33,16.7,3,3,0,0,1,6,14.34c-.37-1.28-.93-2.46-1.41-3.69-1,.32-1.92,1-2.74.78A3.07,3.07,0,0,1,0,9.35,1.82,1.82,0,0,1,2,7.12c.12,0,.28,0,.37.07C4.87,9.48,6.64,7.08,8.53,5.5A18.11,18.11,0,0,0,11,3.21c2.72-3.3,6-3.5,9.42-3C22,.42,23.6,0,25.15.38A11.16,11.16,0,0,1,29.44,2.3c2.17,1.62,4.13,3.7,6.27,5.4.55.43,1.44.14,2.17.18.06,0,.12-.11.17-.11A14.69,14.69,0,0,1,41.37,8a6.33,6.33,0,0,1,.12,2.49,12.09,12.09,0,0,1-3.26.59C37.89,11.11,37.53,10.81,37.1,10.62ZM6.44,11.92A4,4,0,0,0,10,15.61a52.7,52.7,0,0,0,22.12,0A3.75,3.75,0,0,0,35.29,12a37.76,37.76,0,0,0-4.74-1.79,3.84,3.84,0,0,0-2.8.45c-1.66,1.06-3.18,1.28-4.79,0a2.89,2.89,0,0,0-4.07-.06c-1.64,1.35-3.21,1.22-5,.11a4.38,4.38,0,0,0-3.12-.2A33.74,33.74,0,0,0,6.44,11.92ZM19.57,1.36c-1.27-.17-1.83,0-2,1.66a6.49,6.49,0,0,1-1.66,2.92c-.15.18-1.24-.39-1.23-.58a25.56,25.56,0,0,1,.42-3.13,5,5,0,0,0-.07-.85L6.32,9.27l.18.82c1.1-.24,2.32-.17,3.27-.78,1.73-1.13,3.19-1.28,5,0a3.23,3.23,0,0,0,3.29,0,4.61,4.61,0,0,1,5.7,0,3,3,0,0,0,3.12,0c1.9-1.39,3.49-1.17,5.32.07.84.58,2,.41,3,.58.06-.32.13-.65.19-1-3.58-1.66-5.84-6.15-9.19-7.31-.88,1.72-1.48,3-2.21,4.19-.1.16-1.22-.37-1.22-.54.05-1.33.25-2.66.42-4.07-.84-.07-1.78-.09-1.69,1.91a2.34,2.34,0,0,1-.39,1.55,9,9,0,0,1-2,1,14,14,0,0,1-.31-2.54A6.68,6.68,0,0,1,19.57,1.36Z"/></g></g></svg>