<svg id="圖層_1" data-name="圖層 1" xmlns="http://www.w3.org/2000/svg" viewBox="0 0 166 166">
  <defs>
    <style>
      .cls-1 {
        fill: #f7931e;
      }
    </style>
  </defs>
  <title>2018-07-29-YOLO-關於我們-精稿</title>
  <g>
    <path class="cls-1" d="M98.008,64.7V62.953c-3.483,4.073-7.966,5.629-12.086,7.774-.174.091-.436.012-.658.012.181-1.354,1.515-1.55,2.349-1.916,3.514-1.544,6.833-3.294,9.467-6.174a7.235,7.235,0,0,1,1.832-1.19c2.17-1.229,4.8-2.038,4.651-5.311-.006-.149.375-.286.439-.474,1.031-3.045,3.17-5.277,5.443-7.424a4.162,4.162,0,0,1,.841-3.019c.842-1.122,1.759-2.154,2.656-3.22a4.326,4.326,0,0,0,.492-1.454c.335,0,.873.134.974-.021,1.258-1.908,3.62-2.257,5.183-3.746,1.273-1.213,3.167-.873,4.716-1.53,1.117-.473,2.623.355,3.714-.74,2.069,1.476,4.71-.107,6.85,1.288.452.3,1.329.033,1.689.727.381.731,1.022,1.539.946,2.249-.142,1.312-.5,2.639-2.144,3.158a22.9,22.9,0,0,0-3.6,1.94c1.174.554,2.021,1.008,2.91,1.349.389.149.992-.1,1.281.122,2.348,1.779,5.389,2.32,7.62,4.255,1.207,1.047,2.511,2.134,2.708,3.887.237,2.092-.769,3.892-1.583,5.7-.173.387-.834.6-1.31.8a72.153,72.153,0,0,1-8.6,2.712,5.9,5.9,0,0,0-1.32.907,42.183,42.183,0,0,1,3.149,3.2c1.009,1.258,2.566,2.522.954,4.4.128,1.978-.834,3.651-1.471,5.284-2.743,1.319-5.6.922-8.413.944-3.015.023-6.032-.041-9.046.016a51.019,51.019,0,0,1-10.522-1.241c-3.106-.589-6.177-1.191-9.209-2.084a1.98,1.98,0,0,1-1.581-1.381c1.914.068,3.573,1.094,5.435,1.48,2.156.447,4.368.6,6.5,1.184a22.785,22.785,0,0,0,3.732.667c1.271.125,2.607-.233,3.745.679.135.108.487-.072.648.028,1.024.631,1.642-1.425,2.954-.3.66.565,2.1.246,3.187.279,1.114.033,2.229.007,3.345.007s2.237.086,3.342-.021a24.279,24.279,0,0,0,4.064-.676c2.011-.551,2.462-2.468.97-3.957-2.876-2.872-5.548-6-8.961-8.248a36.227,36.227,0,0,0-8.82-4.52,6.216,6.216,0,0,0-1.534-.016c.393.495.569.716.9,1.133h-3.019l1.638-.77a6.4,6.4,0,0,0-5.245-.9c-.1.631-.2,1.244-.361,2.252-.815-.785-1.384-1.335-2.173-2.094-.183.964-.3,1.573-.441,2.325-1.444-.206-2.324,2.241-4.261.793-2.654,2.733-5.826,5.156-6.6,9.586l-.831-2.532a17.745,17.745,0,0,0,1.075-2.848A1.838,1.838,0,0,1,98.008,64.7c.073.186.147.371.221.557.149-.186.3-.371.449-.557,1.342-1.341,2.683-2.683,3.945-4.024.414,0,.978.117,1.047-.018.69-1.361,2.178-1.344,3.29-1.81a15.293,15.293,0,0,1,9.6-.623,32.145,32.145,0,0,1,14.8,8.631c.69.684,1.375,1.372,2.085,2.082l1.338-.932c.361,1.28-.445,3.323,1.973,3.415.662-2.646-.782-4.332-2.521-5.579-.863-.619-1.7-2.011-3.249-1.32-.063-.539-.122-1.066-.177-1.544-2.094-1.228-4.374-1.964-6.28-3.543-2.727-2.257-6.219-2.782-9.589-3.424a6.02,6.02,0,0,0-2.612.118c-1.993.538-3.916,1.34-5.918,1.831a6.076,6.076,0,0,0-3.778,2.716c-1.315-.294-1.78.948-2.534,1.646-.681.631-1.713,1.134-1.411,2.378Zm15.426-16.1c-.509.1-1.284-.332-1.342.671l-.67.671a7.4,7.4,0,0,0-4.69,3.437c-.67,1.232-1.3,2.487-2.131,4.1l5.405-1.808L108,54.3l1.848-1.633c1.2-.114.7,2.292,2.218.975l-.666-.8,3.99-.6c.225.224.462.461.7.7l-4.618,2.093c.115.115.193.261.273.263,1.226.019,2.452.02,3.677.023a15.115,15.115,0,0,1,6.924,1.876c1.933,1,4.081,1.768,5.684,3.158,1.253,1.088,3.142.659,3.77,2.224.718-.494,1.239-1.149,1.776-1.163a15.805,15.805,0,0,0,3.748-.7,25.439,25.439,0,0,0,6.784-2.76c.478-1.575.222-2.887-1.123-3.554-2.215-1.1-4.25-2.613-6.746-3.108-.056-1-.832-.569-1.341-.671a14.862,14.862,0,0,0-9.313-3l1.87.971-7.982-.9c-.005-.1-.011-.2-.017-.3l5.4-.233c-3.383-.322-6.8-1.188-10.051.467.606,1.107.544,1.181-1.366,1.658a2.771,2.771,0,0,0-.071-.731l.132.131.547-.468L113.831,48A1.911,1.911,0,0,0,113.434,48.605Zm-.671-1.341c1.177-.4,2.34-.839,3.534-1.172,1.856-.519,3.717-1.138,5.684-.825.816.13,1.593.551,2.408.631a38.824,38.824,0,0,1,8.674,2.541,5.474,5.474,0,0,0,2,.782c.679.027,1.738-.783,2-.543.784.727,1.261.048,1.857-.085,0,.567.031,1.124-.006,1.676a1.419,1.419,0,0,0,1.235,1.635c2.093.022,3.177,1.532,4.665,2.9V52.237c-2.187-.8-3.035-3.533-5.894-3.632-1.285-1.395-3.158-1.758-4.721-2.669a14.721,14.721,0,0,0-4.794-1.327c-1.78-.344-3.784-.078-5.353-.807a6.438,6.438,0,0,0-4.736-.413c-1.485.528-3.248.835-4.482,2.106-.626.646-1.892.568-2.053,2.29l-.03-.579-1.311.256c.02.144.039.288.059.433A1.479,1.479,0,0,0,112.763,47.264Zm14.085-8.719h-2.041c.293-.533.456-.831.839-1.527l-6.013,1.934c-.253-.126-.649-.464-.792-.378a19.2,19.2,0,0,0-7.858,7.966,11.057,11.057,0,0,0,3.47-2.032,7.532,7.532,0,0,1,5.23-1.961,28.892,28.892,0,0,1,9.48,1.348,2.58,2.58,0,0,0,.938-.1c.066-.613.124-1.14.18-1.652,4.283-1.859,4.283-1.859,5.924-4.81a17.152,17.152,0,0,1-4-.859,7.244,7.244,0,0,0-4.111-.511c.137.515.136,1,.306,1.075,1.333.549,2.715.981,4.043,1.541.268.115.371.621.635,1.1l-4.887.884a6.82,6.82,0,0,0,.661-1.879q.011.306.02.614l1.977-.259c-.013-.15-.025-.3-.039-.448a2.8,2.8,0,0,0-1.948.63c-.66-.255-1.7.622-2.082-.731.044.043.087.087.13.131l.549-.467c-.071-.071-.141-.142-.212-.212A1.916,1.916,0,0,0,126.848,38.545Zm-21.7,22.707.238-.239a2.055,2.055,0,0,0-.45-.209c-.055-.013-.146.135-.22.209C104.86,61.094,105.006,61.175,105.147,61.252Zm-7.236,5.03-.239-.238a2.107,2.107,0,0,0-.21.45c-.012.055.136.146.21.22C97.753,66.569,97.833,66.423,97.911,66.282Z"/>
    <path class="cls-1" d="M85.264,70.739v1.82c1.435,1.172,3.045,2.3,4.422,3.662,1.537,1.521,2.812,3.3,4.3,4.875.644.677,1.125,1.579,2.271,1.786.433.078.72.953,1.075,1.464l2.677,3.851a6.227,6.227,0,0,1-1.661,5.4c-.809.812-.5,1.406.85,2.081.333,3.356.673,6.788,1,10.106l-2.631,2.535a9.185,9.185,0,0,0-3.975.608c-1.287.436-2.656.037-4.11.559-1.767.635-3.946.159-5.944.094-.765-.024-4.161.25-5,.393-2.8.474-5.363,2.1-8.337,1.68-3.18,1.26-6.514.707-9.75.583-2.658-.1-5.122,1-7.861.722l-1.534-1.976c.223-.176.667-.443.637-.516-.35-.862-.771-1.7-1.133-2.449l.817-2.338.286.088v2.3l2.224,4.115a35.488,35.488,0,0,1,3.7-.508c2.453-.072,4.914.065,7.363-.047,2.369-.108,4.73-.4,7.088-.667.491-.056.935-.445,1.428-.573,1.92-.5,3.841-.99,5.779-1.406s3.863-1.5,5.815-.028a.65.65,0,0,0,.613-.078c1.36-1.225,2.982-.306,4.456-.568a28.416,28.416,0,0,1,4.409-.638,5.416,5.416,0,0,0,4.161-1.743c-.045-.914-.1-1.947-.154-3.14l-.911.786c-1.075-1.509.815-1.032,1.126-1.868-.2-.718-.939-1.944-.6-2.434a4.309,4.309,0,0,0,.469-2.768c-1.356-1.117-3.019-.928-4.631-.965.037-.544.058-.847.086-1.262h2.756c.637-.857,1.162-1.516,1.636-2.21a4.2,4.2,0,0,0-.229-4.644c-1.784-2.065-3.616-4.089-5.44-6.119-.447-.5-1.126-.868-1.383-1.439-.79-1.758-2.214-2.732-3.7-3.847-1.275-.954-3.007-1.7-3.564-3.4-.646-1.976-2.133-2.5-3.931-2.534-2.566-.047-5.134-.012-7.7-.012.423-1.549,2.078.034,2.683-1.046,0-1.571-.1-3.14.025-4.691a7.267,7.267,0,0,1,1.987-4.994,8.244,8.244,0,0,1-.384,2.157c-1.024,2.55-1.695,5.219.127,8.069L82.2,68.8C83.849,70.337,83.849,70.337,85.264,70.739Z"/>
    <path class="cls-1" d="M48.375,38.545c.079-.19.113-.507.242-.551a21.411,21.411,0,0,1,4.413-1.4A39.173,39.173,0,0,0,57.9,35.405c1.638-.4,3.331-.427,5-.785,2.283-.492,4.629-1.194,7.047-.77,5.984-1.418,12.067-.655,18.085-.56,4.177.066,8.345,1.136,12.467,2.04,1.153,1.233,3.069-.185,4.177,1.2,2.984-.473,5.221,1.286,7.629,2.543a7.933,7.933,0,0,0,1.134.4v1.083c-.335,0-.787.142-.988-.022a12.506,12.506,0,0,0-8.292-2.675,1.735,1.735,0,0,1-.673-.249l-.336-1.078c-.958,0-1.99.3-2.709-.054-2.518-1.224-5.309-1.272-7.936-1.825-3.594-.757-7.387-.548-11.09-.817A5.849,5.849,0,0,0,76.421,35.6c-.237.248-.8.182-1.217.261l1.4-1.918-6.093.7L67.826,37.2l.76-2.885a8.528,8.528,0,0,1-2.366.831c-1.382-.018-2.579.148-3.463,1.362-.115.158-.635.022-.967.022-.009-.919-.74-.736-1.191-.647-1.934.381-3.95.577-5.516,1.988a5.18,5.18,0,0,0-.218-.535c-1.712.508-3.639.32-4.982,1.977a31.5,31.5,0,0,1-3.52,3.253A1.751,1.751,0,0,1,47,40.887a12.237,12.237,0,0,0,1.375-1.672l.557-.22Z"/>
    <path class="cls-1" d="M28.925,98.238h1.247c.218-1.329-.428-1.911-1.345-1.973a1.818,1.818,0,0,1-1.914-1.381c.671,0,1.341,0,2.042-.035a1.279,1.279,0,0,0-.1.1l.468.548.211-.211a3.74,3.74,0,0,0-.578-.433A6.03,6.03,0,0,0,25.4,90.174c-.222-.109-.338-.432-.5-.656h2.168c-1.2-1.077-2.139-1.927-2.914-2.626.469-.921.752-1.477,1.115-2.188.944.618,1.976,1.039,2.984.119-.269,1.705-.539,3.411-.847,5.366a4.115,4.115,0,0,0,2.568-.836c.472-.309.211-.109,0,.133-.45.509-1.469.9-.391,1.779.109.089.022.428.013.65-.105,2.815,1.661,4.792,3.165,6.93-.1-3.426,1.077-7.039-2.784-9.492-.5-1.182.343-1.756,2.3-1.27V86.165a5.259,5.259,0,0,1,1.344,3.908c-.014,1.664-.518,3.561.108,4.942a16.926,16.926,0,0,1,1.218,7.626c.722.351,1.6.949,1.733.812,1.346-1.354,2.283.11,2.979.621a24.932,24.932,0,0,1,3.349,3.553c-.873.215-1.375-.324-1.906-.883-.571-.6-1.071-1.4-2.119-1.129-.5-1.373-1.4-1.695-2.511-1.155.185.674.342,1.251.5,1.826l-3.32-2.78c-.308.2-.656.414-1.081.683l-.85-.788c.072-.156.105-.391.221-.445.277-.128.825-.122.852-.254.1-.5.263-1.248,0-1.521-1.01-1.061-1.828-2.511-3.641-2.4C29.09,98.785,29,98.427,28.925,98.238Zm5.256.786-.6.034q.124.889.249,1.779l.351-.032ZM26.674,86.932l-.432.239c.075.075.166.222.22.21a2.067,2.067,0,0,0,.451-.21Z"/>
    <path class="cls-1" d="M113.293,102.459c.677.676,1.353,1.034,1.369,1.421.081,1.858.022,3.727-.072,5.587-.031.606-.453,1.2-.463,1.8-.048,3.231-.056,6.464,0,9.695a6.022,6.022,0,0,0,.472,1.713c1.755.418,3.094.689,4.4,1.064a10.457,10.457,0,0,0,4.075.678c1.613-.173,3.049.773,4.737.725a29.97,29.97,0,0,0,9.145-1.4,6.688,6.688,0,0,1,1.667-.018,9.349,9.349,0,0,1-3.867,1.413c-3.729.7-8.181.39-11.537.15-2.821-.2-5.3-1.582-8.095-1.607a7.756,7.756,0,0,1-2.368-.874c0-1.893-.358-3.864.075-5.643.9-3.7.281-7.424.688-11.1A12.92,12.92,0,0,0,113.293,102.459Z"/>
    <path class="cls-1" d="M146.246,105.984a8.037,8.037,0,0,1,.746-1.967c1.806-2.521,1.629-5.128.707-7.907a4.156,4.156,0,0,0-.827-1.675,14.826,14.826,0,0,0-7.439-4.659,8.887,8.887,0,0,0-6.069.223,1.988,1.988,0,0,1-1.9-.378,6.976,6.976,0,0,1,1.974-.738,43.054,43.054,0,0,1,6.021.011,8.471,8.471,0,0,1,4.088,1.452,20.232,20.232,0,0,1,3.908,3.407,8.842,8.842,0,0,1,1.493,2.714c.293.778.013,1.913.486,2.451,1.023,1.162-.741,1.38-.516,2.353C149.411,103.4,148.149,104.949,146.246,105.984Z"/>
    <path class="cls-1" d="M34.961,75.434A15.8,15.8,0,0,1,24.88,73.072a4.76,4.76,0,0,1-2.211-2.036,23.633,23.633,0,0,0-2.07-3.49c-.928-1.251.346-2.891-1.03-3.977-.336-.264.688-3.162,1.308-4.232,0,1,.414,2.4-.087,2.927-1.033,1.091.317,1.651.168,2.549-.331,2,.931,3.636,2.134,5.078a12.744,12.744,0,0,0,10.672,4.884C34.244,74.758,34.952,74.513,34.961,75.434Z"/>
    <path class="cls-1" d="M102.046,112.96c1.412-.294,1.752,1.128,2.67,1.623-.153,1.3.556,2.74-1.072,3.776-1.362,0-2.9.022-4.44-.03-.182-.006-.351-.417-.526-.641a31.568,31.568,0,0,1,3.343.028,1.769,1.769,0,0,0,1.918-.985,1.731,1.731,0,0,0-.7-2.211c-.619.172-1.228.545-1.74.441a30.829,30.829,0,0,1-3.466-1.1c-.173.311-.529.923-.514.932,1.09.673-.467,1.017-.184,1.558-.951-1.625-.976-2.823.188-3.112,1.389-.343,2.7-1.442,4.264-.8.134.055.164.363.257.52-.466.061-.9.146-.69.105.063.306.17.825.278,1.343l.334-.226C102,113.787,102.026,113.391,102.046,112.96Z"/>
    <path class="cls-1" d="M32.279,86.165c-.224-.287-.665-.606-.628-.853.09-.595.608-1.16.6-1.729-.111-4.863-.14-4.831,2.715-6.808-.051,1.4-.672,2.451-2.409,3.319h2.956c.091.754.016,1.66.243,1.743,1.171.429,1.576,1.776,2.73,2.136.838.261,1.607.556,1.846,1.521-2.479-.646-4.691-1.679-6.055-4.024-.19-.328-.629-.511-1.323-1.047,0,1.564.081,2.646-.028,3.709A10.188,10.188,0,0,1,32.279,86.165Z"/>
    <path class="cls-1" d="M129.775,89.746c-3.119-1.843-5.868-2.945-8.741-2.022-2.541.816-5.07,2-6.6,4.85-.212-.733-.38-1.047-.31-1.114,1.148-1.113,2.269-2.265,3.508-3.268,2.679-2.168,8.334-1.812,11.554.017C129.435,88.352,129.461,88.893,129.775,89.746Z"/>
    <path class="cls-1" d="M31.608,47.935c1.59-2.357,4.295-3.212,6.427-4.832,1.857-1.41,4.409-1.362,6.038-3.178.247-.276,1.065-.039,1.619-.039-1.148.813-2.189,1.966-3.467,2.371a21.348,21.348,0,0,0-7.541,4.278C33.37,46.369,33.061,48.41,31.608,47.935Z"/>
    <path class="cls-1" d="M124.165,93.542a4.278,4.278,0,0,1,1.437.478,31.07,31.07,0,0,1,2.218,2.212c.95-1.853,2.622-2.345,4.267-2.643a21.578,21.578,0,0,1,3.941-.044,1.566,1.566,0,0,1,1.551,1.339c-1.3.107-2.352-.782-3.726-.763a8.326,8.326,0,0,0-4.4,1.5c-.752.472-1.071,1.633-1.622,2.547C126.63,96.659,125.4,95.1,124.165,93.542Z"/>
    <path class="cls-1" d="M112.763,101.591c-1.638-1.017-1.653-2.757-1.254-4.169a6.328,6.328,0,0,1,3.413-3.915,11.246,11.246,0,0,1,7-1.178c.1.017.155.355.232.543a25.984,25.984,0,0,0-2.968.027,9.659,9.659,0,0,0-2.361.656,7.462,7.462,0,0,0-4.065,3.309c-.566,1.036-1.186,1.995-.037,3.119C113,100.251,112.763,101.042,112.763,101.591Z"/>
    <path class="cls-1" d="M38.985,105.615v2.28c1.541,1.866,3.62,3.262,4.656,5.522-2.333-1.473-3.793-4.016-6.688-4.678,1.16-.877-.416-1.644.02-2.453l1,.575C38.286,106.479,38.636,106.047,38.985,105.615Z"/>
    <path class="cls-1" d="M138.92,106.286c0,4.456.011,8.911-.007,13.368a3.9,3.9,0,0,0,.678,2.729h-1.186a9.224,9.224,0,0,1-.148-1.195q-.017-6.852,0-13.7C138.262,107,138,106.3,138.92,106.286Z"/>
    <path class="cls-1" d="M34.961,76.775V75.434c.349-.224.725-.673,1.044-.636,2.837.325,5.563-.51,8.346-.706-.079.191-.113.507-.242.553A18.4,18.4,0,0,1,38.026,76.1,4.284,4.284,0,0,0,34.961,76.775Z"/>
    <path class="cls-1" d="M137.579,94.884a5.434,5.434,0,0,1,4.023,4.752c.007.111,0,.223,0,.334v4.084l-2.012,1.561c-.117-.707.345-1.163.627-1.744,1.406-2.9.868-5.383-1.213-7.25A14.5,14.5,0,0,1,137.579,94.884Z"/>
    <path class="cls-1" d="M115.987,63.942h-2.946c-1.135-2.941-3.419-1.577-5.586-1.631a8.36,8.36,0,0,1,1.522-.938c.731-.262,1.7-.71,2.253-.438a31.256,31.256,0,0,0,3.424,1.354C115.059,62.433,115.3,63.053,115.987,63.942Z"/>
    <path class="cls-1" d="M110.08,132.444v-1.89l-3.806-.186c-.105-.32-.231-.7-.421-1.278h-1.809a5,5,0,0,1,4.961-.072c.511.355,1.036.691,1.64,1.092C110.451,130.793,111.5,131.885,110.08,132.444Z"/>
    <path class="cls-1" d="M144.957,119.029c0-2.12-.121-4.251.036-6.36a38.078,38.078,0,0,1,1.019-5.641c.168,2.062.643,4.054-.188,6.193C145.123,115.028,145.934,117.183,144.957,119.029Z"/>
    <path class="cls-1" d="M122.672,74.842h8.86c-2.1.982-2.1.96-5.079.621-.352-.041-.752.306-1.124.485C124.206,76.493,123.481,75.914,122.672,74.842Z"/>
    <path class="cls-1" d="M105.385,72.188c2.046-1.026,3.881-.809,5.355.909-.273.274-.507.507-.741.741-2.355-.783-2.355-.783-2.773-1.65Z"/>
    <path class="cls-1" d="M24.482,78.827l1.881,5.211c-1.687.4-1.876-1.2-2.937-1.469C24.731,81.681,24,80.463,24.482,78.827Z"/>
    <path class="cls-1" d="M97.749,126.32H94.588c1.286-.727,2.382-1.346,3.376-1.906l-.918-2.384C99.07,124.04,99.093,124.533,97.749,126.32Z"/>
    <path class="cls-1" d="M144.957,119.029c-.018,1.835-1.455,2.538-2.719,3.341-.762.484-1.6.841-2.647,1.376v-1.363a4.653,4.653,0,0,0,3.229-1.534C143.491,120.2,144.242,119.633,144.957,119.029Z"/>
    <path class="cls-1" d="M51.058,110.981c-.334,0-.859.136-.971-.021-.883-1.239-2.111-1.3-3.479-1.381a2.357,2.357,0,0,1-2.257-1.281l5.3.875C50,109.62,50.53,110.3,51.058,110.981Z"/>
    <path class="cls-1" d="M92.64,122.208c1.184-2.25,2.544-.68,3.91-.325-.227.524-.45,1.04-.719,1.659Z"/>
    <path class="cls-1" d="M105.385,72.409c-2.051.326-3.462-.488-5.016-3.316Z"/>
    <path class="cls-1" d="M130.208,73.042c-.926,1.071-1.293-.746-2.121.067-.352.345-1.139.249-1.833.031l3.807-2.265C130.114,71.662,130.17,72.48,130.208,73.042Z"/>
    <path class="cls-1" d="M114.626,117.316c.473-1.907-.595-3.581,1.027-4.865C116.431,114.83,116.332,115.516,114.626,117.316Z"/>
    <path class="cls-1" d="M104.549,64.493a5.465,5.465,0,0,1,2.579-.361l.84,1.637c-.581.808-2.739.179-3.419-1.276.829.552.838.746.848.939l1.311-.257c-.019-.144-.039-.289-.059-.433A5.243,5.243,0,0,1,104.549,64.493Z"/>
    <path class="cls-1" d="M26.913,94.884a6.294,6.294,0,0,1-4.695-2.012C24.1,92.8,25.9,92.928,26.913,94.884Z"/>
    <path class="cls-1" d="M83.923,121.712l2.682,2.012v1.21a5.083,5.083,0,0,1-3.314-2.393C83.223,122.417,83.7,122,83.923,121.712Z"/>
    <path class="cls-1" d="M110.62,70.473c-2.452.548-3.951.036-4.993-1.811Z"/>
    <path class="cls-1" d="M28.254,50.617c.873-1.2,1.524-2.677,3.354-2.682C30.734,49.135,30.083,50.613,28.254,50.617Z"/>
    <path class="cls-1" d="M134.675,72.751c-2.212.049-2.669-1.556-3.652-2.494C132.716,70.3,133.284,71.76,134.675,72.751Z"/>
    <path class="cls-1" d="M130.418,91.78l-1.969,1.97C128.551,92.462,129.006,92,130.418,91.78Z"/>
    <path class="cls-1" d="M110.989,65.259h-2.446l1.178-2.208Z"/>
    <path class="cls-1" d="M122.235,66.225l-2.844-1.138,2.592-1.256A2.538,2.538,0,0,0,122.235,66.225Z"/>
    <path class="cls-1" d="M108.6,67.943h-3.16v-1.3l3.162.963Z"/>
    <path class="cls-1" d="M22.889,55.983c-.1-1.473.934-2.093,2.012-2.683C25,54.773,23.966,55.393,22.889,55.983Z"/>
    <path class="cls-1" d="M124.58,68.589l1.885,1.162-1.6.729c-.144-.249-.474-.824-.8-1.4C124.233,68.918,124.406,68.753,124.58,68.589Z"/>
    <path class="cls-1" d="M104.354,132.457c-.606-.68-1.211-1.361-2.285-2.566.877.133,1.174.088,1.29.212.549.587,1.048,1.221,1.564,1.838Z"/>
    <path class="cls-1" d="M19.348,101.338c.8-1.816,1.667-2,3.032-1.508Z"/>
    <path class="cls-1" d="M115.579,74.879h3.844A4.2,4.2,0,0,1,115.579,74.879Z"/>
    <path class="cls-1" d="M100.769,71.693c-1.264.993-2.017.2-2.8-.663C99.21,70.065,99.709,71.87,100.769,71.693Z"/>
    <path class="cls-1" d="M101.84,66.1H103.8c-.888,1.347-.908,1.406-1.529,1.145C102.087,67.168,102.058,66.711,101.84,66.1Z"/>
    <path class="cls-1" d="M22.971,89V86.941C24.23,87.943,24.23,87.943,22.971,89Z"/>
    <path class="cls-1" d="M110.082,132.94h-2.628c0-.1,0-.2,0-.3h2.629C110.08,132.739,110.081,132.839,110.082,132.94Z"/>
    <path class="cls-1" d="M87.276,123.724a1.662,1.662,0,0,1,0,2.683Z"/>
    <path class="cls-1" d="M80.569,122.425v-1.189a7.727,7.727,0,0,1,1.082-.181,6.072,6.072,0,0,1,1.1.192Z"/>
    <path class="cls-1" d="M26.742,107.708h2.745a3.288,3.288,0,0,1-.17.518C28.5,108.107,27.471,108.778,26.742,107.708Z"/>
    <path class="cls-1" d="M143.618,106.783h-2.629c0-.1,0-.2,0-.3h2.63C143.615,106.581,143.616,106.682,143.618,106.783Z"/>
    <path class="cls-1" d="M124.165,64.032a1.652,1.652,0,0,1,2.012,1.341A1.652,1.652,0,0,1,124.165,64.032Z"/>
    <path class="cls-1" d="M28.834,102.539c.357,1.15-.327,1.07-1.355.628Z"/>
    <path class="cls-1" d="M80.486,122.486v1.887C79.863,123.26,79.863,123.26,80.486,122.486Z"/>
    <path class="cls-1" d="M23.957,85.411c-1.084.292-1.262-.18-.738-1.591Z"/>
    <path class="cls-1" d="M134.764,72.74l.093,1.96-.448.038q-.13-.989-.259-1.977C134.355,72.755,134.559,72.748,134.764,72.74Z"/>
    <path class="cls-1" d="M23.559,107.8h2.013v.335H23.559Z"/>
    <path class="cls-1" d="M26.913,51.959q-.306-1.647,1.341-1.342Z"/>
    <path class="cls-1" d="M122.153,92.872c.66.256,1.7-.622,2.012.67C123.505,93.288,122.468,94.164,122.153,92.872Z"/>
    <path class="cls-1" d="M21.547,92.2,20.206,90.86Q21.852,90.556,21.547,92.2Z"/>
    <path class="cls-1" d="M26.493,107.765c-.358-1.012-.41-1.618,1.267-1.374Z"/>
    <path class="cls-1" d="M17.1,91c-.358-1.013-.41-1.618,1.267-1.374C17.866,90.169,17.544,90.519,17.1,91Z"/>
    <path class="cls-1" d="M113.434,102.932c-1-.056-.57-.832-.671-1.341C113.766,101.649,113.333,102.424,113.434,102.932Z"/>
    <path class="cls-1" d="M23.682,101.706H24.8c.014.11.029.22.044.33l-1.121.244C23.707,102.089,23.694,101.9,23.682,101.706Z"/>
    <path class="cls-1" d="M23.041,100.239c.355.074.712.145,1.064.233a.41.41,0,0,1,.016.21c-.356.1-.716.178-1.076.263C23.044,100.709,23.042,100.474,23.041,100.239Z"/>
    <path class="cls-1" d="M27.3,97.463l1.625.463a5.593,5.593,0,0,1-.94.29C27.889,98.229,27.756,97.976,27.3,97.463Z"/>
    <path class="cls-1" d="M20.206,97.4H18.864v-.335h1.342Z"/>
    <path class="cls-1" d="M106.6,133h-1.113l-.045-.331,1.132-.246Z"/>
    <path class="cls-1" d="M22.736,96.236c-.356-.074-.712-.144-1.064-.233-.023,0-.03-.206-.016-.21.356-.1.716-.178,1.076-.262C22.733,95.766,22.734,96,22.736,96.236Z"/>
    <path class="cls-1" d="M18.742,96.111H17.628c-.015-.11-.029-.22-.044-.33l1.12-.244C18.717,95.728,18.729,95.92,18.742,96.111Z"/>
    <path class="cls-1" d="M86.623,127.6l-1.282.11c-.019-.145-.039-.289-.058-.434l1.31-.255C86.6,127.212,86.614,127.405,86.623,127.6Z"/>
    <path class="cls-1" d="M17.523,90.86c.508.1,1.284-.332,1.341.67C18.356,91.43,17.58,91.863,17.523,90.86Z"/>
    <path class="cls-1" d="M82.865,127.182l-1.625-.462a5.569,5.569,0,0,1,.94-.291C82.276,126.416,82.409,126.668,82.865,127.182Z"/>
    <path class="cls-1" d="M24.9,89.518c-1-.056-.57-.833-.671-1.341C25.233,88.234,24.8,89.01,24.9,89.518Z"/>
    <path class="cls-1" d="M80.719,126.425c-.037-.427-.073-.855-.11-1.281l.433-.059q.129.654.257,1.31Z"/>
    <path class="cls-1" d="M91.858,124.042c.242-.851.357-1.254.471-1.659a5.392,5.392,0,0,1,.291.94C92.634,123.421,92.385,123.557,91.858,124.042Z"/>
    <path class="cls-1" d="M86.605,123.724v-1.341c1,.057.57.833.671,1.341Z"/>
    <path class="cls-1" d="M22.05,86.836v1.341h-.335V86.836Z"/>
    <path class="cls-1" d="M83.905,121.192l1.282-.11c.019.144.039.288.058.433l-1.31.256Z"/>
    <path class="cls-1" d="M23.57,80.281c-.074.356-.145.712-.233,1.064,0,.023-.206.03-.21.016-.095-.351-.175-.7-.258-1.059Z"/>
    <path class="cls-1" d="M45.692,39.886c.058-1,.833-.569,1.342-.671C46.977,40.219,46.2,39.785,45.692,39.886Z"/>
    <path class="cls-1" d="M47.034,39.215c.057-1,.833-.569,1.341-.67v.67Z"/>
    <path class="cls-1" d="M22.605,78.683l1.625.463a5.593,5.593,0,0,1-.94.29C23.194,79.449,23.061,79.2,22.605,78.683Z"/>
    <path class="cls-1" d="M28.243,83.329c.075-.355.145-.711.233-1.063a.4.4,0,0,1,.21-.016c.095.35.176.7.259,1.059Z"/>
    <path class="cls-1" d="M31.06,106.4h1.113l.045.33-1.121.244C31.085,106.783,31.072,106.592,31.06,106.4Z"/>
    <path class="cls-1" d="M24.353,106.4h1.113c.015.11.03.219.044.33l-1.12.244C24.378,106.783,24.365,106.592,24.353,106.4Z"/>
    <path class="cls-1" d="M22.386,107.627v-1.341h.335v1.341Z"/>
    <path class="cls-1" d="M112.245,59.325c.355.075.712.146,1.064.234a.413.413,0,0,1,.016.211c-.351.094-.7.174-1.06.258Q112.256,59.676,112.245,59.325Z"/>
    <path class="cls-1" d="M20.877,59.337c.1-.509-.334-1.284.67-1.342C21.446,58.5,21.88,59.28,20.877,59.337Z"/>
    <path class="cls-1" d="M21.547,58c.1-.508-.333-1.284.671-1.341C22.117,57.162,22.551,57.938,21.547,58Z"/>
    <path class="cls-1" d="M44.351,108.3c-.508-.1-1.284.333-1.341-.671C43.518,107.729,44.294,107.3,44.351,108.3Z"/>
    <path class="cls-1" d="M25.572,52.63c.057-1,.832-.57,1.341-.671C26.855,52.962,26.08,52.529,25.572,52.63Z"/>
    <path class="cls-1" d="M103.373,129.761l.671-.671Z"/>
    <path class="cls-1" d="M24.9,53.3l.671-.67Z"/>
    <path class="cls-1" d="M22.218,56.654l.671-.671Z"/>
    <path class="cls-1" d="M83.684,127.175l.239.238a2.081,2.081,0,0,1-.45.21c-.056.012-.146-.135-.221-.21Z"/>
    <path class="cls-1" d="M121.244,62.116l.238.239a2.107,2.107,0,0,1-.45.21c-.055.012-.146-.135-.221-.21Z"/>
    <path class="cls-1" d="M122.249,62.929c.09-.089.165-.164.239-.239a2.1,2.1,0,0,1,.21.45c.013.055-.135.147-.21.221C122.408,63.215,122.327,63.069,122.249,62.929Z"/>
    <path class="cls-1" d="M124.1,64.1l-.548-.467.212-.212.467.548Z"/>
    <path class="cls-1" d="M87.276,126.407l-.67.671Z"/>
    <path class="cls-1" d="M126.848,66.044l-.671-.671Z"/>
    <path class="cls-1" d="M122.214,65.974l.548.467c-.071.07-.141.141-.212.212-.156-.183-.312-.365-.467-.549Z"/>
    <path class="cls-1" d="M126.908,65.974l.549.467c-.071.07-.141.141-.212.212l-.467-.549C126.822,66.061,126.865,66.017,126.908,65.974Z"/>
    <path class="cls-1" d="M128.8,67.456l-.548-.468.212-.212.468.548Z"/>
    <path class="cls-1" d="M129.53,68.056l-.67-.671Z"/>
    <path class="cls-1" d="M129.53,68.056l.671.67Z"/>
    <path class="cls-1" d="M130.262,68.656l.548.468-.211.212-.468-.548Z"/>
    <path class="cls-1" d="M93.373,125l.549.467-.212.212-.468-.548Z"/>
    <path class="cls-1" d="M97.276,72.822l-.548-.468.212-.212.467.548C97.363,72.733,97.32,72.777,97.276,72.822Z"/>
    <path class="cls-1" d="M114.536,74.189l.239.238a2.111,2.111,0,0,1-.45.211c-.055.011-.146-.136-.221-.211Z"/>
    <path class="cls-1" d="M93.252,125.137l-.548-.468.211-.212.468.548C93.339,125.049,93.3,125.092,93.252,125.137Z"/>
    <path class="cls-1" d="M27.009,83.914c.078-.141.159-.286.239-.432.075.075.222.165.21.22a2.045,2.045,0,0,1-.21.451Z"/>
    <path class="cls-1" d="M28.184,84.763c.156-.183.312-.365.467-.548.071.07.141.141.212.212l-.548.467Z"/>
    <path class="cls-1" d="M86.545,122.454,86,121.986l.211-.212.468.548Z"/>
    <path class="cls-1" d="M20.145,90.931l-.548-.468.211-.212.468.548C20.232,90.842,20.189,90.886,20.145,90.931Z"/>
    <path class="cls-1" d="M98.678,117.688l-.67-.671Z"/>
    <path class="cls-1" d="M98.008,117.017l-.671-.67Z"/>
    <path class="cls-1" d="M18.925,91.46l.548.468c-.071.07-.141.141-.211.212l-.468-.549C18.838,91.548,18.881,91.5,18.925,91.46Z"/>
    <path class="cls-1" d="M22.218,92.872l-.671-.671Z"/>
    <path class="cls-1" d="M16.791,96.967l-.548-.468.212-.211c.156.182.311.365.467.548Z"/>
    <path class="cls-1" d="M24.662,96.322l.239.239a2.114,2.114,0,0,1-.451.21c-.055.012-.146-.135-.22-.21Z"/>
    <path class="cls-1" d="M16.913,96.826l.548.468-.212.211-.467-.548Z"/>
    <path class="cls-1" d="M26.674,101.017c.09.09.164.165.239.239a2.164,2.164,0,0,1-.451.21c-.054.012-.145-.136-.22-.21Z"/>
    <path class="cls-1" d="M26.816,102.694l-.239.238a2.08,2.08,0,0,1-.209-.45c-.013-.055.135-.145.209-.22C26.658,102.407,26.738,102.554,26.816,102.694Z"/>
    <path class="cls-1" d="M143.545,106.225l.468-.548.212.212-.549.468Z"/>
    <path class="cls-1" d="M139.591,105.615l-.671.671Z"/>
    <path class="cls-1" d="M72.521,70.068a3.037,3.037,0,0,1-2.571,1.365c-2.016.177-4.126-.631-6.073.6-.229.144-.9-.611-1.351-.585-2.571.151-5.146.338-7.7.679-.777.1-1.177,1.044-2.081,1.377-2.239.824-4.487.49-6.734.588-.553.024-1.108,0-1.662,0a15.8,15.8,0,0,1,4.586-1.326A7.851,7.851,0,0,0,54.385,71.4a4.356,4.356,0,0,1,2.73-.677c2.223.039,4.449.012,6.674.012,1.557,0,3.121.086,4.669-.027C69.821,70.613,71.167,70.291,72.521,70.068Z"/>
    <path class="cls-1" d="M96,41.227c-.076.188-.1.469-.234.548-3.091,1.773-5.879,4.056-9.177,5.479a1.784,1.784,0,0,1-.65.01c1.682-2.16,4.171-3.271,6.424-4.59C93.4,42.062,94.528,41.028,96,41.227Z"/>
    <path class="cls-1" d="M81.91,51.288c0,.329.142.818-.021.962-2.1,1.855-3.061,4.382-4.127,6.852-.057.132-.358.159-.546.235-.295-1.817,1.029-3.082,1.61-4.593A6.433,6.433,0,0,1,81.91,51.288Z"/>
    <path class="cls-1" d="M50.388,46.593a4.727,4.727,0,0,1,.593-2.407c1.024-1.756,1.64-3.749,3.43-4.971,0,.221.084.49-.012.653A67.654,67.654,0,0,1,50.388,46.593Z"/>
    <path class="cls-1" d="M95.581,41.338c2.027-2.238,4.6-2.493,7.069-3.762C101.464,39.34,99.7,40.246,95.581,41.338Z"/>
    <path class="cls-1" d="M67.155,43.91c0-.219-.091-.507.014-.648,1.134-1.512,2.27-3.026,3.484-4.473.2-.244.788-.171,1.2-.244C70.238,40.292,69.409,42.725,67.155,43.91Z"/>
    <path class="cls-1" d="M76.571,55.642c-.167,2.177-1.48,5.241-2.674,6.153C74.886,59.9,74.6,57.465,76.571,55.642Z"/>
    <path class="cls-1" d="M81.91,51.288c-.3-1.245.731-1.747,1.411-2.378.754-.7,1.22-1.94,2.614-1.646-1.011,1.341-2,2.7-3.06,4C82.743,51.428,82.241,51.288,81.91,51.288Z"/>
    <path class="cls-1" d="M54.411,45.922a6.216,6.216,0,0,1,3.354-4.695c0,.221.095.524-.014.649C56.6,43.194,55.983,44.955,54.411,45.922Z"/>
    <path class="cls-1" d="M40.327,51.288a7.327,7.327,0,0,1-3.354,4.7A7.332,7.332,0,0,1,40.327,51.288Z"/>
    <path class="cls-1" d="M82.2,62.858a2.752,2.752,0,0,1,.966,2.431H80.6c.1-.628,0-1.454.369-1.882a1.642,1.642,0,0,1,1.233-.549c-.873,1.044-1.3,1.912-.2,1.819a.809.809,0,0,0,.553-.553C82.649,63.021,81.782,63.45,82.2,62.858Z"/>
    <path class="cls-1" d="M86.16,58.526c2.261,1.428,2.261,1.428.882,3.411C85.567,61.234,85.841,60.026,86.16,58.526Zm1.02,1.72c-.09-.089-.165-.164-.239-.239a2.088,2.088,0,0,0-.21.451c-.012.055.135.146.21.22C87.021,60.532,87.1,60.387,87.18,60.246Z"/>
    <path class="cls-1" d="M58.436,40.557c.074-.41.006-.96.247-1.2.984-.992,2.062-1.889,3.107-2.821-.074.409-.006.96-.247,1.2C60.559,38.727,59.48,39.625,58.436,40.557Z"/>
    <path class="cls-1" d="M67.826,37.2c-.61,1.728-.859,3.662-2.683,4.7C65.753,40.171,66,38.238,67.826,37.2Z"/>
    <path class="cls-1" d="M65.143,41.9a14.805,14.805,0,0,1-.408,2.062c-.372,1.083-.418,1.067,1.079,1.292l-.992,1.481c-.392-.619-.912-1.088-.979-1.615A2.918,2.918,0,0,1,65.143,41.9Z"/>
    <path class="cls-1" d="M104.284,42.035c-1.092.835-1.586,2.417-3.5,1.686l.87-1.8C102.472,43.094,103.242,41.442,104.284,42.035Z"/>
    <path class="cls-1" d="M51.348,50.672,50.121,51.88c-.331-.194-.663-.4-1.008-.588-.252-.134-.521-.234-.885-.393l1.246-2.535c.144.825.249,1.428.379,2.177Z"/>
    <path class="cls-1" d="M92.607,40.234l3.739-1.883C95.731,40.01,94.676,40.505,92.607,40.234Z"/>
    <path class="cls-1" d="M96,60.678c-.837,1.682-2.334,2.04-4.025,2.012A6.44,6.44,0,0,1,96,60.678Z"/>
    <path class="cls-1" d="M103.782,42.1l2.22-2.24c1,.2,1.006.862.378,1.306A11.041,11.041,0,0,1,103.782,42.1Z"/>
    <path class="cls-1" d="M39.823,46.781c-.73-1.932.637-2.557,1.551-3.595.731,1.226-.342,1.474-.692,2.052C40.391,45.718,40.135,46.218,39.823,46.781Z"/>
    <path class="cls-1" d="M94.831,58.83a6.385,6.385,0,0,1-3.921,1.976C92.216,59.351,93.154,58.554,94.831,58.83Z"/>
    <path class="cls-1" d="M71.85,38.545c.589-1.077,1.21-2.113,2.683-2.012C73.943,37.61,73.323,38.645,71.85,38.545Z"/>
    <path class="cls-1" d="M42.339,48.605c.1,1.473-.935,2.094-2.012,2.683C40.226,49.815,41.262,49.2,42.339,48.605Z"/>
    <path class="cls-1" d="M35.632,55.983c-.224-.278-.613-.54-.641-.837A2.538,2.538,0,0,1,36.3,52.63Q35.967,54.305,35.632,55.983Z"/>
    <path class="cls-1" d="M97.717,59.238c.965-.739,1.432-1.861,2.8-1.758C99.783,58.242,99.525,59.648,97.717,59.238Z"/>
    <path class="cls-1" d="M89.254,65.619c.819-.33,1.639-.659,2.7-1.083C91.44,66.278,90.3,66.02,89.254,65.619Z"/>
    <path class="cls-1" d="M85.256,51.115a1.588,1.588,0,0,1,1.591-1.843Z"/>
    <path class="cls-1" d="M104.21,44.837c.223-1,.514-1.9,2.065-1.341Z"/>
    <path class="cls-1" d="M45.022,44.581a1.654,1.654,0,0,1-1.342,2.012A1.654,1.654,0,0,1,45.022,44.581Z"/>
    <path class="cls-1" d="M42.339,48.605a1.653,1.653,0,0,1,1.341-2.012A1.652,1.652,0,0,1,42.339,48.605Z"/>
    <path class="cls-1" d="M51.058,50.617A1.654,1.654,0,0,1,52.4,48.605,1.654,1.654,0,0,1,51.058,50.617Z"/>
    <path class="cls-1" d="M98.008,59.337A1.653,1.653,0,0,1,96,60.678,1.652,1.652,0,0,1,98.008,59.337Z"/>
    <path class="cls-1" d="M83.608,60.535c-.468.437-.742.82-.857.777a1.873,1.873,0,0,1-.808-.665c-.047-.065.312-.6.483-.6A3.937,3.937,0,0,1,83.608,60.535Z"/>
    <path class="cls-1" d="M94.488,63.106c-.223,1-.514,1.9-2.066,1.34Z"/>
    <path class="cls-1" d="M78.442,64.806v1.781l-.341.036q-.127-.879-.253-1.758Z"/>
    <path class="cls-1" d="M23.45,59.452v1.781l-.352.032q-.124-.89-.248-1.78Z"/>
    <path class="cls-1" d="M37.644,49.947c-.1.508.333,1.284-.671,1.341C37.074,50.779,36.64,50,37.644,49.947Z"/>
    <path class="cls-1" d="M49.613,48.219l.462-1.626a5.53,5.53,0,0,1,.29.94C50.379,47.629,50.126,47.762,49.613,48.219Z"/>
    <path class="cls-1" d="M39.656,46.593c-.1.509.333,1.285-.671,1.342C39.086,47.426,38.653,46.651,39.656,46.593Z"/>
    <path class="cls-1" d="M46.363,42.569c-.1.508.333,1.285-.671,1.341C45.793,43.4,45.36,42.626,46.363,42.569Z"/>
    <path class="cls-1" d="M89.306,66.565l-1.282.11c-.019-.145-.039-.289-.058-.433l1.31-.257C89.287,66.178,89.3,66.371,89.306,66.565Z"/>
    <path class="cls-1" d="M54.411,39.215c.1-.508-.332-1.284.672-1.341C54.981,38.382,55.415,39.159,54.411,39.215Z"/>
    <path class="cls-1" d="M81.251,60.16c-.075.356-.145.712-.233,1.064a.41.41,0,0,1-.21.016c-.1-.351-.176-.705-.259-1.06Z"/>
    <path class="cls-1" d="M54.411,45.922c-.1.509.333,1.285-.67,1.342C53.842,46.755,53.408,45.98,54.411,45.922Z"/>
    <path class="cls-1" d="M36.973,55.983l-.834.671-.507-.671Z"/>
    <path class="cls-1" d="M76.545,55.983c.1-.508-.333-1.284.671-1.341C77.115,55.15,77.548,55.926,76.545,55.983Z"/>
    <path class="cls-1" d="M36.3,52.63c.1-.509-.333-1.284.67-1.342C36.872,51.8,37.306,52.573,36.3,52.63Z"/>
    <path class="cls-1" d="M74.533,36.533q.335-.336.671-.671Q74.868,36.2,74.533,36.533Z"/>
    <path class="cls-1" d="M58.436,40.557l-.671.67Z"/>
    <path class="cls-1" d="M45.693,43.91l-.671.671Z"/>
    <path class="cls-1" d="M66.485,44.581l.67-.671Z"/>
    <path class="cls-1" d="M65.814,45.252l.671-.671Z"/>
    <path class="cls-1" d="M104.114,44.642c-.156.182-.312.366-.467.548l-.212-.211.548-.468Z"/>
    <path class="cls-1" d="M53.741,47.264l-.671.671Z"/>
    <path class="cls-1" d="M39.056,48c-.156.184-.312.366-.468.549l-.211-.212.548-.468Z"/>
    <path class="cls-1" d="M53.07,47.935q-.336.334-.67.67Q52.735,48.271,53.07,47.935Z"/>
    <path class="cls-1" d="M37.574,49.886c.156-.183.312-.365.467-.548.071.07.141.141.212.212l-.548.467Z"/>
    <path class="cls-1" d="M85.334,51.349c-.156.182-.311.366-.467.548l-.212-.211.548-.468Z"/>
    <path class="cls-1" d="M77.145,54.581l.468-.548.211.212-.548.467C77.233,54.668,77.189,54.625,77.145,54.581Z"/>
    <path class="cls-1" d="M92.041,62.751q-.233.274-.467.548l-.212-.211.548-.468C91.954,62.663,92,62.707,92.041,62.751Z"/>
    <path class="cls-1" d="M94.584,63.3l.467-.548.212.212-.548.468Z"/>
    <path class="cls-1" d="M130.728,59c.818-2.37,2.65-1.415,4.18-1.764l-.62-.971,1.47-.752,1.159.716c-.049,1.739-1.493,2.017-2.244,2.184C133.455,58.682,132.289,59.984,130.728,59Z"/>
    <path class="cls-1" d="M123.5,51.959c-1.028-.135-1.651.249-1.378,1.815l-2.14-1.489,1.389-.469V50.223c.388-.109.738-.339.97-.252a13,13,0,0,1,3.738,1.988h-1.909c-.073-.185-.147-.371-.221-.556Z"/>
    <path class="cls-1" d="M116.394,50.247l1.949-2.275c.307.829.5,1.352.774,2.1C118.848,50.659,118,50.888,116.394,50.247Z"/>
    <path class="cls-1" d="M133.222,52.683h1.552v1.552C134.321,53.782,133.759,53.218,133.222,52.683Z"/>
    <path class="cls-1" d="M128.976,54.032h1.109v1.891h-1.109Z"/>
    <path class="cls-1" d="M134.861,59.582l2.7-1.081C137.048,60.241,135.906,59.984,134.861,59.582Z"/>
    <path class="cls-1" d="M141.691,55.371h1.144v3.215C142.327,57.156,142.048,56.373,141.691,55.371Z"/>
    <path class="cls-1" d="M129.424,49.48c.821.039,2.134-.866,2.158,1.135Z"/>
    <path class="cls-1" d="M129.428,49.193h-1.887C128.654,48.57,128.654,48.57,129.428,49.193Z"/>
    <path class="cls-1" d="M112.092,49.947v-.671h1.342C113.377,50.28,112.6,49.846,112.092,49.947Z"/>
    <path class="cls-1" d="M137.076,54.642V53.3h.335v1.342Z"/>
    <path class="cls-1" d="M134.9,51.288h1.341l-.833.671Z"/>
    <path class="cls-1" d="M111.422,49.947h.67c-.149.185-.3.37-.449.556Q111.532,50.224,111.422,49.947Z"/>
    <path class="cls-1" d="M134.9,50.617v.671l-.556-.449Z"/>
    <path class="cls-1" d="M124.165,51.959l-.45.556c-.073-.186-.147-.37-.22-.556Z"/>
    <path class="cls-1" d="M134.966,60.068l-.467.549-.211-.212.548-.468C134.88,59.98,134.923,60.024,134.966,60.068Z"/>
    <path class="cls-1" d="M125.188,40.334c-.7.878-1.041,1.3-1.5,1.869l-1.75-1.461c.442-.552.83-1.433,1.223-1.435C123.773,39.3,124.39,39.894,125.188,40.334Z"/>
    <path class="cls-1" d="M117.52,41.9V40.557h3.9V41.9h-3.9Z"/>
    <path class="cls-1" d="M128.176,40.647c.105,1.752-.981,1.161-1.877,1.213-.038-.368-.076-.738-.126-1.213Z"/>
    <path class="cls-1" d="M59.107,94.213c-.242.789-.84,1.664-1.557,1.28-1.7-.914-3.227.464-4.988-.075v3.974l1.765.636-2.926.252c-.882-1.129.155-1.862.293-2.738a19.626,19.626,0,0,0,.035-3c-1.427-1.286-2.475-3.03-4.651-3.354-.692-.1-.821-.955-.715-1.668a28.82,28.82,0,0,1,3.743,2.132,32.563,32.563,0,0,1,3.151,3.122C55.2,93.659,57.213,94.46,59.107,94.213Z"/>
    <path class="cls-1" d="M84.356,90.914c-.47-.446-.791-.749-1.117-1.056.2-.122.383-.335.553-.323,1.4.094,2.794.227,4.19.357.159.015.349.162.467.113.849-.364,1.684-.762,2.524-1.15.7,1.068,1.8.66,2.73.634,1.351-.037,2.7-.271,4.186-.438-.041.6-.654,1.143-1.082,1.08-1.209-.178-2.154,1.5-3.3.52a2.532,2.532,0,0,0-2.159-.428c-.922.087-1.82.575-2.732.588-.8.011-1.589-.538-2.4-.574A5.633,5.633,0,0,0,84.356,90.914Z"/>
    <path class="cls-1" d="M82.544,90.434c-2.559,1.032-5.38,1.247-7.656,3.013-.736.57-2.558-.062-4.723-1.246,1.07,0,1.7-.015,2.333,0,1.832.051,3.541-.012,5.136-1.294C79.023,89.794,80.842,90.146,82.544,90.434Z"/>
    <path class="cls-1" d="M83.252,83.482c-1.093.254-1.542,1.954-3.022,1.342-.555-.229-1.115-.448-1.673-.671-.9-1.57-.9-1.57.671-2.683-.032,1.284-.1,2.59,2.005,2.72-.05-1-.092-1.864-.134-2.72H79.228V80.443a1.648,1.648,0,0,1,2.228.2A10.055,10.055,0,0,1,83.252,83.482Z"/>
    <path class="cls-1" d="M63.131,88.848l-2.683-1.342c.39-1.436.39-1.436,1.917-2.222l-.5-.978c1.593-.727,1.2,1.947,2.584,1.475V87.8Zm.527-1.462c.044-.157.087-.314.132-.472l-1.941-.892v1.364Z"/>
    <path class="cls-1" d="M73.191,74.763l2.078-2.513c.761,1.924,2.7,2.906,1.717,5.128h-3.8V76.1c1.2.816,2.357,1.209,2.86.364-.48-.86-.88-1.579-1.134-2.033Z"/>
    <path class="cls-1" d="M59.107,104.944c.245-1.227,1.254-.779,1.732-.527a9.483,9.483,0,0,1,1.9,1.815L59.778,108.3c-.964,0-2.016.182-2.559-.9-.251-.5-.286-1.06.546-1.108l.9,1.349c.861-.565,1.664-1.09,2.906-1.9Z"/>
    <path class="cls-1" d="M72.524,100.753c.038-.41.065-.711.1-1.056,1.536,1.179,2.647-.335,3.94-.508a44.31,44.31,0,0,0,4.5-1.118c-.751.755-1.012,1.245-1.269,1.242C77.338,99.29,75.417,101.614,72.524,100.753Z"/>
    <path class="cls-1" d="M94.65,85.931l-1.423.505c.206.517.409,1.025.643,1.615l-1.019.18c-.119-.655-.23-1.264-.392-2.154l-1.672.644c-.044-.239-.258-.668-.133-.823C91.9,84.364,92.823,84.378,94.65,85.931Z"/>
    <path class="cls-1" d="M71.85,88.123l-1.67.077c-.361-.747-.744-1.542-1.4-2.895,1.275,1.031,1.946.127,2.733.2a.463.463,0,0,1,.319.319C71.864,86.572,71.85,87.318,71.85,88.123Z"/>
    <path class="cls-1" d="M57.686,79.944l-1.693,1.564c-1.31-.165-1.08-.876.141-1.432.093-.042.157-.15.359-.352l-2.367-1.47L56.79,78.1C57.154,78.848,57.464,79.486,57.686,79.944Z"/>
    <path class="cls-1" d="M63.914,75.141l.83-1.616,1.665.839c.255,1.214-.013,2.138-1.517,2.463Z"/>
    <path class="cls-1" d="M59.056,93.7,64.9,92.056C63.252,93.724,61.122,93.787,59.056,93.7Z"/>
    <path class="cls-1" d="M41.668,86.165c.22,0,.524-.1.649.015,1.318,1.151,3.078,1.768,4.046,3.338A6.213,6.213,0,0,1,41.668,86.165Z"/>
    <path class="cls-1" d="M71.791,105.614v1.092c-1.125.755-2.69-.459-3.622.917-.523-.6-.679-1.116.321-1.334S70.5,105.877,71.791,105.614Z"/>
    <path class="cls-1" d="M80.569,76.716H77.912a6.547,6.547,0,0,1,.158-1.083,21.1,21.1,0,0,1,2.5.163A9.1,9.1,0,0,1,80.569,76.716Z"/>
    <path class="cls-1" d="M34.534,87.575c.837.495,1.674.988,2.911,1.718C35.644,89.619,34.779,89.124,34.534,87.575Z"/>
    <path class="cls-1" d="M69.777,91.5v1.226a12.084,12.084,0,0,0-1.637-.506,6.531,6.531,0,0,1-1.559-.232C67.591,91.319,68.66,91.622,69.777,91.5Z"/>
    <path class="cls-1" d="M75.064,97.132l1.16-1.84c.308.61.534,1.055.733,1.449C76.605,96.978,76.262,98.181,75.064,97.132Z"/>
    <path class="cls-1" d="M83.244,83.656,84.835,85.5A1.589,1.589,0,0,1,83.244,83.656Z"/>
    <path class="cls-1" d="M44.447,76.747c1.394.081,1.859.726,1.932,1.946C45.7,78.008,45.14,77.445,44.447,76.747Z"/>
    <path class="cls-1" d="M63.071,102v2.144c-.347.047-.82.225-.917.1C61.637,103.6,61.67,103.578,63.071,102Z"/>
    <path class="cls-1" d="M61.252,108.078c-.8,1.62-1.64,1.917-3.038,1.188Z"/>
    <path class="cls-1" d="M89.64,94.779c-.476.358-.73.662-1.04.738-.169.041-.432-.306-.653-.477a3.171,3.171,0,0,1,.7-.792C88.767,94.177,89.109,94.483,89.64,94.779Z"/>
    <path class="cls-1" d="M44.181,103.014h2.745a3.251,3.251,0,0,1-.171.517C45.935,103.412,44.909,104.083,44.181,103.014Z"/>
    <path class="cls-1" d="M51.164,105.3c-.359-.477-.663-.731-.739-1.04-.041-.17.306-.433.478-.654a3.248,3.248,0,0,1,.792.7C51.766,104.423,51.46,104.764,51.164,105.3Z"/>
    <path class="cls-1" d="M80.448,73.98H78c-.008-.138-.017-.276-.025-.415l2.465-.167C80.441,73.592,80.445,73.787,80.448,73.98Z"/>
    <path class="cls-1" d="M55.861,105.423c-.368-1.272.341-1.143,1.331-.718Z"/>
    <path class="cls-1" d="M43.01,101.591l1.341,1.341Q42.7,103.238,43.01,101.591Z"/>
    <path class="cls-1" d="M71.886,86.288c-.076-1.685-.039-2.489,1.258-1.946Z"/>
    <path class="cls-1" d="M48.375,84.153c.724.017,1.646-.193,1.213,1.225l-1.213-.555Z"/>
    <path class="cls-1" d="M52,77.529c1.084-.291,1.262.179.737,1.59Z"/>
    <path class="cls-1" d="M73.275,97.294c-.292-1.084.179-1.262,1.59-.738Z"/>
    <path class="cls-1" d="M57.765,106.286q-.3-1.646,1.342-1.342Z"/>
    <path class="cls-1" d="M41.35,100.807l1.66.472a5.53,5.53,0,0,1-.94.29C41.971,101.583,41.836,101.334,41.35,100.807Z"/>
    <path class="cls-1" d="M93.19,94.77H92.077l-.045-.331,1.132-.246Z"/>
    <path class="cls-1" d="M41.668,86.165c-.508-.1-1.284.333-1.341-.671C40.835,85.6,41.611,85.162,41.668,86.165Z"/>
    <path class="cls-1" d="M48.393,85.345l-1.282.11c-.019-.145-.039-.289-.059-.434l1.311-.256Z"/>
    <path class="cls-1" d="M46.716,83.369l1.659.472a5.475,5.475,0,0,1-.94.29C47.337,84.145,47.2,83.9,46.716,83.369Z"/>
    <path class="cls-1" d="M73.191,76.1l-.67-.834.67-.507Z"/>
    <path class="cls-1" d="M71.027,74.774c-.356-.074-.712-.145-1.064-.233a.41.41,0,0,1-.016-.21c.35-.1.7-.176,1.059-.259Z"/>
    <path class="cls-1" d="M55.906,108.287c.355.075.712.146,1.063.233.024.006.031.207.017.211-.351.094-.706.175-1.06.258C55.919,108.756,55.913,108.521,55.906,108.287Z"/>
    <path class="cls-1" d="M74.41,106.172H73.3c-.014-.11-.03-.221-.045-.331l1.132-.246C74.392,105.787,74.4,105.98,74.41,106.172Z"/>
    <path class="cls-1" d="M54.315,76.343l-.239.432c-.074-.074-.222-.165-.209-.22a2.132,2.132,0,0,1,.209-.451C54.151,76.179,54.225,76.254,54.315,76.343Z"/>
    <path class="cls-1" d="M57.826,80.058l.548.468c-.071.07-.141.141-.211.212l-.468-.549C57.739,80.146,57.782,80.1,57.826,80.058Z"/>
    <path class="cls-1" d="M78.125,80.225l.432.239c-.075.075-.165.222-.221.21a2.081,2.081,0,0,1-.45-.21C77.961,80.39,78.035,80.315,78.125,80.225Z"/>
    <path class="cls-1" d="M78.627,84.214l-.467.548c-.071-.071-.141-.142-.212-.212l.548-.467C78.54,84.126,78.584,84.17,78.627,84.214Z"/>
    <path class="cls-1" d="M59.874,85.062c.09-.089.164-.164.239-.239a2.188,2.188,0,0,1,.21.451c.012.055-.136.146-.21.22C60.032,85.349,59.952,85.2,59.874,85.062Z"/>
    <path class="cls-1" d="M60.448,87.506l-.67.671Z"/>
    <path class="cls-1" d="M59.847,88.238q-.233.275-.467.548l-.211-.212.547-.467Z"/>
    <path class="cls-1" d="M63.192,88.778l.547.467-.211.212c-.156-.183-.312-.365-.468-.549Z"/>
    <path class="cls-1" d="M51.394,101.591a2.148,2.148,0,0,1,.209.45c.013.055-.135.147-.209.221a2.045,2.045,0,0,1-.21-.451C51.172,101.756,51.319,101.666,51.394,101.591Z"/>
  </g>
</svg>
