<svg id="圖層_1" data-name="圖層 1" xmlns="http://www.w3.org/2000/svg" viewBox="0 0 166 166">
  <defs>
    <style>
      .cls-1 {
        fill: #fc86a0;
      }
    </style>
  </defs>
  <title>2018-07-29-YOLO-關於我們-精稿</title>
  <g>
    <path class="cls-1" d="M27.674,55.6H23.779c.014,3.143-.739,6.322.661,9.331A10.412,10.412,0,0,0,30.3,66.684c1.635,1.55,3.685,1.207,5.649,1.218a11.9,11.9,0,0,0,7.59-2.872c.374.311.781.652,1.209,1.007-.081.179-.107.4-.228.483q-1.876,1.233-3.784,2.419a1.51,1.51,0,0,1-.883.314c-1.81-.268-3.421.522-5.394.966,1.231.9,2.322,1.672,3.387,2.48.873.662,2.039,1.2,2.491,2.091.589,1.157,1.738,1.46,2.474,2.32a12.063,12.063,0,0,0,2.544,2.033,4.853,4.853,0,0,0,3,1.124c.927-.017,1.91.716,2.785.581,3.573-.556,7.248-.8,10.549-2.613.268.267.59.59,1.157,1.157l-5.674,2.7c.141.261.357.7.61,1.12a10.235,10.235,0,0,1,1.175,1.905,12.991,12.991,0,0,0,1.917,4.011A24.4,24.4,0,0,0,68.254,96c2.313,1.3,4.43,2.965,6.878,4.05a50.8,50.8,0,0,0,10.53,3.517c2.318.471,4.655.914,6.982,1.206a25.223,25.223,0,0,0,7.5-.02c2.892-.52,5.852-.963,8.548-2.442,1.931-1.06,4.236-1.425,5.952-2.945,2.207-1.956,4.872-3.275,7.067-5.284a24.321,24.321,0,0,0,4.931-6.543c2.369-4.447,5.059-8.828,5.82-14a18.533,18.533,0,0,1,1.635-4.1,4.583,4.583,0,0,0,.27-3.228c-.731-1.966-.942-4.16-2.321-5.879a5.356,5.356,0,0,1-.531-1.237h-1.489c-.412.677-.8,1.314-1.327,2.178-.192-.484-.426-.775-.365-.974.314-1,.7-1.984,1.14-3.167-.607-1.481-2.417-1.7-3.824-2.136-2.02-.632-4.2-.751-6.267-1.378a2.6,2.6,0,0,0-2.871.4,1.275,1.275,0,0,1-.926.2c-2.911-.259-5.681,1.186-8.607.7-4.636,1.408-9.386.431-14.078.665-3.849.193-7.412-1.183-11.01-2.292-1.109-.341-2.214-.7-3.3-1.119s-2.5-.627-3.106-1.429A32.236,32.236,0,0,0,72.981,48.5a26.871,26.871,0,0,0-2.423-2.409c-.736-.626-1.6-1.109-3.1-2.132,1.393.163,2.18.027,2.65.351,1.353.936,2.579,2.056,3.854,3.1s2.4,2.5,3.867,3.034a39.51,39.51,0,0,0,4.775,1.663c5,1.115,9.987,2.56,15.206,2.1,1.51-.134,3-.436,4.5-.672s3.157.577,4.511-.675c.061-.056.221,0,.335-.008,2.527-.227,5.05-.543,7.582-.658a41.11,41.11,0,0,1,7.51.05c2.491.348,5.094.856,7.066,2.679a2.232,2.232,0,0,0,3,.337c1.58-1.194,3.31-1.014,5.238-1.043,2.247-2.309,4.506-4.939,8.838-4.778-.47.673-.636,1.209-.96,1.331a14.346,14.346,0,0,0-6.38,4.046,4.463,4.463,0,0,1,1.463,4.54l-2.151,1.722A11.621,11.621,0,0,1,136.9,59.7c-.618-.78-.534-1.163.231-3-1.821-1.608-2.055-1.572-4.89.89.859.533.374,2,1.9,2.237.343.054.562,1.286.729,2,.559,2.393,1.96,4.573,1.686,7.188a4.384,4.384,0,0,1-.7,2.119c-1.334,2-1.637,4.412-1.949,6.676-.182,1.309-.606,2.534-.87,3.789-.6,2.876-.413,5.938-1.414,8.639-.9,2.442.1,5.053-1.2,7.368-.234.414.261,1.215.361,1.847.129.841.2,1.69.362,3.077l-2.791-1.8c-1.781.164-1.282,3.7-3.975,2.606-.607-1.93-1.261-3.948-3.917-4.691-1.571,4.182-2.069,8.718-3.431,13.323-1.817-1.8-3.673-.673-5.963.107.874-2.866-1.867-4.457-1.052-7.242a18.771,18.771,0,0,0-4.218.743c-4.151,1.813-8.495,1.265-12.789,1.287a16.113,16.113,0,0,1-3.137-.646c-.946-.191-1.863.075-2.894-.477-.946-.509-2.383-.109-3.759-.109-.467,3.878-4.066,6.183-5.03,9.912-1.544.113-1.544.113-3.111-1.235a4.333,4.333,0,0,1-1.3.768,1.734,1.734,0,0,1-2.221-1.753c-.053-1.024.077-2.06-.031-3.075-.16-1.508.588-3.136-.63-4.535a1.3,1.3,0,0,1,.087-1.269c1.117-1.087.248-2.343.644-3.5l-2.9-1.662a9,9,0,0,0-1.757,2.365c-.36,1.193-1.647,1.664-1.912,2.623-.33,1.188-1.408,1.172-1.987,1.861-.655.781-1.382,1.5-2.2,2.382l-2.23-1.668a6.306,6.306,0,0,1-.8.421c-1.883.689-2.909.02-2.678-1.882.17-1.39.982-2.686.655-4.165,1.316-1.462.417-3.236.683-4.846.193-1.167-.516-2.488.651-3.508.171-.149-.091-.722.054-.983.58-1.041-1.276-1.538-.485-2.728a5.813,5.813,0,0,0,.455-2.531,4.819,4.819,0,0,0-1.748-4.367,10.572,10.572,0,0,1-6.334.167,15.287,15.287,0,0,1-8.548-4.924A22.944,22.944,0,0,0,34.342,72c-.286-.158-.643-.4-.73-.67-.965-3.042-3.851-2.639-6.066-3.419-1.881-.663-4.147-.731-4.753-3.259a12.965,12.965,0,0,1-.482-1.5c-.175-1.625.142-3.23-.618-4.882-.627-1.362.492-2.674,1.338-3.826l5.335-.691.671,1.263c.481-.294.749-.372.761-.48.189-1.666,2.737-.626,2.9-2.84a6.934,6.934,0,0,1,2.85-5.486c-3.1-.433-5.8-1.331-7.531-3.774a4.259,4.259,0,0,1-.781-3.917c2.866,1.24,5.043-.642,7.405-1.78,1.847-.89,3.6-1.928,5.812-1.69A13.5,13.5,0,0,1,44.981,36.5c.659.326,1,1.29,1.617,2.142,1.666-.273,3.367-.668,5.087-.8a25,25,0,0,1,5.463.014c3.42.495,6.82,1.222,9.242,4.057a2.484,2.484,0,0,1,.352.875c.023.075-.078.188-.153.35-1.029-.691-2.059-1.364-3.069-2.066a14.329,14.329,0,0,0-4.727-1.745,14.848,14.848,0,0,0-7.108-.021c-2.095.532-4.285.422-6.31,1.228-1.859.741-3.794,1.3-5.622,2.107a3.973,3.973,0,0,0-1.683,1.665c-1.528,2.772-3.529,5.315-4.18,8.53-.1.482-.647.858-.912,1.327a2.043,2.043,0,0,0-.4,1.183c.326,1.63.761,3.238,1.16,4.87-.217.219-.46.46-.723.725a4.627,4.627,0,0,1-.46-.214,1.508,1.508,0,0,1-.678-1.76c.261-1.184-.531-2.072-.819-3.1-.052-.187-.692-.209-1.169-.335.379,2.211.712,4.145,1.055,6.142H29.114A9.542,9.542,0,0,0,27.674,55.6Zm34.965,48.64a36.585,36.585,0,0,0,2.583-3.046,30.532,30.532,0,0,0,1.643-3.062,29.407,29.407,0,0,0-3.394-3c-1.1-.706-1.582-1.935-2.591-2.614C59.8,91.79,59.581,90.149,58,89.69c.221.916.739,1.818.481,2.217-.948,1.46-.46,3.012-.627,4.514-.154,1.388.355,2.8-.616,4.177-.558.789.194,1.794,1.038,2.157C59.72,103.376,61.254,103.784,62.639,104.244Zm-33.36-63.38c1.351,2.455,3.879,3.081,6.623,3.515,3-3,3.011-2.97,7.607-4.552.6-.208,1.042-.905,1.587-1.4-2.594-2.154-5.029-2.508-7.642-1.3C34.7,38.4,31.943,39.646,29.279,40.864Zm49.353,69.622c1.208-2.063,2.166-3.7,3.15-5.386l-8.734-3.5v7.886Zm51.5-24.327A47.463,47.463,0,0,1,122.148,97c1.279.923,1.811,1.31,2.4.959,1.32-.784,3.189-.041,4.144-1.442.41-.6,1.439-1.417.326-2.39-.091-.08.2-.563.271-.869C129.809,91.065,130.818,88.943,130.136,86.159Zm-12.249,14.526a13.112,13.112,0,0,0-2.6.767,11.25,11.25,0,0,0-3.12,2.218c-.443.506-.2,1.617-.262,2.465h4.574C116.938,104.355,117.379,102.648,117.887,100.685Zm20.121-40.853c1.2-.868,1.568-1.672,1-2.8h-1Z"/>
    <path class="cls-1" d="M146.139,101.821c-.194-2.171-.162-4.232,1.6-5.848a1.6,1.6,0,0,0,.384-1.182c-.19-2.089.849-3.565,2.362-4.932h3.01c.37.629.748,1.272,1.174,2a4.458,4.458,0,0,0,.844-.207,23.327,23.327,0,0,1,4.03-1.775c.811-.188,1.813.443,2.728.7.235,2.151,2.838,1.936,3.646,4.071a6.057,6.057,0,0,1-1.3,5.047c1.23,1.475.347,3.23.674,4.762l-2.5,2.5-3.362-.579c-.759,2.232-2.831,3.165-5.132,3.179-2.028.012-3.642-2.279-4.169-5.18C148.2,104.449,147.316,102.874,146.139,101.821Zm4.445.317c.8,1.869,1.583,3.7,2.385,5.576,1.565-.409,3.055.477,4.135-.623a7.075,7.075,0,0,0,.989-2.25,7.324,7.324,0,0,1,1.386.02,11.461,11.461,0,0,1,1.154.49c1.221.392,2.144.209,2.5-.884.374-1.147,1.415-2.327.458-3.668a1.857,1.857,0,0,1,.1-2.366c.641-1.049,1.366-2.271.705-3.681-1.3-1.165-2.616-2.346-4.062-3.641-1.843.63-4.161.688-4.931,3.321-.121.415-.948.622-1.79,1.132a30.2,30.2,0,0,0-.02-3.086,1.9,1.9,0,0,0-2.333-1.317c-1.723.8-2.1,2.34-1.078,4.44-1.233,1.353-2.983,2.463-2.682,4.637a6.2,6.2,0,0,0,1.071,1.9Z"/>
    <path class="cls-1" d="M15.647,88.61c-1.4.983-2.834,1.722-4.875.561C8.614,87.944,8.594,86.136,8.621,84c-.7-.585-1.472-1.236-2.059-1.731v-3.3l1.412-1.116c-.73-2.352.933-4.617,2.754-3.638,1.573.844,2.658.034,3.571-.282,2.056-.712,3.781-1.154,5.42.634a4.17,4.17,0,0,1,3.355,2.08,6.513,6.513,0,0,1-.424,2.118,2.2,2.2,0,0,0-.074,2.132c.9,2.513.653,3.077-1.369,4.169a18.337,18.337,0,0,1-1.043,3.662c-.238.473-1.329.744-2.012.706A9.955,9.955,0,0,1,15.647,88.61Zm-5.005-5.387C9.5,84.265,10.156,85.58,9.975,86.7c.6.6,1.157,1.162,1.719,1.722a5.321,5.321,0,0,0,2.017-.053,6.62,6.62,0,0,0,1.6-1.451,6.687,6.687,0,0,1,.791.447c2.074,1.7,3.1,1.41,3.413-1.1a2.743,2.743,0,0,1,.822-1.72c.593-.616,1.306-1.073,1.333-2.186.032-1.243-.787-1.761-1.42-2.5a6.9,6.9,0,0,0,.715-.726c.983-1.324.973-2.48-.431-2.931-1.322-.426-1.724-1.709-2.459-1.993-2.986-.683-4.333,1.357-6.131,2.936-.425-.738-.711-1.236-.989-1.72A1.911,1.911,0,0,0,8.6,76.8c.261.535.537,1.1.756,1.545L6.783,80.305Z"/>
    <path class="cls-1" d="M55.466,62.434l-1.6-1.6a4.808,4.808,0,0,0,.545-1.479c.012-1.674.95-3.035,1.4-4.558s.736-3.064,1.966-4.338c1.284-1.327,3.481-3.058,5.186-3.026a10.262,10.262,0,0,1,4.228.476c1.422.6,1.36,1.9,2.3,2.554.033,2.762.091,5.446-2.145,7.67-3.827,3.809-4.707,4.3-9.793,4.3Zm-.3-2.366c1.337,1.7,3.159.79,4.746.973.849.1,3.7-1.36,4.545-2.122,2.846-2.564,4.561-6.772,3.509-8.611q-.722-.721-1.442-1.442c-3.723-.158-3.763-.225-5.1.59-1.673,1.022-3.47,2.008-3.563,4.351C56.1,55.541,56.9,58.356,55.162,60.068Z"/>
    <path class="cls-1" d="M44.564,125.323c-.785-2.726-1.425-5.434-2.066-8.141a11.081,11.081,0,0,1-.355-1.555c-.084-1,.278-2.289-.219-2.954-.547-.733.771-1.666-.465-2,.256-.576.511-1.151.831-1.87a5.942,5.942,0,0,1,1.835,4.453c.164,2.4.979,4.666,1.26,6.967.4,3.23,1.532,6.5.659,9.847-.106-.036-2.525-2.033-2.547-2.082-1.141-2.486-2.267-4.978-3.429-7.454a23.946,23.946,0,0,1-1.193-2.234,7.172,7.172,0,0,1-.036-2.042c2.346.833,1.337,3.563,3.073,4.442a7.7,7.7,0,0,0,2.652,4.626,1.716,1.716,0,0,1-.443.05c.087.445.173.891.261,1.337q.221-.032.441-.06A4.321,4.321,0,0,0,44.564,125.323Z"/>
    <path class="cls-1" d="M146.255,112.06a26.855,26.855,0,0,1-1.524,2.667c-1.966,2.717-4.078,5.334-5.968,8.1a38.294,38.294,0,0,0-2.252,4.509c-.239.477-.556.917-1.017,1.668l-1.1-1.543c2.137-3.881,3.753-8.211,7.074-11.571a20.292,20.292,0,0,0,1.971-3.249A1.858,1.858,0,0,1,146.255,112.06Z"/>
    <path class="cls-1" d="M136.518,106.644c0,3.532.074,6.595-.039,9.653a13.726,13.726,0,0,1-.842,3.4c-.046.146-.571.143-.981.232-.3-1.661-.7-3.236-.844-4.833a31.8,31.8,0,0,1-.01-4.782A3.643,3.643,0,0,1,136.518,106.644Z"/>
    <path class="cls-1" d="M46.847,127.839c.253-3.576.448-7.123.809-10.652.059-.572.857-1.068,1.592-1.922a13.382,13.382,0,0,1,.392,4.71,38.934,38.934,0,0,1-.022,4.783,39.7,39.7,0,0,1-.875,4.323Z"/>
    <path class="cls-1" d="M140.931,130.988l-1.494-.569,10.49-9.731.677.626Z"/>
    <path class="cls-1" d="M51.3,129.381h-1.6c.228-1.1.421-2.109.646-3.108a21.526,21.526,0,0,1,.7-2.754c.361-.977.885-1.894,1.645-3.472.323.913.5,1.411.8,2.27C52.944,124.076,52.168,126.577,51.3,129.381Z"/>
    <path class="cls-1" d="M46.593,51.51l1.777,1.776c-.323.7-.667,1.452-1.013,2.207-1.807.6-2.9-.406-3.983-1.883C44.163,52.519,44.774,51.188,46.593,51.51Z"/>
    <path class="cls-1" d="M38.344,120.44l4.148,9.348c-1.033-.452-1.685-.522-1.858-.846a57.068,57.068,0,0,1-3.27-7.523c-.083-.23.161-.579.253-.872Z"/>
    <path class="cls-1" d="M15.835,89.873c1.441,2.488,3.385,4.835,2.953,8.266C17.555,96.729,15.665,91.725,15.835,89.873Z"/>
    <path class="cls-1" d="M27.523,61.689h-2.37V57.72h1.662C27.347,58.973,28.281,60.144,27.523,61.689Z"/>
    <path class="cls-1" d="M4.064,85.764a19.652,19.652,0,0,1,2.805,8.091,16.119,16.119,0,0,1-1.607-2.333c-.393-.842-.25-2.051-.812-2.672C3.506,87.807,4.007,86.828,4.064,85.764Z"/>
    <path class="cls-1" d="M.02,85.05c1.987.93,2.154,1.228,3.017,5.637a6.469,6.469,0,0,1-1.686-1.021A7.687,7.687,0,0,1,.02,85.05Z"/>
    <path class="cls-1" d="M35.629,60.382a5.82,5.82,0,0,1-.865-4.856c.443.206.985.285,1.17.585.258.418.106,1.1.383,1.493C37.209,58.858,36.495,59.617,35.629,60.382Z"/>
    <path class="cls-1" d="M142.181,121.829c.7-1.9.7-1.9,2.62-1.576C144.512,121.753,143.11,121.389,142.181,121.829Z"/>
    <path class="cls-1" d="M8.666,92.121l-1.344-1.2,1.115-2.176C8.523,90.019,8.58,90.859,8.666,92.121Z"/>
    <path class="cls-1" d="M158.29,99.825q-.667.669-1.674,1.674l-2.256-1.022V98.133l2.271-1.345,1.659.725Zm-1.253-.627v-.342h-1.368V99.2Z"/>
    <path class="cls-1" d="M14.494,79.6a2.689,2.689,0,0,1,1.733,1.251l-1.366,1.763c-.638-.6-1.088-1.016-1.7-1.588A12.637,12.637,0,0,1,14.494,79.6a4.794,4.794,0,0,1-.48.679l.476.559c.072-.072.144-.145.216-.216C14.52,80.464,14.334,80.305,14.494,79.6Z"/>
    <path class="cls-1" d="M14.256,84.322V82.954H14.6v1.368Z"/>
    <path class="cls-1" d="M18.2,81.057c-.076.363-.147.726-.237,1.085-.006.024-.212.031-.215.016-.1-.357-.179-.719-.263-1.079Z"/>
    <path class="cls-1" d="M12.592,80.1H11.458c-.016-.113-.032-.225-.047-.338l1.143-.249Z"/>
    <path class="cls-1" d="M16.822,78.679H15.453v-.342h1.369Z"/>
    <path class="cls-1" d="M13.914,77.482V78.85h-.342V77.482Z"/>
    <path class="cls-1" d="M16.722,83.4l-.242.243a2.036,2.036,0,0,1-.214-.46c-.014-.055.137-.148.214-.224Z"/>
    <path class="cls-1" d="M12.474,81.684c.091.092.167.168.243.243a2.063,2.063,0,0,1-.458.214c-.058.013-.15-.138-.226-.214C12.182,81.846,12.331,81.763,12.474,81.684Z"/>
    <path class="cls-1" d="M17.847,79.534a2.141,2.141,0,0,1,.214.459c.012.056-.138.149-.214.225a2.191,2.191,0,0,1-.214-.459C17.621,79.7,17.772,79.61,17.847,79.534Z"/>
  </g>
</svg>
