<svg id="圖層_1" data-name="圖層 1" xmlns="http://www.w3.org/2000/svg" viewBox="0 0 166 166">
  <defs>
    <style>
      .cls-1 {
        fill: #5eb300;
      }
    </style>
  </defs>
  <title>2018-07-29-YOLO-關於我們-精稿</title>
  <g>
    <path class="cls-1" d="M32.261,83.979a18.148,18.148,0,0,1,5.733-5.333,35.328,35.328,0,0,1-4.093-2.3,2.823,2.823,0,0,0-2.374-.423c-3.264.629-5.819-1.178-8.533-2.382-.53-.235-.8-1.041-1.483-1.978,3.137.02,5.469-1.156,7.825-2.286a5.784,5.784,0,0,0,2.7-2.259c1.375-2.24,2.548-2.826,5.322-3.647a10.556,10.556,0,0,0,1.526-.723c-.175.491-.208,1.193-.555,1.425a19.248,19.248,0,0,1-2.149.8c-1.555.768-3.055,1.632-3.179,3.662-2.39,1.909-5.285,2.843-8.118,3.987a6.614,6.614,0,0,0,5.712,2.592c2.681-.128,2.675-.254,4.492,1.022.835.587.905.569,3.227.52.343-.007.7.409.9.541,1.742-1.231,3.4-2.321,4.962-3.532,1.044-.809,1.926-1.826,2.938-2.68.982-.829,2.343-1.381,2.972-2.4.581-.942,1.5-1.445,2.079-2.35a37.867,37.867,0,0,1,2.61-2.977c.256-.319.2-.886.246-1.374.01.015.058.063.106.111l.6-.513-.232-.232a4.227,4.227,0,0,0-.475.634c-.971-.228-1.576.394-2.091,1.083A20.115,20.115,0,0,1,51.842,64.7c-.186.2-.768.033-1.413.033a1.749,1.749,0,0,0,.625-1.3c-3.346,1.6-3.689,2.022-4.821,5.886-.326,1.114-.856.963-1.549.153.458-.989.928-2.006,1.4-3.022q-.246-.2-.491-.409L38.781,70.75c-2.119-1.036-3.877,2.732-6.522,1.1,1.183-1.291,3.435-.541,4.585-2.762l-3.847.9V68.535c1.222,0,2.448-.045,3.668.011a7.13,7.13,0,0,0,4.086-.766c1.492-.889,3.448-1.274,4.221-3.59-2.087,1.047-3.745.844-5.661-.957,2.919.472,5.444-.526,7.828.92l4.67-2.672c-2.368-.625-4.375.074-6.189-.779a48.075,48.075,0,0,1,6.9-.242c3.111.1,5.779-.687,7.822-3.692-1.755,0-3.314-.069-4.865.019A5.159,5.159,0,0,1,51.1,55.111l9.8,1.009c1.252-.846,2.095-1.417,2.928-1.981-1.211-.57-1.248-.632-1.062-1.765,2.233-.119,4.464.176,6.677-.7A58.561,58.561,0,0,1,76.072,49.9c-1.479-.5-2.651-1.319-3.579-1.1-1.137.268-2.067-1.472-3.088-.121-.895-1.282-2.236-.706-3.361-.683s-2.242.638-3.366.649c-3.086.028-5.272,1.66-7.309,3.748-3.48-.393-6.249.575-7.79,4.065-.223.5-1.1.781-1.729,1.037-2.333.952-4.837,1.625-5.859,4.371-.131.352-.729.531-1.111.79A6.844,6.844,0,0,1,44.2,56.859a3.352,3.352,0,0,0,2.278-1.514c1.806-3.8,4.994-4.658,8.923-4.448.562-.585,1.193-1.241,1.952-2.033-3.763-.855-6.011-4-9.314-5.371-1.654-2.627-3.9-5.018-3.3-8.131-1.723-2.1-3.369-3.852-4.7-5.813-1.286-1.9-.919-4.35-1.713-6.525l1.213-.055c-.047,4.584,2.479,7.732,5.725,10.3.851,4.255,1.56,8.253,5.9,10.584,1.982,1.064,3.578,2.8,5.85,3.638a5.172,5.172,0,0,0,3.087.381c2.66-.779,5.376-.609,8.761-.68-1.089-.745-1.594-1.388-2.12-1.405-3.871-.125-7.317-1.911-11.015-2.682-.9-.188-1.817-.327-2.895-.517.073-.448.143-.866.2-1.23l12.842,3.615a19.973,19.973,0,0,0-8.932-5.138c-2.055-.613-4.053-1.426-6.058-2.2A2.953,2.953,0,0,1,49.277,36.2c1.682.482,3.365.963,5.939,1.87.391-.138.245-.416.139-.4a6.082,6.082,0,0,0-1.03.318c.443.126.886.253.891.083-1.61-1.16-2.2-2.208-3.073-2.567a13.913,13.913,0,0,1-4.589-3.538c1.545-.394,2.508.413,3.421,1.239,3.586,3.248,7.938,5.352,12.175,8.312V39.852a15.925,15.925,0,0,1,2.175,2.186,7.851,7.851,0,0,0,3.5,3.207c.126-1.127.228-2.035.342-3.051h1.446c-.364,1.015-.66,1.846-.9,2.522.125.414.128.689.266.839A6.561,6.561,0,0,0,74.466,48a12.655,12.655,0,0,1,3.3,1.239c.025-.4.309-1.141.055-1.509-2.088-3.027-3.374-6.583-6.066-9.211a14.782,14.782,0,0,0-10.926-4.545,12.085,12.085,0,0,1-8.892-3.368,27.1,27.1,0,0,0-5.6-4.059,11.73,11.73,0,0,1-4.517-3.613,7.453,7.453,0,0,1,4.6,2.139c2.523,2.149,5.474,3.689,7.849,6.095a8.172,8.172,0,0,0,6.447,2.048,15.364,15.364,0,0,1,7.842,1.5c3.126,1.465,5.146,4.171,6.963,6.924,1.611,2.441,2.811,5.15,4.222,7.794,2.181-2.614,5.111-4.5,6.754-7.554.112-.207.359-.336.51-.527a1.714,1.714,0,0,1,2.508-.493c1.029.654,1.128,1.274.363,2.755-.629,1.218-1.363,2.381-2.069,3.557-.769,1.277-1.635,2.5-2.309,3.827-.392.768-1.083,1.877.654,2.088,1.745,2.84,4.749,4.777,5.735,8.2a8.781,8.781,0,0,1,.693,2.655c-.052,3.309.4,6.687-.126,9.912-.645,3.963-.181,7.947-.735,11.832A87.959,87.959,0,0,1,89.308,97.9c-1.113,3.816-2.012,7.7-3.867,11.271-.593,1.143-.293,2.726-1.7,3.491a9.776,9.776,0,0,1,.3-2.814,60.055,60.055,0,0,0,2.909-7.991,76.145,76.145,0,0,1,2.088-7.572c1-2.64-.294-5.492,1.324-7.892-.569-4.472,1.021-8.822.759-13.284-.054-.906-.41-1.979.638-2.662-.2-2.219.275-4.373-.462-6.709a21.492,21.492,0,0,0-3.213-6.373c-3.016-4.063-6.849-6.85-12.462-5.473l1.5,1.2a13.219,13.219,0,0,0-3.719-.657,16.358,16.358,0,0,0-3.8,1.387c-.106.04-.243-.007-.364.007a9.171,9.171,0,0,0-4.187,1.395c-1.336.89-3,1.487-3.971,2.665-.942,1.143-2.3,1.8-3.073,3.028A41.819,41.819,0,0,1,46.385,73.225a12.494,12.494,0,0,0-2.318,2.7,1.378,1.378,0,0,0-.1-.109l-.6.511.232.233a4.179,4.179,0,0,0,.474-.635,4.443,4.443,0,0,0,3.282-1.579,51.654,51.654,0,0,1,6.24-5.073,4.866,4.866,0,0,1-.542,1.6c-2.265,2.733-7.539,6.072-11.995,8.292-.418.209-1.147-.209-1.759-.343-1.968,1.712-3.934,3.451-5.949,5.132C33.127,84.136,32.629,83.979,32.261,83.979ZM88.526,42.055c-2.121,2.121-4.264,4.22-6.34,6.384A3.243,3.243,0,0,0,81.565,50c-.056.275.186.611.274.863h1.568C84.805,47.742,88.029,45.754,88.526,42.055Z"/>
    <path class="cls-1" d="M134.489,111.191c2.7,1.691,4.125,4.285,5.176,7.185a14.837,14.837,0,0,0,1.439,2.34,26.765,26.765,0,0,1,2.567,7.378,50.992,50.992,0,0,1,1.839,10.614,11.725,11.725,0,0,1-1.828,4.868c-3.006-.251-6.08-.447-9.134-.814-.553-.067-1.464-.837-1.458-1.271.041-2.882-1.659-4.968-3.112-7.5l2.271-3.631v-3.531c-1.331-1-2.815-2.11-4.643-3.482-.3,1.245-1.314,1.918-1.207,3.178a5.676,5.676,0,0,1-1.434,4.192,18.266,18.266,0,0,0-2.216,3.841,20.691,20.691,0,0,1-2.187,3.512A21.555,21.555,0,0,1,113.231,145c-4.9-1.291-7.218-5.556-10.751-8.787a15.418,15.418,0,0,0,5.369-5.272c.759-1.252,1.519-2.728,3.475-2.932a4.086,4.086,0,0,0,2.5-1.77,9.406,9.406,0,0,0,1.46-3.762c.113-.776-.6-1.673-.978-2.607a8.969,8.969,0,0,0-3.86,2.477,5.42,5.42,0,0,1-3.9,2.082c.086-.21.113-.521.268-.612,2.535-1.481,4.373-3.737,6.446-5.732a13.574,13.574,0,0,0,4.32-10.342,45.8,45.8,0,0,1,.023-4.775c.309-3.253-.574-6.3-1.548-9.3a10.139,10.139,0,0,0-3.015-4.963c.581,2.883,2.026,4.909,1.6,7.3,1.419,1.074.141,2.856.995,3.988.951,1.26.324,2.581.444,3.859a38.574,38.574,0,0,1,.02,4.408,5.874,5.874,0,0,1-.262,1.358c-1.522,5.645-5.595,9.461-9.65,13.252-.595.556-1.706.561-9.983,1.887-6.571,1.388-5.926,1.866-5.314,1.826,1.254-.082,2.509-.709,3.727-.62a12.133,12.133,0,0,0,4.457-.835,16.224,16.224,0,0,0,4.5-1.85,32.153,32.153,0,0,0,9.173-9.645c1.86-2.952,1.936-6.1,2.565-9.216.159-.794-.532-1.726-.656-2.619-.306-2.212-.315-4.483-.811-6.647a52.165,52.165,0,0,0-2.146-6.047l-7.62,5.586a7.255,7.255,0,0,1,.971,1.633c.4,1.587-.7,3.39.68,4.855a16.61,16.61,0,0,0-.71,4.794,6.254,6.254,0,0,1-.958,2.876c-1.678,2.816-4.182,4.927-6.469,7.215-.208.209-.657.159-.976.277-2.7,1-5.39,1.88-5.661,5.559-.092,1.23-1.27,2.379,5.245,2.858,6.948-.576,6.583.1,6.021.373a26.709,26.709,0,0,1-8.937,2.214c-1.418.142-2.861.024-4.292.024,1.675,1.193,3.3,2.242,5.276.92a2.3,2.3,0,0,1,1.377-.171c2.3.219,4.259-.82,6.265-1.65,1.559-.644,2.8-2.025,4.636-2.041-.346.469-.594,1.11-1.058,1.374a38.091,38.091,0,0,1-4.272,2.09,16.654,16.654,0,0,1-4.5,1.508c-2.512.25-5.066.067-7.561.067-1.9-1.817-2.209-3.575-.638-5.882,1.186-1.743,1.73-3.919,2.59-5.889a2.211,2.211,0,0,1,1.849-1.4c5.558-.967,8.636-4.918,10.344-9.761.91-2.578,2.111-5.525.36-8.492-.544-.921.421-2.415-.981-3.546l8.789-6.834h1.7c3.263,1.618,3.592,4.7,4.345,7.479a3.526,3.526,0,0,0,1.518,2.125c2.939,2.259,6.325,3.786,9.29,5.971.273.2.2.875.284,1.329-1.006.26-1.553-.405-2.143-1.032a8.224,8.224,0,0,0-4.334-2.457c1.161,1.288,2.605,2.22,3.777,3.417,1.917,1.961,3.517,4.245,5.511,6.114a28.246,28.246,0,0,1,5.187,7.058c3.724,6.7,6.189,13.873,5.986,21.721-.022.881.1,1.767.218,3.524.668-1.438,1.16-2.043,1.2-2.678a37.059,37.059,0,0,0,.014-5.13c-.132-1.863-.446-3.715-.729-5.564-.047-.312-.45-.567-.507-.881-.762-4.225-3.089-7.776-4.941-11.527-.821-1.664-1.532-3.4-3.074-4.619C134.5,112.3,134.574,111.644,134.489,111.191Zm-19.758,7.047c.407.432.894.948,1.372,1.453,0,1-.076,1.984.015,2.955a5.648,5.648,0,0,1-2.138,4.99c-.952.832-1.538,2.218-3.238,2.007-.394-.049-.976.658-1.323,1.128-1.511,2.046-2.967,4.133-4.216,5.885l6.135,6.143c2.033-2.033,4.374-4.161,6.448-6.523a16.605,16.605,0,0,0,3.369-5.188c.862-2.479,1.931-4.972,1.624-7.809a61.643,61.643,0,0,1-.049-7.7c.08-4.471-1.756-8.406-3.442-12.471C119.17,108.594,118.77,113.94,114.731,118.238Zm26.332,24.09c.079-5.326.368-10.073-1.4-14.66-1.52-3.936-2.829-7.9-5.443-11.366-1.613-2.14-3.077-4.4-4.868-6.413-.782-.88-1.439-1.872-2.234-2.739a33.73,33.73,0,0,0-3.153-3.035c1.318,6.438,3.878,11.861,3.1,17.839,1,.629,1.85,1.227,2.757,1.732,3.041,1.694,4.519,3.863,3.875,6.437a16.437,16.437,0,0,1-1.965,3.718c.858,2.556,1.685,5.02,2.5,7.459ZM118.292,98.783c.8,1.378,1.461,2.637,2.232,3.828,2.668,4.118,2.819,8.927,3.593,13.524a32.562,32.562,0,0,1,.03,7.682,19.849,19.849,0,0,1-1.129,5.75,23.194,23.194,0,0,1-5.883,8.935c-1.643,1.487-3.152,3.123-4.721,4.692.712.281,1.215.237,1.475-.038,3.242-3.422,7.231-6.253,8.833-10.994,3.546-3.578,2.375-8.452,3.493-12.7-1.312-1.57-.08-3.488-.73-5.2a37.527,37.527,0,0,1-1.363-4.948A29.444,29.444,0,0,0,119.479,98.8C119.367,98.647,118.846,98.783,118.292,98.783Z"/>
    <path class="cls-1" d="M83.743,112.662c.478,1.939-.778,3.475-1.646,4.8a74.9,74.9,0,0,1-6.039,8.578c-.748.857-1.7,1.356-2.4,2.194a17.864,17.864,0,0,1-2.336,2.331,13.239,13.239,0,0,1-2.869,1.921c-2.479,1.1-4.747,2.725-7.453,3.268-3.753.754-7.405,1.926-11.4.651-1.8-.573-3.92-.522-5.855-.967a24.18,24.18,0,0,1-5.226-1.543,14.81,14.81,0,0,1-4.809-3.367c-2.634-3.1-4.923-6.493-7.314-9.794a19.641,19.641,0,0,0-1.6-2.618c-1.756-1.731-1.2-4.149-1.955-6.178-.536-1.44-.83-3.065-1.355-4.583a10.448,10.448,0,0,1-.249-2.1c-.1-.8.316-1.692-.529-2.367a1.228,1.228,0,0,1-.183-1c.129-.665.45-1.3.553-1.963.128-.825.049-1.683.182-2.5a12.4,12.4,0,0,1,.613-1.944,15.742,15.742,0,0,1,5.126-7.371c1.308-1.1,2.4-2.447,3.675-3.587a4.5,4.5,0,0,1,1.6-.545c-1.469,1.591-2.9,3.224-4.418,4.763a38.708,38.708,0,0,0-3.767,5.018c-1.213,1.7-1.439,3.65-1.969,5.43a12.146,12.146,0,0,0,0,6.508,27.513,27.513,0,0,0,6.893,12.166c2.581,2.563,5.689,4.273,8.844,6.056A20.582,20.582,0,0,0,51.021,126.5a15.149,15.149,0,0,0,6.353-2.348c1.053-.7,1.872-2.3,3.57-1.931a13.152,13.152,0,0,1-10.1,5.159c-.914.038-1.889-.333-2.717.573a1.647,1.647,0,0,1-1.626-.043c-.728-.814-1.582-.557-2.367-.515a10.213,10.213,0,0,1-4.619-1.253,34.648,34.648,0,0,1-11.449-7.725,21.8,21.8,0,0,0-2.459-2.042,1.452,1.452,0,0,0,.11-.1l-.513-.6c-.076.078-.154.155-.231.232a4.106,4.106,0,0,0,.634.474,5.413,5.413,0,0,0,1.592,3.347,49.135,49.135,0,0,1,4.266,5.214c1.477,2.445,3.786,4.018,5.605,6.086.161.181.706.024,1.073.024.063,1.1.913.624,1.471.735.191.246.331.617.58.717a38.7,38.7,0,0,0,12.252,2.885c2.79.154,5.62-.415,8.432-.659.121-.01.281.05.358-.009,2.4-1.819,5.56-2.3,7.8-4.4.557-.111,1.408.364,1.471-.736l.735-.735.61-.243-.61-.493,7-8.793.8.723a13.565,13.565,0,0,0,1.02-1.438A35.238,35.238,0,0,1,83.743,112.662Zm-5.516,8.09c-.082.081-.243.181-.23.242a2.288,2.288,0,0,0,.23.493c.082-.082.243-.181.23-.242A2.245,2.245,0,0,0,78.227,120.752Z"/>
    <path class="cls-1" d="M129.341,105.307c1.638,1.516,3.3,3.006,4.89,4.575.261.258.18.863.258,1.309-1.639-1.516-3.3-3.006-4.89-4.575C129.337,106.358,129.418,105.752,129.341,105.307Z"/>
    <path class="cls-1" d="M42.276,23.483l-4.4-2.234C40.011,20.758,40.011,20.758,42.276,23.483Z"/>
    <path class="cls-1" d="M63.042,40.171C62.232,39.113,61,38.6,61.114,37.1,61.949,37.905,63.491,38.188,63.042,40.171Z"/>
    <path class="cls-1" d="M128.6,104.572l.736.735Z"/>
    <path class="cls-1" d="M47.214,109.643l3.151-.746.4.564-1.626.571.413.3H44.668l.934-1.165c-.738-.322-1.433-.9-2.1-.87-2.61.121-3.509-1.949-4.55-3.591-.633-1-.587-2.44-.8-3.691-.207-1.209-.844-2.657-.409-3.588.582-1.244.214-2.361.4-3.511.524-3.294,1.373-6.391,4.926-7.723a13.7,13.7,0,0,1,10.585.436,27.314,27.314,0,0,0,3.042,1.512c2.882.824,3.132,3.5,4.015,5.645a3.664,3.664,0,0,1-.55,2.869c-1.325,2.015-1.794,4.5-3.708,6.2-2.117,1.878-3.845,4.227-6.681,5.169-.961.32-1.912.664-2.868,1C47.006,109.23,47.11,109.437,47.214,109.643ZM55.8,89.127c-2.155-2.462-5.47-1.71-8.119-2.854-.75-.325-2.008.277-2.941.672-2.53,1.072-4.478,2.454-5.346,5.514-.624,2.2-.291,4.253-.48,6.358a7.916,7.916,0,0,0,3.142,7.108,6.158,6.158,0,0,0,6.489,1.171,15.425,15.425,0,0,0,8.019-6.389c1.014-1.557,2.462-2.859,2.177-4.96.246-.307.655-.587.709-.923.319-1.979-1.229-3.3-1.8-4.961H56.531Z"/>
    <path class="cls-1" d="M68.79,114c1.033-1.764,1.94-3.62,3.13-5.271,1.481-2.05,3.94-8.683,4.467-10.647.82-3.051.732-6.265,1.539-9.29.494-1.845.618-3.821,1.715-5.53,1.472-2.292,2.061-5.049,4.08-7.8a10.346,10.346,0,0,1-.341,2.594c-1.538,3.285-3.39,6.4-4.248,10.019a14.589,14.589,0,0,0-.524,2.693c-.054,1.222.35,2.6-.084,3.643-1.137,2.735-1.556,5.666-2.759,8.411a86.257,86.257,0,0,1-4.426,8.832A6.1,6.1,0,0,1,68.79,114Z"/>
    <path class="cls-1" d="M84.429,60.453c2.757,5.019,2.465,9.916-.393,14.836-.884-1.858.734-3.114.87-4.624a40.616,40.616,0,0,0,.267-5.383A41.919,41.919,0,0,0,84.429,60.453Z"/>
    <path class="cls-1" d="M26.948,110.967a11.759,11.759,0,0,1-3.088-9.957,6.2,6.2,0,0,0,.318.845c.218.4.719.789.692,1.151C24.644,105.905,26.148,108.283,26.948,110.967Z"/>
    <path class="cls-1" d="M72.245,103.926c1.088-3.308,2.1-6.374,3.012-9.153.626,1.939.571,2.211-.325,4.317-.571,1.342-.944,2.769-1.522,4.107C73.265,103.533,72.671,103.673,72.245,103.926Z"/>
    <path class="cls-1" d="M62.415,120.752q3.309-3.31,6.619-6.619c0,.238.1.577-.016.7q-2.919,2.985-5.9,5.9C62.993,120.855,62.653,120.752,62.415,120.752Z"/>
    <path class="cls-1" d="M76.491,53.052c4.019.012,5.707,2.312,6.989,5.13a42.209,42.209,0,0,0-3.149-2.859A42.325,42.325,0,0,0,76.491,53.052Z"/>
    <path class="cls-1" d="M76.868,89.8h-.992c-.815-1.858.529-3.328.8-4.959a4.572,4.572,0,0,1,1.11-.1C77.469,86.479,77.176,88.1,76.868,89.8Z"/>
    <path class="cls-1" d="M84.231,106.48c-1.318-2.8.837-4.3,1.271-6.912C86.481,102.526,84.529,104.078,84.231,106.48Z"/>
    <path class="cls-1" d="M38.723,122.615c.218-.542.34-.848.514-1.281l4.148,1.984C41.639,124.29,40.359,123.178,38.723,122.615Z"/>
    <path class="cls-1" d="M84.647,98.737c-.085-1.324-.611-2.772,1.025-3.741C86.456,96.655,85.191,97.593,84.647,98.737Z"/>
    <path class="cls-1" d="M71.24,128.842l-.735.735c-.558.111-1.408-.365-1.471.736H67.252a5.37,5.37,0,0,1,3.988-2.207Z"/>
    <path class="cls-1" d="M54.044,68.353l1.47-2.265C56.129,67.789,55.142,68.108,54.044,68.353Z"/>
    <path class="cls-1" d="M54.3,107.855c-.148.166-.267.4-.452.483a6.036,6.036,0,0,1-.992.279c.076-.322.055-.754.257-.932s.616-.083.936-.069C54.134,107.62,54.214,107.771,54.3,107.855Z"/>
    <ellipse class="cls-1" cx="88.523" cy="89.863" rx="0.26" ry="1.04"/>
    <path class="cls-1" d="M58.623,62.962c.255-.9.381-1.339.507-1.782a5.98,5.98,0,0,1,.319,1.031C59.463,62.315,59.186,62.462,58.623,62.962Z"/>
    <path class="cls-1" d="M83.907,60.464c-.04-.468-.081-.937-.12-1.405L84.262,59c.093.476.186.954.279,1.431Z"/>
    <path class="cls-1" d="M39.616,131.783v-.735a2.1,2.1,0,0,1,.715.017,2.751,2.751,0,0,1,.628.478,3.422,3.422,0,0,1-.623.231A4.215,4.215,0,0,1,39.616,131.783Z"/>
    <path class="cls-1" d="M83.619,100.508c.264-.933.391-1.377.517-1.82a6.156,6.156,0,0,1,.318,1.031C84.469,99.827,84.2,99.975,83.619,100.508Z"/>
    <path class="cls-1" d="M39.616,131.048H38.145l.915-.735Z"/>
    <path class="cls-1" d="M88.262,81.3l.261-.261a2.245,2.245,0,0,1,.23.493c.014.061-.148.16-.23.242Z"/>
    <path class="cls-1" d="M54.325,68.535l-.736.735Z"/>
    <path class="cls-1" d="M59.4,61.114l.513-.6c.077.078.154.156.231.232l-.6.513Z"/>
    <path class="cls-1" d="M60.944,122.223l.735-.736Z"/>
    <path class="cls-1" d="M61.679,121.487l.736-.735Z"/>
    <path class="cls-1" d="M38.647,71.611c.071,1.6.071,1.6-1,2.673C37.572,72.682,37.572,72.682,38.647,71.611Z"/>
    <path class="cls-1" d="M111.81,108.842v-3.471h1.057C114.08,106.877,111.886,107.609,111.81,108.842Z"/>
    <path class="cls-1" d="M111.774,131.5c-.049-.047-.38-.379-.937-.936l2.146-.291.29.518Z"/>
    <path class="cls-1" d="M140.148,139.8h-1.111V135.58C140.386,136.83,140.386,136.83,140.148,139.8Z"/>
    <path class="cls-1" d="M58.844,95.587a17.668,17.668,0,0,1-2.491,1.385c-.455.167-1.063-.081-1.9-.175V91.412c1.379,1.164,1.427,2.7,1.292,4.791.814-.633,1.171-.905,1.523-1.183.309-.245.613-.5.918-.744C58.419,94.741,58.653,95.206,58.844,95.587Z"/>
    <path class="cls-1" d="M49.177,101.764a6.174,6.174,0,0,1,.006-1.188,20.087,20.087,0,0,1,5.873-.841l-.717.806.72.721a6.444,6.444,0,0,1-1.084,1.038c-.228.139-.638-.022-1.08-.055l.757-1.452Z"/>
    <path class="cls-1" d="M43.349,104.127l4.289.661v.99c-1.653.843-2.9-.218-4.222-.767C43.285,104.957,43.364,104.4,43.349,104.127Z"/>
    <path class="cls-1" d="M55.8,89.127l.735.736c.168.64.335,1.28.565,2.162-.4-.127-1.244-.279-1.241-.407.046-1.524-1.435-1.51-2.584-2.491Z"/>
    <path class="cls-1" d="M42.419,103.135c-.49-.09-1.057-.075-1.1-.22-.414-1.363-1.767-2.61-.624-4.216C41.255,100.141,41.808,101.565,42.419,103.135Z"/>
    <path class="cls-1" d="M48.79,104.307l3.278-1.45C50.283,105.405,50.283,105.405,48.79,104.307Z"/>
    <path class="cls-1" d="M44.948,97.014c1.657,1.832,1.652,1.837,0,2.465Z"/>
    <path class="cls-1" d="M50.538,88.264h-3.5c.136-.274.215-.583.3-.586,1.059-.033,2.12-.021,3.18-.021C50.525,87.859,50.532,88.061,50.538,88.264Z"/>
    <path class="cls-1" d="M45.436,100.159v1.955c-1.482-1-1.495-1-1.279-1.706a.386.386,0,0,1,.248-.237A8.642,8.642,0,0,1,45.436,100.159Z"/>
    <path class="cls-1" d="M49.177,101.584v1.338l-2.93.245Z"/>
    <path class="cls-1" d="M42.105,99.217c.537.8.934,1.383,1.578,2.336C41.965,100.736,41.965,100.736,42.105,99.217Z"/>
    <path class="cls-1" d="M41.214,97.074V94.387c.15-.008.3-.017.449-.024q.093,1.359.187,2.72C41.638,97.079,41.426,97.077,41.214,97.074Z"/>
  </g>
</svg>
