<svg id="圖層_1" data-name="圖層 1" xmlns="http://www.w3.org/2000/svg" viewBox="0 0 166 166">
  <defs>
    <style>
      .cls-1 {
        fill: #78720b;
      }
    </style>
  </defs>
  <title>2018-07-29-YOLO-關於我們-精稿</title>
  <g>
    <path class="cls-1" d="M91.735,109.17,88.6,112.075a34.022,34.022,0,0,0,2.947,3.014,7.8,7.8,0,0,1,2.711,5.024,8.747,8.747,0,0,1-.453,4.947c-1.287,2.6-1.546,5.71-3.753,7.859-.26.252-.512.511-.9.894h-6.6c2.167,1.664,3.384,3.382,5.312,4.574,1.606.992,2.689,2.828,4,4.289l-1.287,1.286a64.443,64.443,0,0,1-16.008-8.287c-2.357-1.637-3.805-4.313-5.27-6.813-.59-1.006-1.105-2.055-1.916-3.577-.791,4.826.09,9.055-.841,13.309-.888,4.057.536,8.471-1.076,12.406-2.91-.686-2.538-3.388-3.369-5.341a4.208,4.208,0,0,1-.025-2.15c.507-3.223-.846-6.294-.727-9.471.16-4.2,1.15-8.125,4.138-11.309.136-.146.131-.423.28-.953l-1.686-.931c-1.986.79-4.462,1.793-7.049.227.085-.085.17-.244.256-.245,1.437-.015,2.875-.011,4.533-.011,1-1.056,2.429-2.021,3.051-3.363a24.633,24.633,0,0,0,2.151-7.036,11.8,11.8,0,0,0-.875-5.372,5.858,5.858,0,0,0-2.874-3.2c-5.009-2.694-8.169-.509-10.451,2.48a10.965,10.965,0,0,0-2.413,5.893c-.461,5.3,1.4,6.821,4.337,9.039.752.568,1.66.779,1.44,2.108-2.427-.7-3.667-2.763-5.371-4.233-1.44,0-2.888.028-4.334-.006a10.059,10.059,0,0,1-7.411-3.073c-1.162-1.224-2.331-2.449-3.59-3.57a24.309,24.309,0,0,0-3.568-2.732c-2.376-1.425-2.884-1.986-3.039-4.1,4.152-1.451,7.332,1.171,10.505,2.9,3.377,1.843,6.31,4.5,9.657,6.966,0-1.494-.052-2.912.01-4.324.167-3.843,4.31-8.745,7.916-9.425,5.441-1.026,9.142,1.242,10.877,6.7a8.476,8.476,0,0,1,.677,2.949,21.111,21.111,0,0,1-.919,4.668c-.449,1.484-1.16,2.889-1.88,4.628.978,1.443,1.272,3.915,4.055,4.246.243-1.841.466-3.527.726-5.49-.473-.341-1.253-.906-2.232-1.614l1.368-1.689c.54.755,1.016,1.418,1.539,2.147.977-1.261,2.02-2.605,3.072-3.961-.383-.424-1.051-.871-1.3-1.487A45.454,45.454,0,0,0,66.4,100.212a3.93,3.93,0,0,1-.713-2.62h.724c.109.548-.359,1.386.723,1.448a7.017,7.017,0,0,0,.757.685,1.49,1.49,0,0,0-.109.1l.5.591c.076-.077.152-.152.227-.229a4.029,4.029,0,0,0-.623-.466,6.914,6.914,0,0,1-.757-.685c-.109-.549.36-1.386-.723-1.448-.109-.548.359-1.385-.724-1.447v-2.17a33.279,33.279,0,0,1,3.6,5.776,13.419,13.419,0,0,1,.743,2.183,5.389,5.389,0,0,0-.756.037c.014-.009.061-.056.108-.1l-.5-.592-.229.228a4,4,0,0,0,.625.466,2.906,2.906,0,0,1,.271.563l.485-.6c1.6.484,1.552,2.082,2.309,3.078l-.715.789c.865,1.63,1.7,3.2,2.547,4.8,1.169.241,1.179-.871.872-1.317-1.108-1.61-.153-3.707-1.395-5.225.077-3.657-1.669-6.766-3.15-9.908A54.686,54.686,0,0,0,67.2,88.261c-1.89-2.982-2.177-6.58-2.981-9.969-.4-1.677-.246-3.676-2.707-5.033a5.962,5.962,0,0,0-.863,1.562,32.76,32.76,0,0,0-.721,4.761,16.108,16.108,0,0,0,.6,5.15c1.254,4.676,2.237,7.351,5.158,11.413q0,.725,0,1.447c-.46-.339-1.158-.583-1.339-1.034a22.379,22.379,0,0,0-2.957-5.276,8.937,8.937,0,0,1-1.366-3.374,20.907,20.907,0,0,1-.769-5.413c.064-1.5-1.53-2.966-.082-4.448-.254-1.657.363-3.175,1.085-4.892h3.132c1.722,1.984,1.861,4.519,2.3,6.955.14.782.319,1.559.415,2.348.511,4.178,3.634,7.126,5.1,10.858.849,2.168,1.956,4.231,2.9,6.361.437.992-.672,2.5,1.22,2.97.039,0-.143.012-.327.023.356,2.851.712,5.7,1.036,8.3l1.128-.8c-.538-2.508-1.076-5.023-1.837-7.528-.448-1.48.086-2.979-.656-4.515a4.493,4.493,0,0,1-.2-3.448c.957-1.953.169-4.444,2-6.045a7.57,7.57,0,0,1,.912-.583A5.494,5.494,0,0,1,78.757,91.8a36.328,36.328,0,0,0,.672,4.4,30.118,30.118,0,0,0,.56,4.087,8.039,8.039,0,0,1-.336,5.532c-.491,1.065-.089,2.541-.089,3.951h2.56a2.977,2.977,0,0,0-.212-2.84,1.321,1.321,0,0,1-.3-.595c-.257-2.792-.471-5.587-.745-8.376-.121-1.245.146-2.421-.6-3.743-.827-1.465.371-2.887,1.768-3.851.474,2.968,1.217,5.888,1.066,8.964-.07,1.453.529,2.924.643,4.4.122,1.558-.047,3.138.072,4.7.038.5.59.96.964,1.523,2.167-1.99,2.877-5.031,5.453-6.6,2.409-1.469,4.667-3.187,7.287-5,0-6.4.4-13.286-.157-20.094a89.049,89.049,0,0,1-.493-11.281c.138-3.03.827-6.03.7-9.107-.028-.7.563-1.434.923-2.125a20.209,20.209,0,0,0,1.744-3.251c1.085-3.586,3.852-5.144,7.052-6.351.566.863-.282,1.139-.595,1.34-4.573,2.932-5.579,4.166-7,8.932a18.644,18.644,0,0,0-.7,2.955c-.12.95.223,2.009-.069,2.875-1.138,3.361-.749,6.812-.616,10.2.161,4.118.849,8.2.694,12.36-.157,4.191-.035,8.393-.035,12.654l1.392.166V78.448c1.128,1.4.7,2.532.762,3.564.074,1.2.017,2.411.017,3.616V97.079l2.587-1.042c.138.437.26.825.444,1.407h-2.1c-.17,1.163-.777,2.2.517,3.043l-1.047,2.814c-.437-.256-.9-.529-1.644-.967a21.3,21.3,0,0,0-.16,5.564c.116,1.721-.675,3.526.543,5.2.348.479.129,1.387.133,2.1.011,2.289.168,4.593-.029,6.866-.435,5.009,1.04,9.893.824,14.89a5.757,5.757,0,0,0,1.222,3.416c.634.836,1.886,1.063,2.983,1.427,6.578,2.19,13.348,1.4,20.026,1.271a19.684,19.684,0,0,0,9.667-2.752,5.28,5.28,0,0,0,2.93-4.7c.035-2.411.007-4.821.007-7.231,0-2.531-.516-5.207.145-7.552.67-2.381.451-4.655.554-6.972.112-2.526.025-5.061.025-7.591V99.033c0-12.775.033-25.549-.033-38.323-.011-2.067.015-4.36-.831-6.143-1.24-2.616-1.984-5.649-4.491-7.541-.449-.34-.968-.586-2.105-1.261,1.381-.177,1.859-.383,2.02-.237a19.572,19.572,0,0,1,6.3,11.143,45.909,45.909,0,0,1,.557,9.127c.063,17.353-.052,34.708.076,52.061.045,6.07-1.206,12.054-.825,18.142.132,2.106-1.578,3.531-2.913,5.017-2.023,2.252-4.939,2.114-7.5,2.829a28.5,28.5,0,0,1-5.833.752c-1.92.121-3.854.026-5.782.026a41.865,41.865,0,0,1-6.138-.055,43.489,43.489,0,0,1-9.643-2.872c-1.616-.646-1.85-2.645-1.792-3.807.178-3.587-1.01-7-.876-10.553.095-2.527.112-5.066-.009-7.59-.117-2.437-.552-4.858-.67-7.3-.121-2.5-.027-5-.027-7.561-1.545.439-1.85,2.487-3.618,2.108,1.02-1.14,2.066-2.258,3.043-3.434a5.976,5.976,0,0,0,.647-1.348,24.907,24.907,0,0,0-4.325,2.853,5.046,5.046,0,0,1-1.371.491l-.2-.431,5.841-4.963c-4.647,1.3-7.645,4.7-10.8,7.883a5.078,5.078,0,0,0-.767,1.476c-.019.04.142.164.367.409l.822.721C89.3,110.268,90.264,109.062,91.735,109.17ZM76.54,135.219l.723.723c.062,1.082.9.614,1.513.648-.047.047-.093.094-.141.141l.5.592.228-.229a2.1,2.1,0,0,0-.657-.428c-.063-1.083-.9-.615-1.448-.724l-.723-.723-.724-.724c-.386-.508-.784-1.007-1.157-1.524-.459-.638-.572-1.187.448-1.415,2.876,2.615,5.407,5.625,9.027,7.3a7.8,7.8,0,0,1,1.988,1.275,7.036,7.036,0,0,0,4.52,2.277l-9.9-8.95c-2.046-.69-3.843-1.294-5.653-1.854a13.233,13.233,0,0,0-1.484-1.8c-.6-.522-.775-1.091,14.955,2.526,1.546-1.9,2.176-3.988,3.254-5.8,1.149-1.931-.153-4.236,1.364-5.948-.719-1.507-1.153-3.264-2.212-4.473-2.761-3.155-6.184-5.075-10.631-4.815a6.534,6.534,0,0,0-4.624,1.955c-.67.692-1.322,1.406-2.047,2.036-1.946,1.693-2.538,4.013-2.881,6.384-.226,1.557,1.462,5.3,2.757,6.566,2.637,2.57,5.629,4.312,9.5,4.109,1.8-.1,3.609-.017-10.117-4.358a9.529,9.529,0,0,0-1.513-.648l.142-.141q-.252-.3-.5-.592l-.228.229a2.074,2.074,0,0,0,.657.428q.24,1.032.479,2.062l-1.042.338c1.044,1.387,2.085,2.733,3.081,4.112a1.75,1.75,0,0,0,1.823.724ZM40.426,113.435l-.141.142.505.591.228-.229a2.114,2.114,0,0,0-.657-.428l-.724-.723v-1.407l4.923,3.358-.633.633a22.038,22.038,0,0,1,2.96.725,4.033,4.033,0,0,0,3.2-.051c-3.248-2.627-6.143-5.168-9.254-7.41a30.526,30.526,0,0,0-6.193-3.3c-1.351-.559-2.7-1.78-4.7-.891a7.223,7.223,0,0,0,4.636,3.279l.724.723.723.724,3.618,3.618A3.49,3.49,0,0,0,40.426,113.435ZM76.942,89.42a20.852,20.852,0,0,0-1.2,6.9c-.119,2.318.667,4.438.879,6.671.2,2.054,1.07,4.044,1.876,6.876C79.2,102.44,78.237,96.038,76.942,89.42Zm-12.979,38.6a39.837,39.837,0,0,0-1.27,7.365c-.116,3.1.9,6.021.835,9.073-.035,1.569-.3,3.235,1.137,4.443,1.8-2.941.9-6.194.977-9.307s.3-6.259-.655-9.363v9.443c-2.3-1.361-1.819-3.511-1.308-4.8C64.619,132.5,63.943,130.3,63.963,128.023Zm4.264-4.489q-.222.186-.442.374a5.042,5.042,0,0,1,.778.842,4.59,4.59,0,0,1,.3,1.115l1.3-1.255Zm31.2-24.018c.832.208.832.208.783-.784Zm.254,2.253.757-.022c-.09-.382-.176-.765-.278-1.143-.005-.015-.222-.008-.228.017C99.84,101,99.763,101.385,99.683,101.769ZM64.705,126.64c-.151.084-.309.17-.466.258.08.079.178.239.238.225a2.309,2.309,0,0,0,.485-.225Z"/>
    <path class="cls-1" d="M42.549,61.715c3.052.142,1.762,2.213,2.265,3.807s1.279,3.255,1.234,4.866c-.051,1.822.976,3.379.8,5.122-.169,1.706-.507,3.4-.778,5.142a11.365,11.365,0,0,1,7.678,8.213,15.758,15.758,0,0,1-.4,8.214c-.1.406-.566.735-.895,1.068-1.184,1.2-2.4,2.371-3.569,3.586-1.09,1.131-2.7,1.184-3.9,1.886-1.563.912-2.584.358-3.864-.216a7.183,7.183,0,0,0-2.583-.7c-1.027-.038-1.319-.928-2.005-1.31-2.9-1.612-3.852-4.489-4.854-7.334a8.246,8.246,0,0,1-.678-2.589,12.2,12.2,0,0,1,.664-2.592,6.712,6.712,0,0,1,2.959-4.312c1.149-.741,2.272-1.521,3.387-2.27-.82-3.125-3.06-5.158-5.289-7.1-2.171-1.894-4.592-3.5-6.99-5.3,1.7-1.222,3.164-.376,4.215.4a47.247,47.247,0,0,1,6.348,5.6,72.709,72.709,0,0,1,4.8,6.4,8.917,8.917,0,0,0-.405-2.057A12.285,12.285,0,0,1,39,74.1c.01-2.173-.44-4.32.52-6.616,1.35-3.23,1.9-5.12,3.029-5.767a5.388,5.388,0,0,0-.741,2.593c-1.99,2.02-1.506,4.785-2.175,7.2-.345,1.246.786,2.169.711,3.317-.147,2.281,1.061,4.129,1.713,6.136,2.114-.289,3.408-1.341,3.3-3.24-.12-2.189.461-4.339-.525-6.632-.877-2.038-.632-4.564-.847-6.876-.063-.675-.01-1.359-.01-2.38C42.993,62.3,42.4,62.581,42.549,61.715ZM33.253,87.7a11.1,11.1,0,0,1-.416,2.537c-.578,1.366-.258,2.541.007,3.943.579,3.06,2.768,4.756,4.7,6.73,1.273,1.3,3.276.634,4.722,1.694.625.459,1.536-.519,2.194-.581,3.523-.33,4.918-3.391,7.219-5.269a1.179,1.179,0,0,0,.26-.606c.832-3.383,1.358-6.6-.626-9.975-1.509-2.57-3.827-3.455-6.21-4.4-1.451-.571-2.854.147-4.11,1.252.63,2.228,4.111,1.215,4.427,3.8-1.232,4.253-2.109,4.524-5.673,1.806-.523-1.641.888-3.74-1.418-4.789C36.029,84.44,34.718,86.32,33.253,87.7Zm10.209-2a9.4,9.4,0,0,1-.942,1.228,13.859,13.859,0,0,1-1.366.989L42.413,89.1C43.853,88.271,44.469,87.4,43.462,85.694Z"/>
    <path class="cls-1" d="M124.764,36.891c-4.125,1.315-8.4.235-12.82.8.273,2.729.054,5.347-2.992,7.284.3-.835.425-1.311.626-1.754.567-1.252,1.283-2.468.966-3.927-.246-1.129.764-2.119.087-3.414-.48-.92-.049-2.184-.708-3.322-.37-.639.689-2.089.33-2.755a5.226,5.226,0,0,1-.411-2.722c-.045-3.127-.017-6.254-.017-9.381,1.431-1.937,3.519-2.343,5.742-2.618,3.1-.384,6.037.76,9.153.812a5.806,5.806,0,0,1,1.766,4.953,45.234,45.234,0,0,0,.011,5.049,15.031,15.031,0,0,0,.757,2.731l-1.309.589c.183,1.361.639,2.349.34,2.981-.867,1.834-.582,3.549-.164,5.39.625,2.752,2.676,4.229,4.738,5.739.464.34.936.669,1.663,1.188-2.711.685-3.952-1.293-5.43-2.448C125.463,40.789,125.1,39.566,124.764,36.891Zm-14.223-9.03a6.148,6.148,0,0,0,4.369,1.74c2.641-.095,5.29-.069,7.933,0,1.037.025,1.661-.346,2.322-1.634-1.548.458-2.694-.059-4.028.659-1.591.857-2.848.218-3.821-1.209,2.572-.079,5.179.337,7.631-1.1v-8.02a5.287,5.287,0,0,0-4.356-1.756,46.376,46.376,0,0,1-4.687,0,5.5,5.5,0,0,0-4.5,1.691c-.134,3.135-.253,6.1-.4,9.072C110.989,27.475,110.731,27.638,110.541,27.861ZM124.3,32.47c-2.511,0-4.689-.169-6.828.048-2.095.212-3.962-1.631-6.085-.533-.633.989,1.884,2.046-.484,3.079,2.573,1.29,5.093,2.3,7.466,1.6,1.961-.572,3.9-.271,5.839-.72.034-.408.082-.748.089-1.091C124.306,34.151,124.3,33.443,124.3,32.47Zm1.264-1.716c-3.994-.688-3.994-.688-7.543,1.3Z"/>
    <path class="cls-1" d="M127.766,71.51H107.3c-1.85-1.813.6-4.022-1.01-6.4-2.266-.721-2.257-3.614-2.908-5.959-.693-2.5.678-4.422,3.238-5.782,2.06-1.094,4.066-2.062,6.362-.649a14.1,14.1,0,0,1,1.753.974c.827.7,1.549,1.514,2.317,2.28,0,.481,0,.961,0,1.64l2.8.3V63.97l.446-.322.91,1.6c2.724-1.383,1.028-3.767,2.182-6.139L125,57.861h3.663C128.251,62.442,129.489,67.048,127.766,71.51ZM114.166,54.9c-.061-1.083-.9-.615-1.447-.723-1.462-.855-3.729-1.027-4.469-.185.244.409.517.869.791,1.328-1.639.469-2.532,1.715-3.325,3.261-.173-.8-.321-1.5-.47-2.19-.357,2.426-1.009,4.827.984,6.9,1.977,2.056,4.424,1.728,6.825,1.732l2.558-2.519V60.69a1.793,1.793,0,0,0,0-2.895c-.275-.712.671-1.831-.723-2.17Q114.527,55.262,114.166,54.9ZM125.02,62.86c.08.2.159.4.238.6.162-.2.324-.4.485-.6l1.144.665c.339-1.019.688-2.068,1.033-3.11-.95-1.463-2.227-1.409-3.641-.912.307,2.216-1.3,4.1-.706,6.247-1.449-.114-2.72,1.5-4.383.363v-6h-2.1v2.3c-.875,1.175-2.442,1.842-2.342,3.75.031.591-1.009,1.3-2,1.028-1.379-.382-2.751-.786-4.306-1.233-1.458.951-.539,2.566-.83,3.971h19.578c0-1.114.022-2.069-.006-3.023-.027-.853-.108-1.7-.165-2.558l-.53.032v3.538c-.711,0-1.175.022-1.634-.007-.438-.028-.872-.11-1.283-.164v-2h1.167c-.125-1.024-.24-1.837-.3-2.653C124.437,63.035,124.819,62.941,125.02,62.86Zm-17.727-8.682c-.081.08-.241.178-.227.237a2.294,2.294,0,0,0,.226.486c.081-.081.24-.178.227-.238A2.264,2.264,0,0,0,107.293,54.178Z"/>
    <path class="cls-1" d="M107.612,73.54c2.149.508,3.851-.189,5.622.8,1.418.789,3.512-.567,5.052.826l9.506.849v8.476c-1.985.48-4.145,1.358-6.325,1.413-1.685.045-3.108.9-4.745.85-1.68-.052-3.367-.076-5.043.021a9.677,9.677,0,0,0-2.282.845c-.152-.386-.38-.96-.608-1.534l-.382.353V81.892l4.85-1.22c-1.413-2.417-4.5-.073-6.459-2.359C107.027,76.966,107.29,75.426,107.612,73.54Zm18.79,3.876c-3.288-.385-6.276-.71-9.256-1.093-2.908-.374-5.736-1.559-8.655-1.05V78.62c4.1.724,8.32-.833,12.266,1.167a6.255,6.255,0,0,1-4.774,1.852c-2.45.055-4.621.971-7.219,1.8l1.113,2.33c5.82-.6,11.173-1.154,16.525-2.166Z"/>
    <path class="cls-1" d="M108.378,126.174l2.98-2.981c2.236-.776,4.731-.518,6.858-1.722,3.258.352,6.516-.42,9.842.575a3.48,3.48,0,0,1,2.612,2.759,11.052,11.052,0,0,1-.817,6.8,6.337,6.337,0,0,1-4.661,3.527,47.7,47.7,0,0,1-8.7.748,14.157,14.157,0,0,1-5.014-.9c-2.045-.764-2.755-2.751-3.064-4.739A27.205,27.205,0,0,1,108.378,126.174Zm1.7,6.139a8.559,8.559,0,0,0,1.972,1.1c1,.266,2.228-.041,3.07.424,1.7.936,3.2.713,4.969.262a29.867,29.867,0,0,1,5.287-.346c.182-.011.314-.4.519-.47a4.225,4.225,0,0,0,2.8-2.759,14.858,14.858,0,0,0,.75-4.163c.229-2.111-1.179-2.591-2.48-3.257a3.916,3.916,0,0,0-1.725-.175,39.139,39.139,0,0,0-9.1.635,20.031,20.031,0,0,0-4.793,1.529c-1.409.741-2.844,2.892-2.154,3.8C110.033,129.986,109.509,131.165,110.074,132.313Z"/>
    <path class="cls-1" d="M127.873,110.511h-18.7V104.77a8.067,8.067,0,0,1,2.131-.634c3.244-.073,6.49-.031,10.1-.031.317-1.082.66-2.251,1.015-3.455a27.147,27.147,0,0,1,3.126-.857,17.272,17.272,0,0,1,2.762-.03c1.688,2.45,1.033,5.116.965,7.634C129.247,108.518,128.3,109.615,127.873,110.511Zm-5-4.832h-12.2l-1.045,3.406h17.506c1.605-2.449.382-5.181.9-8.136L122.87,102.1Z"/>
    <path class="cls-1" d="M123.154,90.587l1.716,1.861c.07-.345.136-.674.242-1.191h4.054c.159.623.281,1.291.5,1.925.721,2.093.276,2.873-1.77,2.957-.84.035-1.682.006-2.732.006-.1-.95-.21-1.913-.316-2.875l-.394.026v2.218c-1.393,1.606-3.068,1.351-4.672,1.353q-5.213.007-10.436,0c-1.8-1.9-.572-4.165-1.013-6.105l1.262-1.262Zm-13.188,4.707h12.809v-2.5c-1.957-1.391-4.136-.775-6.19-1.029-2.173-.268-4.286-1.085-6.414-.586C108.1,92.465,109.577,93.834,109.966,95.294Zm18.607-2.53c-2.721-.213-2.721-.213-2.7,1.808h2.7Z"/>
    <path class="cls-1" d="M136.7,111.333c-.034-.561-.095-1.122-.1-1.683q-.007-16.459,0-32.918c0-1.121-.325-2.4,1.443-3.026,0,1.759.1,3.423-.028,5.071-.125,1.6.63,3.336-.679,4.781-.12.133-.077.488-.007.706,1.545,4.782.353,9.7.7,14.535a19.641,19.641,0,0,1,0,3.254c-.294,3.1-.664,6.187-1,9.279Z"/>
    <path class="cls-1" d="M101.177,112.186l.918-.123c.165.146.471.29.473.438.037,2.394-.53,4.977.191,7.133.84,2.512.344,4.89.517,7.311.17,2.386.036,4.792.036,7.189v1.7l-.5.037c-.076-.591-.171-1.181-.225-1.775-.249-2.776-.578-5.548-.7-8.33-.121-2.752.305-5.568-.146-8.248A25.343,25.343,0,0,1,101.177,112.186Z"/>
    <path class="cls-1" d="M136.019,134.991c-.248-1.618-.6-2.644-.233-3.887.391-1.326.04-2.859.1-4.3.054-1.248-.126-2.449.609-3.723.52-.9.1-2.344.1-3.546v-4.564c.59,1.343.988,14.925.707,16C136.985,132.205,136.537,133.4,136.019,134.991Z"/>
    <path class="cls-1" d="M119.7,119.928h-3.276v-5.587l3.1-1.835c.431.782,1.137,1.464,1.087,2.086C120.47,116.4,121.52,118.462,119.7,119.928Zm-.574-5.582-1.926.892V118.5h1.926Z"/>
    <path class="cls-1" d="M134.066,137.39l1.1,1.1c-2.695,1.026-5.259-.321-7.855-.31a38.626,38.626,0,0,1-8.139-1.049c1.259-.834,2.515-.368,3.677-.446,1.32-.088,2.651-.051,3.976-.011,1.143.034,2.066.92,3.323.753A29.625,29.625,0,0,1,134.066,137.39Z"/>
    <path class="cls-1" d="M105.034,138c1.466-1.054,2.693-.292,3.782-1.2a2.045,2.045,0,0,1,3.091,1.2Z"/>
    <path class="cls-1" d="M52.667,111.887c-.582,1.7,1.368,2.852.432,4.588C50.769,113.505,50.659,112.859,52.667,111.887Z"/>
    <path class="cls-1" d="M85.458,100.5l2.068-1.726,1.244,2.142c-.334.336-.674.676-1.18,1.183Z"/>
    <path class="cls-1" d="M61.106,103.2l-1.437,1.508L57.482,103.6c.489-.61.9-1.551,1.334-1.563C59.459,102.013,60.121,102.655,61.106,103.2Z"/>
    <path class="cls-1" d="M57.469,124.892c.107,2.071.107,2.071-1.37,3.091C55.472,126.271,55.472,126.271,57.469,124.892Z"/>
    <path class="cls-1" d="M54.77,81.068V83H52.781q-.06-.762-.152-1.935Z"/>
    <path class="cls-1" d="M136.646,66.817V63.086C138.494,64.494,138.5,64.519,136.646,66.817Z"/>
    <path class="cls-1" d="M102.417,100.257c1.176-.862,2.352-1.726,3.932-2.886C105.851,99.923,104.165,100.134,102.417,100.257Z"/>
    <path class="cls-1" d="M136.032,51.487l-1.153,1.153c-.6-.846-1.2-1.688-1.889-2.655C134.6,49.419,134.821,51.214,136.032,51.487Z"/>
    <path class="cls-1" d="M44.527,105.642c.4-.519.8-1.039,1.238-1.615l1.582,1.916-2.456.372C44.769,106.09,44.649,105.866,44.527,105.642Z"/>
    <path class="cls-1" d="M94.629,107c-.636,1.162-1.305,2.28-2.894,2.171C92.371,108.007,93.04,106.89,94.629,107Z"/>
    <path class="cls-1" d="M135.587,134.344c.448.577.715.921,1.029,1.327-.544.389-1.085.778-1.7,1.217C133.778,135.282,135.31,135.113,135.587,134.344Z"/>
    <path class="cls-1" d="M82.442,113.89c-.386-.514-.715-.787-.795-1.122-.045-.181.329-.466.514-.7a3.463,3.463,0,0,1,.854.754C83.092,112.947,82.763,113.317,82.442,113.89Z"/>
    <path class="cls-1" d="M65.686,93.975c-2.649-5.06-5.511-9.961-4.76-15.86.244,1.628,1.257,3.008,1.236,4.8A10.351,10.351,0,0,0,63.457,87c.778,1.713.881,3.694,2.186,5.216C65.938,92.562,65.686,93.376,65.686,93.975Z"/>
    <path class="cls-1" d="M36.019,109.17l-.723-.724-.724-.723-.658-1.127c1.558-.039,2.941.852,6.324,4.337-1.3-.55-1.972-.645-2.339-1.032A2,2,0,0,0,36.019,109.17Z"/>
    <path class="cls-1" d="M77.912,98.6v4.57l-.279.075c-.364-1.154-.786-2.3-1.04-3.474C76.549,99.567,77.208,99.209,77.912,98.6Z"/>
    <path class="cls-1" d="M34.919,95.582c1.77,1.47,3.608,3,5.685,4.723C37.345,99.866,34.748,97.5,34.919,95.582Z"/>
    <path class="cls-1" d="M42.525,64.292c0,1.627-.121,3.268.042,4.879.161,1.591-.424,3.165.467,4.826.692,1.288.547,3.024.773,4.555-1.958-.329-1.138-2.332-1.9-3.437-.5-.725,0-2.095-.124-3.157-.1-.872-.578-1.7-.657-2.575a3.431,3.431,0,0,1,.379-2.349c.461-.735.333-1.838.466-2.779Z"/>
    <path class="cls-1" d="M122.594,20.169c-2.888,2.213-8.084,1.779-10.79-.765,1.987.287,3.633.62,5.3.739S120.45,20.169,122.594,20.169Z"/>
    <path class="cls-1" d="M116.088,28.072h-4.313l1.339-1.437,3.233,1.107Z"/>
    <path class="cls-1" d="M122.05,20.1l.5-.592.229.228-.592.505Q122.121,20.173,122.05,20.1Z"/>
    <path class="cls-1" d="M112.573,34.81c.192-.816.213-1.379.351-1.408a3.6,3.6,0,0,1,2.041-.162,6.716,6.716,0,0,0,6.233,0,3.28,3.28,0,0,1,2.37.253C120.2,35.567,116.52,34.141,112.573,34.81Z"/>
    <path class="cls-1" d="M113.316,60.567h-8.46l2.664-1.538-.367-.441h6.163Z"/>
    <path class="cls-1" d="M114.166,54.9q.362.36.724.724c.276.711-.67,1.831.723,2.17V60.69c-.867.987-1.72,1.99-2.611,2.957a7.368,7.368,0,0,1-.97.771c-1.109-.545-1.187-1.169-.232-1.521,1.113-.409,1.8-.942,1.643-2.207,1.776-.631-.076-2.137,1.323-3.177a22.965,22.965,0,0,1-2.622-2.168c-.368-.411-.318-1.12.575-1.167C112.781,55.26,113.618,54.792,114.166,54.9Z"/>
    <path class="cls-1" d="M125.743,62.86h-.723V60.63l1.675.281C126.312,61.693,126.028,62.277,125.743,62.86Z"/>
    <path class="cls-1" d="M122.514,130.09h-7.675c-.282-.789-.578-1.614-.859-2.4,2.517-1.332,4.979-1.107,7.418-1.192a2.006,2.006,0,0,1,2.067,1.078A1.944,1.944,0,0,1,122.514,130.09Zm-.507-1.5,0-.6c-.93,0-1.866-.065-2.788.018s-1.952-.341-3.286.584Z"/>
  </g>
</svg>
