<svg id="圖層_1" data-name="圖層 1" xmlns="http://www.w3.org/2000/svg" viewBox="0 0 166 166">
  <defs>
    <style>
      .cls-1 {
        fill: #8cc63f;
      }
    </style>
  </defs>
  <title>2018-07-29-YOLO-關於我們-精稿</title>
  <g>
    <path class="cls-1" d="M122.854,69.306A55.668,55.668,0,0,1,126.6,74.6c.692,1.087,1.242,2.267,1.974,3.323,2.3,3.309,3.035,7.27,4.6,10.883a7.849,7.849,0,0,1,.146,2.015c.121.966-.436,2.077.6,2.869.12.092.128.448.066.643-.817,2.6-.431,5.444-1.655,7.949-.053.109-.417.066-.636.093-.154-.143-.458-.315-.438-.428.19-1.064.45-2.114.664-3.173.192-.956-.375-2.009.553-2.907.3-.289.244-1.114.12-1.639-.821-3.444-1.267-6.937-2.644-10.3a69.235,69.235,0,0,0-6.323-11.892,8.057,8.057,0,0,0-1.184-1.575c-2.935-2.668-5.42-5.777-8.687-8.15a18.468,18.468,0,0,1-5.44-7.162c.293-.293.362-.406.46-.447a.97.97,0,0,1,.342-.01c.115,0,.3-.046.335.007,1.164,1.816,2.314,3.641,3.483,5.493.4-1.839.808-3.7,1.227-5.616l1.267.362c-1.172,2.048-.683,4.206-.8,6.507l4.683,3.685a38.092,38.092,0,0,0,2.089-3.761c.6-1.421-.364-2.488-1.185-3.526A16.425,16.425,0,0,1,117.928,55a3.316,3.316,0,0,1-.164-3.107,28.3,28.3,0,0,1,1.073-3.35c1.389-2.427.352-4.168-1.309-5.834l-1.08-1.081-2.073-.116c-2.617-1.737-3.016-4.375-3.155-7.06a64.988,64.988,0,0,1,0-6.562c.1-2.114-1.794-3.171-2.361-4.907-2.137-.552-4.363-1.442-6.467-.482-1.175.536-2.221.146-3.255.436-1.177-1.177-2.3-2.338-3.462-3.452-1.918-1.837-4.232-1.764-6.532-1.089A13.465,13.465,0,0,0,85.41,20.18a6.673,6.673,0,0,0-1.832,2.265c-.781,1.39-1.389,2.877-2.1,4.308-.667,1.338-1.41,2.638-2.06,3.984-1.131,2.344-1,2.707.873,4.62a9.852,9.852,0,0,1,1.836,2.606,2.452,2.452,0,0,1-.356,2.07,5.73,5.73,0,0,0-.49-1.734,9.413,9.413,0,0,0-1.685-1.725A6.905,6.905,0,0,1,77.334,33.3c0,.764-.264,1.662.045,2.27,1.48,2.913.608,5.524-.724,8.152a17.406,17.406,0,0,0-1.367,3.231c-.609,2.234.859,3.839,2.112,5.306,1.619,1.894,2.926,3.648,1.406,6.2-.14.235.209.769.347,1.158a9.008,9.008,0,0,0,3.019,4.336,12.26,12.26,0,0,1-.056,3.38c-.557,1.875.81,2.989,1.52,4.235a4.216,4.216,0,0,0,4.031,1.8,4.842,4.842,0,0,1,3.459,1.658c1.287,1.188,2.658,2.285,3.962,3.395,2.534-1.53,4.779-2.986,7.972-2.051a8.067,8.067,0,0,1,.508,1.95c.07,2.415.124,4.84.007,7.253-.261,5.365,3.9,14.37,8.161,17.714a9.689,9.689,0,0,0,9.492,1.092c.294,2.669,2.966,1.934,4.46,3.146l-1.1,1.2c-.318-.6-.622-1.172-.621-1.169-4.425-.978-8.385-1.026-11.886-3.085a13.273,13.273,0,0,1-5.952-6.152c-.951-1.9-2.4-3.591-2.566-5.855-.027-.38-.573-.71-.637-1.1a43.116,43.116,0,0,1-.686-5.24c-.112-2.758-.03-5.524-.03-8.277l-.934-.935c-2.466.832-4.668,2.358-7.471,2.024A6.34,6.34,0,0,0,91,79.592c-.89.344-1.662,1.138-2.559,1.284-.768.125-1.632-.421-2.468-.607-.632-.141-1.272-.248-1.892-.4-2.4-.6-3.339-2.6-4.6-4.143l.779-3.251a28.675,28.675,0,0,1-3.434-3.522,8.113,8.113,0,0,1-1.483-3.833,19.035,19.035,0,0,1,.715-4.5c-1.6-.621-3.138-1.089-4.551-1.811-1.375-.7-2.055-3.038-1.576-4.662.686-2.328.667-2.3-1.145-3.613a12.147,12.147,0,0,1-1.739-1.642c-1.714-1.859-1.914-3.248-.446-5.174.8-1.055,1.606-1.692.509-3.176-.768-1.038.211-2.646,1.1-3.016,1.523-.633,1.525-1.992,2.34-3.089l-2.24-2.243c.278-1.911,1.945-1.41,3.112-2.165-.829-1.165-1.615-2.19-2.315-3.271-1.025-1.584-1.124-3.86-.005-4.876a7,7,0,0,1,3.077-1.665c.989-.212,2.118.22,3.6.425l1.573-2.105V16.318a17.18,17.18,0,0,1,1.737-1.712c1.863-1.392,3.819-2.019,6.106-.828a20.731,20.731,0,0,0,3.511,1.094c.707-.794,1.194-1.787,1.953-2.083,1.062-.414,2.2-1.916,3.51-.354,1.989-.282,3.807,1.681,6.012.186a2,2,0,0,1,2.9,1.364c1.839-.4,3.039-1.984,5.324-1.236l3.111,3.867h3.653c1.059,1.433,2.214,2.994,3.443,4.658,1.5-.691,3.121-1.952,5.391-.588,1.011.609,2.692.1,4.126.1.606.669,1.222,1.349,1.878,2.075h4.339a11.052,11.052,0,0,1,1.8,5.331c1.428.851,3.5-.719,4.779,1.357-.312,1.785.413,3.759-.611,5.766a3.017,3.017,0,0,0,.773,3.425c1.217,1.242.544,5.576-.739,7.183a23.38,23.38,0,0,0-2.174,2.9c-.7,1.237-1.241,2.586-.037,3.91a8.506,8.506,0,0,1,.737,1.148l-2.932,5.905a14.332,14.332,0,0,1,1.482,1.128c.421.41,1.02.92,1.034,1.4A5.285,5.285,0,0,1,137.9,64.9c-.694,1.275-1.4,2.483-1.073,4.007l2.805,2.805a34.685,34.685,0,0,1-2.217,4.51c-.789,1.173-1.066,2.655-.537,3.479.97,1.51-.026,3.393,1.276,4.678-.055,3.379,1.23,6.668.687,10.078-.206,1.291-.11,2.794-.758,3.815-1.38,2.174-.091,3.7.881,5.627a5.3,5.3,0,0,1-.811.862,4.285,4.285,0,0,1-1.007.411c0-1.042.366-2.243-.066-2.714-1.6-1.747-.688-3.564-.19-5.17a8.69,8.69,0,0,0,.569-2.514c.014-1.843.093-3.691-.023-5.527a26.856,26.856,0,0,0-.7-4.889c-.6-2.383-1.488-4.688-2.08-7.087-.46-1.857-5.638-10.386-6.963-11.966-.287-.343-.566-.693-1.007-1.233a43.213,43.213,0,0,1-3.83,5.231,5.692,5.692,0,0,1,2.034-4.478c1.854-1.85,2.169-4.415,2.821-6.751.439-1.578-.579-3.123-1.3-4.583-.449-.907-.838-1.845-1.237-2.732,1.361-2.132,2.412-4.274,1.817-6.84l-5.5-3.292a13.567,13.567,0,0,0-1.641-8.735c-3.69-.424-5.09,2.725-7.406,4.535a6.121,6.121,0,0,0,3.9,4.321,6.89,6.89,0,0,1,3.478,3.06c.573.874,1.65,2.244.428,3.783-.6.759-.307,2.174-.8,3.089-1.328,2.475-.7,4.485,1.225,6.192,2.04,1.81,2.507,3.845,1.121,6.176-.455.765.267,1.925-.9,2.373.405.867.823,1.727,1.212,2.6A3.548,3.548,0,0,0,122.854,69.306Zm16.68-38.962c-1.78-3.087-3.054.234-4.84.183,0-1.559.039-3.025-.013-4.488-.042-1.173-.721-1.753-1.944-1.75a5.073,5.073,0,0,0-1.312.163c-2,.548-1.982.553-2.959-1.058a8.937,8.937,0,0,0-.8-1L120.2,21.4l-.871,2.425c1.031.456,1.867,1.183,2.571,1.072,2.1-.336,2.584,1.353,3.011,2.5a16.262,16.262,0,0,1,.768,5.2,10.093,10.093,0,0,0,3.946,8.259c.335-3.833.313-4.411-1.783-7.106a3.158,3.158,0,0,1-.521-3.245l1.907,2.671v-4.1l1.323.177V33.4a37.649,37.649,0,0,1-.042,4.484c-.147,1.214,1.514,2.385.042,3.575l1.392,2.868c-1.149,1.39-.528,3.017-.741,4.579,1.845.986,1.578,2.605,1.274,4.184-.271,1.4-2.1,2.056-1.911,3.686.164,1.409.449,2.8.672,4.2a7.446,7.446,0,0,1-.17,1.063c-.527.527-1.485,1.486-2.516,2.516l3.676,5.342c.192-2.114-.926-4.1.088-6.43l1.516,1.466c.167-.487.3-.889.533-1.553a5.562,5.562,0,0,1,.321,1.172,13.908,13.908,0,0,1-.577,4.234,8.987,8.987,0,0,0,.132,4.371,17.6,17.6,0,0,0,1.548,3.485c.9-1.637,1.767-3.214,2.751-5.005l-3.094-2.552c-.389-2.744,1.574-4.323,2.085-6.544L134.6,60.311c-.083-2.511,2.315-4.028,2.819-6.392-1.664-2.185-1.99-3.994-.466-5.9A20.976,20.976,0,0,0,140.9,40.7c-.378-.676-.591-1.535-1.141-1.944a2.7,2.7,0,0,1-.826-3.4C139.839,33.575,139.3,31.837,139.534,30.344ZM101.974,21.1a18.506,18.506,0,0,1-2.439-2.68c-.534-.891-.517-2.121-1.075-2.987-.5-.783-1.143-1.757-2.444-1.541a1.822,1.822,0,0,1-1.268-.225c-1.626-1.213-2.946-.16-4.225.59a11.732,11.732,0,0,0-1.986,1.931c-1.466-.392-2.843-.686-4.17-1.132-3.593-1.21-5.54.041-5.649,3.7-.012.427,0,.853,0,1.03l-1.835,1.835H71.312c-2.061,3.1-2.121,3.7.13,6.026a3.174,3.174,0,0,1,.925,3.323c-.875.395-1.748.791-2.636,1.193l2.038,2.214c.222,2.952-2.341,3.5-3.555,4.922.6,1.164,1.084,2.111,1.627,3.169l-2.9,2.937c.107,3.472,3.254,3.74,4.932,5.545-.4,1.067.405,2.327-.675,3.494a2.075,2.075,0,0,0,.42,2.491,9.537,9.537,0,0,0,6.394,2.527c.029-4.557.013-4.544-2.888-8.04a5.229,5.229,0,0,1-.931-5.57,10.827,10.827,0,0,1,1.278-2.967c.946-1.19,1.76-3.06,1.105-4.621-.979-2.334-.386-4.614-.653-6.775,3.254-2.1,3.883-3.687,4.892-6.786a9.825,9.825,0,0,1,1.7-3.747,20.006,20.006,0,0,1,4.511-3.2,12.9,12.9,0,0,1,2.781-.776,6.548,6.548,0,0,1,7.575,2.736C98.348,21.084,99.529,22.038,101.974,21.1Zm11.332,12.7c2.222-3.037,4.608-3.748,7.155-3.216,1.949,1.333,1.678,3.3,2.2,4.9a21.062,21.062,0,0,1,.411,4.661l5.245,3.489c.747,3.037-.66,5.166-1.794,7.362a11.549,11.549,0,0,0,1.489,2.133c.918.841.053,2,.739,2.877l3.016-4.23c-.344-.83-.414-1.479-.774-1.782a3.714,3.714,0,0,1-.746-4.892c.777-1.491-.807-1.854-.777-2.855-2.4-.728-2.86-3.1-4.078-4.828a5.1,5.1,0,0,1-1.037-4.033c.414-1.968-.586-3.706-.8-5.568-.094-.825-1.1-1.545-1.634-2.238h-2.86c-2.246-2.153-1.837-5.837-5.1-7.59h-3.3c-.928-1.416-1.808-2.755-2.645-4.029h-1.963a7.4,7.4,0,0,0-3.128,6.738,5.347,5.347,0,0,0,1.084.115c4.9-.585,8.488,3.826,8.6,8.542A37.176,37.176,0,0,0,113.306,33.8ZM91.788,77.961a4.663,4.663,0,0,0-5.068-3.255,2.531,2.531,0,0,1-1.191-.43c-2.9-1.568-5.142-3.637-4.7-7.288a4.99,4.99,0,0,0-1.413-3.926c-.552-.689-.7-.8-2.655-1.372-.676,4.593,1.413,7.914,4.767,10.589-.832,2.142-.91,3.1.123,4.3A8.09,8.09,0,0,0,87.3,79.561a2.576,2.576,0,0,0,2.174-.637A7.181,7.181,0,0,1,91.788,77.961Zm7.764-63.929c.174,2.68.411,3.071,2.594,4.4v-4.4ZM128.984,57.4l-.407.024a24.936,24.936,0,0,1-.123,2.641,25.689,25.689,0,0,1-.6,2.527l2.127-1.827Z"/>
    <path class="cls-1" d="M33.1,66.437a7.254,7.254,0,0,1,4.805-2.114,23.8,23.8,0,0,0,2.821-.626,14.265,14.265,0,0,1,2.757-.013,6.28,6.28,0,0,0,3.417-.367,7.154,7.154,0,0,1,4.411-1.047,17.642,17.642,0,0,0,4.472-.036c1.88-.372,2.709,1.328,4.168,1.683.724,2.523,3.235,3.154,4.975,4.547,3.35,2.68,6.184,5.65,7.36,9.887a16.379,16.379,0,0,1,.213,2.332c.107.858-.394,1.826.515,2.562a1.049,1.049,0,0,1,.149.94c-.975,2.586-1.067,5.4-2.909,7.8-1.748,2.274-2.954,4.978-4.6,7.4-1.828,2.686-4.387,4.577-6.488,6.942a2.375,2.375,0,0,1-1.679.838c-2.285-.272-4.4.635-6.621.731a7.5,7.5,0,0,1-2.186-.5c-1.446-.38-2.846-1.15-4.495-.934A5.057,5.057,0,0,1,41.4,105.8c-2.86-1.508-6.085-2.432-8.255-5.091A16.7,16.7,0,0,0,30.7,98.269c-4.133-3.336-5.385-8.3-7.2-12.9a10.986,10.986,0,0,1-.386-5.07,10.419,10.419,0,0,1,1.664-4.818c1.135-1.655,1.331-3.965,3.485-4.9v1.382a10.46,10.46,0,0,0-2,2.422c-.8,1.968-2.043,3.8-2.145,6.021a21.6,21.6,0,0,0,1.9,8.885c1.2,3.044,2.187,6.479,5.731,7.933a.484.484,0,0,1,.24.242c.927,2.408,3.121,3.446,5.081,4.85,1.324-.886,2.559-1.761,3.846-2.55.515-.316,1.1-.352,1.17.532a15.9,15.9,0,0,1-1.824,1.444,19.379,19.379,0,0,1-2.3,1c.325.327.685.959.971.927,1.586-.173,2.551,1.172,3.912,1.456,1.389.289,2.807.442,4.2.716.838.165,1.642.514,2.481.667,2.723.5,5.311-.677,8-.721a2.809,2.809,0,0,0,1.68-.879c2.908-2.92,6.093-5.589,7.8-9.542a26.085,26.085,0,0,1,3.27-5.536,3.266,3.266,0,0,0,.614-3.322,31.777,31.777,0,0,1-3.277.609c-.21.02-.483-.641-.707-.961,1.629-.4,3.012-.674,4.345-1.1.288-.092.4-.723.6-1.107a8.16,8.16,0,0,1-5.537,1.124c.07,4.874-3.4,8.031-4.861,11.783.523.93.988,1.663,1.342,2.446.11.242-.08.618-.132.928l-1.776-.842a3.1,3.1,0,0,0-.921-1.875c-.649-.506-1.329-1.092-2.022-1.687.3.745.635,1.578.982,2.44a6.359,6.359,0,0,1,1.04-.753c-.054,1.572-.435,1.953-2.2,2.116.194-1.059.46-2.235-1.334-2.762a14.165,14.165,0,0,0,1.334,2.762c-.03.8-.563,1.125-1.4,1.417a13.992,13.992,0,0,1-5.085.632c-.543,1.5.508,3.246-1.351,4.119-.146-.405-.291-.805-.4-1.109l-1.863.359c.553-1.173.994-2.109,1.427-3.026-2.7-1.45-5.45-2.429-7-5.06a1.854,1.854,0,0,1,.014-.684,2.789,2.789,0,0,1,.653-1.1,1.711,1.711,0,0,0,.679-1.82,1.327,1.327,0,0,0,.1.1l.565-.482-.219-.218a3.92,3.92,0,0,0-.444.6c-.819-.015-.868-.694-.516-1.086a6.065,6.065,0,0,0,1.926-3.721H42.78l1.855-1.878c-1.647-.23-3.039-.666-3.672.671-.8,1.7-2.542,1.99-3.711,3.084-.119,1.5.475,2.341,2.073,2.269a1.91,1.91,0,0,0,.7,1.794,4.458,4.458,0,0,1,.679,1.5A13.928,13.928,0,0,1,36.63,91.88a13.2,13.2,0,0,0-2.818-3.628,6.085,6.085,0,0,1-1.884-6.981,18.311,18.311,0,0,0,1.152-7.153,37.594,37.594,0,0,1,3.3-2.271,41.324,41.324,0,0,1,3.805-1.641c-.663-1.3-1.411-2.439-.314-3.987a3.655,3.655,0,0,0,2.1,3.673c2.753,0,5.611.461,8.227-.136a31.629,31.629,0,0,1,6.971-.506c.909-.008,2.461.337,2.623.86.672,2.179,3.176,2.776,3.857,4.961A2.361,2.361,0,0,0,66.277,76.8a5.07,5.07,0,0,0,.036.722c-.009-.013-.054-.059-.1-.1l-.566.483.219.217a3.852,3.852,0,0,0,.445-.6c.425-.031.885-.031,1.346-.031a5.076,5.076,0,0,0,.036.723.952.952,0,0,0-.1-.1l-.564.481.217.218a3.833,3.833,0,0,0,.446-.595c.19-.032.421,0,.64-.04a3.28,3.28,0,0,0,.587-.218,2.589,2.589,0,0,0-.591-.449,1.977,1.977,0,0,0-.672-.016c-.059-1.034-.858-.587-1.382-.691a3.17,3.17,0,0,1,2.764-1.382c.1.523-.342,1.323.947,1.355.116,0-.025.019-.166.042a9.3,9.3,0,0,1-.334,1.928c-.607,1.525-2.318.305-3.1,1.032v4.516c2.472.489,4.042-.751,5.43-2.379a39.447,39.447,0,0,0-1.831-5.139c-.359-.5.087-1.3-.947-1.355.138-.959-.25-1.609-1.5-2.1-.222.41-.521.96-.82,1.51-.147-.079-.3-.16-.444-.239,0-.415,0-.829.043-1.3.685-.851.685-.851.043-2,0,.775,0,1.412-.043,2-.567-.051-1.367.395-1.425-.638.947-.695.947-1.379,0-2.074-.65-.765-1.156-1.8-1.979-2.245C60.771,67.167,59.4,65.2,57.6,63.672c-2.179,0-4.364.013-6.549,0a10.856,10.856,0,0,0-4.557.665c-1.358.586-2.8,1.395-4.274.062a1.454,1.454,0,0,0-1.334,0c-1.88,1.124-4.422.17-6.1,2.005C34.525,66.683,33.681,66.437,33.1,66.437Zm4.838,22.114H35.87c.808-1.318,2.093-1.447,3.518-1.454l-.135.134.481.565.218-.218a1.972,1.972,0,0,0-.627-.409c.654-.46,1.28-1.255,1.967-1.311,1.325-.109,2.037-.532,2.3-1.874a5.97,5.97,0,0,1,.932-1.653h1.026c-.769,1.516-1.171,2.949-.042,4.577a21.516,21.516,0,0,1,1.684,3.735c1.172-1.173,2.293-2.294,3.194-3.194l5.027-.965c.865.694,1.721,1.381,2.579,2.1.847.5,1.486,1.342,2.66,1.384a23.673,23.673,0,0,1,3.256.564l1.057-2.113C62.59,86.3,58.809,85.1,58.1,86.049l1.591,2.378c-.845.077-1.274.116-1.707.124a17.656,17.656,0,0,0-6.6-9c-1.052,1.609-2.829.809-4.255,1.254C45.794,77.766,44.4,74.752,44,71.447H39.325v1.21l-.707-.414c-2.43.566-4.376,1.494-4.774,3.73.378,1.145.671,2.035.958,2.9.985,0,1.905-.02,2.822.007.756.021,1.509.1,2.264.15l-.014.583h-6.1c.059.554.092.867.125,1.178h7.708c-1.18-.783-.867-1.742-.9-2.609a10.139,10.139,0,0,0,1.445-.072l-.136.135.483.564.218-.218a2,2,0,0,0-.627-.409l-1.383-2.073.691-.691c2.255.712,2.978,2.806,4.132,4.6-.449.308-.88.83-1.356.875a6.975,6.975,0,0,1-2.005-.383L41.9,81.641c-2.472,0-4.976.05-7.477-.024-1.1-.033-1.663.449-2.219,1.86l1.024.754c1.5-.215,2.559-.369,3.619-.516.961-.134,1.892.149,2.892-.58a3.418,3.418,0,0,1,3.337.353,20.714,20.714,0,0,1-4.174.863,14.385,14.385,0,0,0-6.029,1.192c1.045,1.049,2.024,2.029,3,3.008.7.947,1.378.947,2-.062.046.044.09.089.135.135q.282-.242.565-.482l-.218-.219A2.017,2.017,0,0,0,37.943,88.551Zm24.219,3.373-2.683.347,2.554,1.314a7.337,7.337,0,0,0,.025-1.641l.135.135.565-.482c-.073-.072-.146-.146-.218-.218A2.017,2.017,0,0,0,62.162,91.924ZM50.382,76.112c1.115-.814.964-2.169,1.356-3.28.374-1.063.9-1.71,2.1-1.557a20.427,20.427,0,0,1-1.506,4.495,4.475,4.475,0,0,0-.44,3.145l1.255-.73c.025.726-.21,1.667,1.111,1.316.552-1.124.157-2.721,1.654-3.389.1.524-.343,1.323.691,1.382.233.922-.392,1.411-.922,2a5.545,5.545,0,0,0-.589,1.6c1.541-.766,1.916-2.524,3.584-2.225a22.536,22.536,0,0,0-1.31,2.136l-.135-.135-.564.482.217.218a1.96,1.96,0,0,0,.409-.628c2.309-.772,4.617-1.546,6.886-2.306.209-2.092-2.583-2.515-2.228-4.377-1.739-1.121-2.108.978-3.275,1.155-.448-1.385,1.251-1.719,1.418-2.85l-2.071-2.05-1.42.754-.9-1.348-1.861,1.348c-.554-1.463-1.691-.37-2.5-.625-1.3,1.69-.916,3.612-1.041,5.286-1.1.75-.411,1.808-.532,2.653a3.319,3.319,0,0,0,.532.176C50.3,77.842,50.3,76.977,50.382,76.112ZM46.926,92.7a12.738,12.738,0,0,0-.973-1.944c-.124-.176-.708-.027-1.313-.027l1.066,1.146-2.882,5.019,2.029.644v1.243c1.649.023,2.688,2.06,4.748,1.36V97.1a5.16,5.16,0,0,1-2.014-3.864C47.588,93.056,47.158,92.875,46.926,92.7Zm12.591-.535L55.266,87.45l-4.032.595c-.732.732-1.464,1.465-2.132,2.132v5c.994.5,1.829.979,2.712,1.344.491.2,1.337.492,1.545.277a4.108,4.108,0,0,1,3.612-1.382c.086.01.193-.361.325-.528C57.979,94.037,58.673,93.2,59.517,92.162Zm-3.608-9.629a6.527,6.527,0,0,0,4.4,2.618,29.863,29.863,0,0,1,4.6,1.443c-.049-2.355.059-4.356-.074-6.279C61.557,79.918,59.383,82.26,55.909,82.533Zm-7.482-11.2v4.019h1.146V71.338Zm2.354,29.707.87-.041a23.05,23.05,0,0,0,.06-2.935c-.02-.226-.706-.392-1.582-.841C50.628,98.858,49.975,100.086,50.781,101.045ZM54.4,97.656l-.442-.015v2.5h2.677c-.063-.469-.1-.777-.148-1.107l-1.8.674C54.573,98.908,54.486,98.282,54.4,97.656Zm5.824-1.016,1.421-2.166-2.7-1.217C59.443,94.575,59.732,95.34,60.223,96.64ZM47.248,76c.874-1.752-.349-3.093-.6-4.962C45.566,73.107,47.158,74.432,47.248,76ZM44.973,73.24l.612-.061q-.131-.9-.261-1.81l-.351.036Zm7.6,27.643.613-.061q-.13-.9-.262-1.811l-.351.038Zm-2.71,2.872h.346v-1.382h-.346ZM55.338,98.1l.592-.039-.252-1.154-.34.046ZM44.063,80.012l-.245-.444c-.077.076-.23.17-.217.226a2.168,2.168,0,0,0,.217.464Z"/>
    <path class="cls-1" d="M105.339,73.875l-4.833,1.034q-1.218-1.544-2.44-3.094c-.68-.865-2.494-1.341-3.984-1.255a26.3,26.3,0,0,1-5.174-.017c-3.844-.546-6.936-5.221-4.676-8.651.107-.162,0-.635.049-.642,1.928-.31,2-2.062,2.615-3.743-1-.749-2.289-1.566-3.4-2.573-1.261-1.145-2.764-1.857-3.776-3.518a5.117,5.117,0,0,1-.316-5.544,15.583,15.583,0,0,1,2.1-3.5c-.091.849.089,1.874-.327,2.511a7.865,7.865,0,0,0-.95,5.753l7.336,5.832v3.4L84.3,63.69a8.041,8.041,0,0,0,2.8,4.594c1.085.873,1.988,1.069,3.891.945,1.95-.127,3.914-.028,6.087-.028l4.223,4.258,3.634-1.022c.213-2.617-.779-5.095-1.116-7.653-.324-2.452-2.163-4.6-1.381-7.585a7.706,7.706,0,0,1,1.132,1.747,63.937,63.937,0,0,1,2.121,9.84,19.287,19.287,0,0,0,.664,2.481,25.947,25.947,0,0,1,.672,3.17c.114,1.022-.158,2.108.057,3.1.832,3.837.949,7.818,2.1,11.565a21.053,21.053,0,0,0,3.1,6.281,11.4,11.4,0,0,0,4.809,4.08c3.633,1.25,7.143,3.208,11.38,3.326-.571.323-1.3,1.052-1.689.9-2.312-.905-4.941-.508-7.143-1.96-1.307-.862-3.022-1.09-4.377-1.9-4.527-2.695-6.233-7.27-7.494-12.007a38.585,38.585,0,0,1-1.465-9.781A20.345,20.345,0,0,0,105.339,73.875Z"/>
    <path class="cls-1" d="M70.613,116.3a43.826,43.826,0,0,1-2.676,4.729,11.209,11.209,0,0,0-1.751,3.791c-.6,2.14-1.773,4.071-2.186,6.355a22.471,22.471,0,0,0,.089,8.158,22.956,22.956,0,0,0,3.481,8.619c.553.919,1.523.676,1.986,1.513a10.327,10.327,0,0,0,1.9,1.987c.914-.954-.036-1.4-.535-1.917-.777-.815-1.762-1.532-.916-2.855,4.758,6.281,6.87,6.574,13.254,6.127.562-.764,1.24-1.687,1.919-2.608.79-1.35-.1-3.2,1.063-4.864l-1.164-.114v2.928c-1.6,1.515-3.436,1.179-5.471,1.232-.73-1.013-1.55-2.153-2.369-3.291l1.37-2.636v3.4c2.888,2.6,4.8,2.76,5.639-1.253a11.427,11.427,0,0,0-2.655-1.015c-.936-.12-1.706-.222-2.124-1.307,1.993.191,3.931.449,5.878.543a40.8,40.8,0,0,1,5.785.389l-3.914,1.078c-.686,1.469.493,3.258-.9,4.523.362,1.736-1.066,2.493-2.069,3.245a7.215,7.215,0,0,1-3.307,1.115,15.185,15.185,0,0,1-7.144-1.054,11.546,11.546,0,0,0-2.127-.379,21.206,21.206,0,0,1-3.042-2.117,12.218,12.218,0,0,1-2.551-3.062c-1.722-3.305-3.169-6.564-3.318-10.4-.132-3.393.118-7.527,1.51-10.227a16.73,16.73,0,0,0,.668-1.8C66.217,121.822,67.642,118.582,70.613,116.3Z"/>
    <path class="cls-1" d="M140.222,109.974a4.3,4.3,0,0,0,.508,1.5c2.709,3.075,2.251,6.812,2.226,10.447a2.521,2.521,0,0,1-.678,1.423c-.8.934-1.683,1.793-2.451,2.6-1.274-.261-1.256-1.252-.632-1.366,2.035-.367,1.694-1.773,1.718-3.1a9.809,9.809,0,0,0-8.66-3.915,5.84,5.84,0,0,1-3.921-1.276,4.38,4.38,0,0,1-1.259-3.932,27.638,27.638,0,0,0,.018-2.911h2.719c-.528,4.607,3.427,4.139,6.266,5.284v-1.3c.461.163,1.244.23,1.326.5a3.68,3.68,0,0,0,2.129,2.259q.346.345.691.692l.962,2.875c.547-.589.849-.915.97-1.044-.207-1.264-.346-2.323-.576-3.361-.049-.22-.434-.365-.664-.544-.1-.524.342-1.323-.692-1.382a16.518,16.518,0,0,0-2.576-4.322,2.686,2.686,0,0,1-.674-1.919,4.314,4.314,0,0,1,1.465.712C139.038,108.583,139.048,109.767,140.222,109.974Zm-10.669,6.288,1.957-.384-1.857-.762,1.817-.632a11.7,11.7,0,0,1-1.856-1.7,12.782,12.782,0,0,1-.957-2.629C128.45,113.915,128.45,113.915,129.553,116.262Zm9.833,1.777c-.834-.486-.908-2.159-2.914-1.666C137.622,117.082,137.864,118.308,139.386,118.039Zm-4.131-1.27c-1.074-.484-2.178-.791-3.214,0Z"/>
    <path class="cls-1" d="M87.7,107.9a4.651,4.651,0,0,1,4.22.064,13.393,13.393,0,0,1,3.064,2.589c1.595,1.765,2.764,3.5,2.379,5.943-.152.971,1.684,1.921.013,2.88.521,2.222-1.514,3.281-2.166,5.11H88.1c.446.943.712,1.508.98,2.073a1.467,1.467,0,0,1-1.744-.743,9.944,9.944,0,0,1-.405-1.98h3.312c.714-1.875-.3-3.21-1.04-4.486.325-.632.619-1.2.951-1.853a3.577,3.577,0,0,1,.891.334,2.133,2.133,0,0,1,.555,3,1.847,1.847,0,0,0,.529,2.86c.606.455,2.551-.263,3.16-1.089.449-.612.8-1.3,1.392-2.268,0-1.2-.038-2.8.011-4.4a4.587,4.587,0,0,0-1.412-3.567,9.046,9.046,0,0,1-1.345-1.516,3.168,3.168,0,0,0-2.5-1.572c-4.118-.451-7.525,1.136-10.539,3.729-1.305,1.123-2.423,2.46-3.685,3.638a8.647,8.647,0,0,0-2.584,5.822,8.989,8.989,0,0,1-1.236,3.692c-.561-3.566.64-6.448,2.147-9.14a18.414,18.414,0,0,1,6.779-6.773,28.593,28.593,0,0,1,4.482-1.668A4.008,4.008,0,0,0,87.7,107.9Zm2.753,12.282.723-.02c-.085-.365-.168-.731-.265-1.092a.429.429,0,0,0-.218.016C90.6,119.45,90.53,119.817,90.453,120.183Z"/>
    <path class="cls-1" d="M115.411,134.363a22.785,22.785,0,0,1,5.613,7.088c1.6,2.971,3.123,6.127,5.9,8.006.65,1.784-.736,2.37-1.516,3.365-2.945,0-6.053.529-8.862-.157-2.587-.631-5.48-.221-7.8-1.917-2.947.27-5.406-1.376-8.111-2.047a43.027,43.027,0,0,1-7.543-3.159c1.747-.9,3.05.307,4.265.8,3.879,1.563,7.9,2.6,11.89,3.766a34.364,34.364,0,0,0,10.475,1.385c1.232-.025,2.383,1.112,3.771.451a23.754,23.754,0,0,1,2.293-.809c-1.08-3.213-3.668-5.5-5.219-8.433C119.058,139.842,117.034,137.21,115.411,134.363Z"/>
    <path class="cls-1" d="M124.028,98.867h-2.523a48.283,48.283,0,0,1-4.014-3.046,13.6,13.6,0,0,1-2.444-3.112,28.165,28.165,0,0,1-3.878-13.23c-.034-.833-.53-1.64-.614-2.48-.032-.322.491-.7,1.028-1.4.6,2.149-.164,4.071,1,5.6-.412,3.193,1.169,5.985,2.208,8.747,1.082,2.874,3.47,5.131,6.118,6.9C121.8,97.439,122.71,98.014,124.028,98.867Z"/>
    <path class="cls-1" d="M86.6,135.262c2.843,1.012,5.011,1.774,7.172,2.556a36.421,36.421,0,0,1,5.037,1.921c1.619.878,3.485.769,5.115,1.826,1.252.812,3.159.578,4.752.915a3.46,3.46,0,0,1,1.763,1.12,36.849,36.849,0,0,1-7.492-1.424c-5.174-1.581-10.095-3.892-15.334-5.286C87.317,136.811,87.164,136.2,86.6,135.262Z"/>
    <path class="cls-1" d="M113.186,107.209a12.352,12.352,0,0,1-7.851-2.825c-2.152-1.593-2.412-2.276-3.67-4.974-.627-1.343-1.328-2.654-1.909-4.017a13.2,13.2,0,0,1-.446-2.345,6.235,6.235,0,0,1,2.254,3.517c1.352,4.328,4.465,7.118,8.418,9.1C111.035,106.187,112.68,105.073,113.186,107.209Z"/>
    <path class="cls-1" d="M91.236,128.3a17,17,0,0,1,3.043,1.074c3.357,2.127,7.186,3.1,10.824,4.541a3.259,3.259,0,0,0,1.611.218c1.411-.22,2.551.409,4.016,1.144-3,.66-5.486-.119-8.062-.933-2.128-.673-4.125-1.67-6.232-2.39A12.433,12.433,0,0,1,91.236,128.3Z"/>
    <path class="cls-1" d="M76.138,130.909c-4.4,3.465-6.241,8.084-6.126,13.629-.324-.759-1-1.565-.9-2.267a20.36,20.36,0,0,1,1.4-5.926c.92-1.952,2.487-3.6,3.818-5.445-.107-.277-.311-.808-.539-1.4C75.27,129.086,75.586,129.959,76.138,130.909Z"/>
    <path class="cls-1" d="M87.7,107.9a23.854,23.854,0,0,0-10.621,2.69,12.253,12.253,0,0,0-2.149,1.468c-1.534,1.341-3.008,2.752-4.507,4.135,0-.23-.1-.533.015-.68,3.011-3.974,6.474-7.244,11.822-7.637.837-.061,1.639-.52,2.48-.642a10.121,10.121,0,0,1,2.41.007C87.353,107.261,87.518,107.671,87.7,107.9Z"/>
    <path class="cls-1" d="M103.944,67.472c-.666.211-.969.306-1.342.423-1.759-4.383-5.871-6.691-8.552-10.07V55.879A91.387,91.387,0,0,1,103.944,67.472Z"/>
    <path class="cls-1" d="M96.06,81.228l.983-.984c.669.941,1.315,1.849,2.024,2.848,1.091-1.525-.664-3.793,1.764-4.975,0,.83.266,1.726-.047,2.316-1.244,2.35-.741,4.394.717,6.394.109.149.014.446.014.672-1.587-.63-1.511-.682-2.78-2.728C97.954,83.512,96.951,82.393,96.06,81.228Z"/>
    <path class="cls-1" d="M86.663,46.072c1.835.758,3.229.978,4.114,1.767,2.477,2.207,4.752,4.642,7.079,7.014.189.193.167.594.343,1.3-.71-.224-1.379-.226-1.561-.525-2.32-3.8-5.812-6.307-9.428-8.688A6.268,6.268,0,0,1,86.663,46.072Z"/>
    <path class="cls-1" d="M91.911,26.37a8.394,8.394,0,0,1,1.063.113c.044,1.991,1.786,3.14,2.4,4.883a34.565,34.565,0,0,0,2.678,4.745c.443.814,1.276,1.64.192,2.878C96.34,34.7,93.419,31.076,91.911,26.37Z"/>
    <path class="cls-1" d="M102.63,38.086c.553,2.517,1.021,5.056,1.681,7.545.61,2.3,1.468,4.545,1.935,6.887C104.023,47.946,101.632,43.419,102.63,38.086Z"/>
    <path class="cls-1" d="M135.869,102.279c.033,2.917-1.521,4.578-4.37,4.934-1.067.134-2.128.307-3.526.511l-1.053-1.477a3.9,3.9,0,0,1,.756-.4c1.443,1.572,2.944.235,4.258-.108,1.339-.348,3.179-.8,2.807-3.027A5.854,5.854,0,0,1,135.869,102.279Z"/>
    <path class="cls-1" d="M99.891,89.138l-8.838-8.095c1.347-.227,2.18.558,3,1.118a32.443,32.443,0,0,1,2.53,2.238,15.266,15.266,0,0,1,2.145,1.76,17.169,17.169,0,0,1,1.5,2.731Z"/>
    <path class="cls-1" d="M136.244,89.267c1.235,4-.556,7.691-1,11.516-.97-1.324-.885-1.328-.8-1.977.129-.992-.211-2.436.328-2.905,1.168-1.013.172-2.372,1.04-3.444C136.389,91.745,136.129,90.355,136.244,89.267Z"/>
    <path class="cls-1" d="M109.58,53.914c-.664-5.444-.664-5.444,2-11.02l1.2.261C111,46.623,109.23,49.978,109.58,53.914Z"/>
    <path class="cls-1" d="M121.836,148.947c-.552.247-.756.425-.939.405-1.759-.2-7.29-2.773-8.292-3.9-.121-.138.117-.594.195-.927Z"/>
    <path class="cls-1" d="M95.3,44.049c2.734,2.323,3.829,5.49,5.715,8.752-.777-.331-1.319-.39-1.546-.688-1.611-2.117-2.235-4.841-4.147-6.792C95.155,45.148,95.3,44.663,95.3,44.049Z"/>
    <path class="cls-1" d="M95.3,44.811l-6.233-7.28c.524.08,1.124-.011,1.354.238,1.668,1.8,3.277,3.661,4.856,5.542C95.449,43.513,95.3,43.979,95.3,44.811Z"/>
    <path class="cls-1" d="M105.4,29.939c-.066,2.257.977,4.626-.932,7.318C104.388,34.349,103.666,32.037,105.4,29.939Z"/>
    <path class="cls-1" d="M118.745,69.493c3.786,3.786,4.183,4.5,3.822,6.833C121.494,74.013,119.4,72.466,118.745,69.493Z"/>
    <path class="cls-1" d="M102.59,95.361,98.106,90.1a3.337,3.337,0,0,1,3.194,1.4,25.76,25.76,0,0,1,1.691,3.66Z"/>
    <path class="cls-1" d="M84.118,134.634a7.168,7.168,0,0,1-5.946-3.083A13.773,13.773,0,0,1,84.118,134.634Z"/>
    <path class="cls-1" d="M135.217,112.862c-3.007-.335-2.655-2.808-4.45-3.655.668-.347.92-.494,1.186-.608.093-.039.285-.044.324.012C133.138,109.835,133.983,111.069,135.217,112.862Z"/>
    <path class="cls-1" d="M28.267,70.583a4.42,4.42,0,0,1,.5-1.488c.8-.955,1.723-1.8,2.563-2.658H33.1c-1.181,1.065-2.352,2.141-3.546,3.19C29.158,69.98,28.7,70.266,28.267,70.583Z"/>
    <path class="cls-1" d="M97.96,75.137c-1.294-.792-3.332-.322-4-2.183C95.443,73.424,97.475,72.768,97.96,75.137Z"/>
    <path class="cls-1" d="M139.531,116.194c.081-1.274-.807-2.147-1.515-3.591l2.206.827c.1.524-.342,1.323.692,1.382-.264.681.64,1.749-.692,2.074Q139.877,116.538,139.531,116.194Z"/>
    <path class="cls-1" d="M139.786,106.463a4.361,4.361,0,0,1,1.792,3.962C140.141,109.675,139.661,108.639,139.786,106.463Z"/>
    <path class="cls-1" d="M112,143.034v-6.587c.889,1.5.49,2.581.56,3.578s.015,2,.015,3.007Z"/>
    <path class="cls-1" d="M101.853,38.272c-.329-1.683-.628-3.211-.944-4.83l.845-.217C102.4,33.718,102.41,34.351,101.853,38.272Z"/>
    <path class="cls-1" d="M135.73,111.357c-.57-.57-1.138-1.14-1.616-1.616v-2.409C134.757,107.332,135.8,110.125,135.73,111.357Z"/>
    <path class="cls-1" d="M109.29,68.526l-1.594-3.44c.554.129,1.272.109,1.378.354a21.88,21.88,0,0,1,.848,2.854Z"/>
    <path class="cls-1" d="M66.793,127.412h2.962c-.089.379-.087,1.007-.275,1.071C68.512,128.81,68.428,128.735,66.793,127.412Z"/>
    <path class="cls-1" d="M89.083,126.56c1.517-.1,2.156.964,2.764,2.073C90.329,128.737,89.69,127.67,89.083,126.56Z"/>
    <path class="cls-1" d="M124.583,77.163l1.682.78C124.365,78.034,124.365,78.034,124.583,77.163Z"/>
    <path class="cls-1" d="M68.265,124.769c.3,1.116-.185,1.3-1.639.759Z"/>
    <path class="cls-1" d="M111.9,143.994c-.076.367-.149.734-.24,1.1-.005.024-.213.032-.216.018-.1-.362-.181-.727-.267-1.093Q111.538,144.006,111.9,143.994Z"/>
    <path class="cls-1" d="M82.3,126.678h1.146c.017.114.032.227.048.341l-1.167.254Z"/>
    <path class="cls-1" d="M110.388,70.019v1.146l-.341.047c-.083-.386-.167-.77-.251-1.155Z"/>
    <path class="cls-1" d="M136.014,113.5l-.566-.483.218-.217.482.564Z"/>
    <path class="cls-1" d="M137.162,37.928c.987,2.3-1.274,3.03-1.7,4.533a35.033,35.033,0,0,1-2.031,4.479C132.967,42.778,135.5,40.677,137.162,37.928Z"/>
    <path class="cls-1" d="M135.174,35.485a11.34,11.34,0,0,1-1.688,5.9A6.513,6.513,0,0,1,135.174,35.485Z"/>
    <path class="cls-1" d="M130.994,56.614l2.207-.706v2.5Z"/>
    <path class="cls-1" d="M75.729,55.26l-1.848-.9c-.084-.884.3-1.372,1.1-.924.492.273.759.947,1.127,1.44Z"/>
    <path class="cls-1" d="M77.808,26.988h-1.74V24.622C76.723,25.513,77.113,26.044,77.808,26.988Z"/>
    <path class="cls-1" d="M115.675,23.612c-.1,1.428,1.615,2.53.815,4.157C114.723,26.605,115.455,25.062,115.675,23.612Z"/>
    <path class="cls-1" d="M108.213,20.009C107.2,19,107.2,19,107.27,17.5,108.281,18.5,108.281,18.5,108.213,20.009Z"/>
    <path class="cls-1" d="M125.4,60.836c-.746-1.991-1.491-3.981-2.223-5.932a3.061,3.061,0,0,1,2.512,2.565c.106,1.109.022,2.236.022,3.355C125.606,60.827,125.5,60.832,125.4,60.836Z"/>
    <path class="cls-1" d="M118.281,35.856l1.3,1.3-1.3.881Z"/>
    <path class="cls-1" d="M85.942,77.1c.727-.564,2.186-.422,3.874.058-.058.3-.116.614-.2,1.049Z"/>
    <path class="cls-1" d="M28.818,71.756l2.8,2.756-1.651,1.5-2.676-1.622,1.429-.474c-.172-.611-.359-1.27-.545-1.927Z"/>
    <path class="cls-1" d="M39.325,92.7q.691-1.035,1.382-2.073l.691-.69c.524-.105,1.323.342,1.382-.692l.887.674c-1.088.888-1.94,1.659-2.874,2.313A5.174,5.174,0,0,1,39.325,92.7Z"/>
    <path class="cls-1" d="M30.609,95.222c1.891-.746,3.863-.331,4.431-2.533.054.607.109,1.214.161,1.781C33.064,95.385,33.064,95.385,30.609,95.222Z"/>
    <path class="cls-1" d="M36.559,94.77c.248,1.975-1.526,1.929-2.73,2.869C33.684,95.351,35.67,95.608,36.559,94.77Z"/>
    <path class="cls-1" d="M31.6,89.128H27.694C28.959,88.278,30.292,88.692,31.6,89.128Z"/>
    <path class="cls-1" d="M42.216,100.208l1.217.242c.127,1.4-.7,1.742-1.876,2.07Z"/>
    <path class="cls-1" d="M64.9,70.583v2.074l-1.132.648A1.746,1.746,0,0,1,64.9,70.583Z"/>
    <path class="cls-1" d="M31.759,91.063c-.845.338-1.689.677-2.779,1.115C29.507,90.383,30.683,90.649,31.759,91.063Z"/>
    <path class="cls-1" d="M40.209,98.487c-.828,1.871-1.718,2.058-3.124,1.554Z"/>
    <path class="cls-1" d="M31.451,73.015l-.91-1.457C31.585,71.34,31.585,71.34,31.451,73.015Z"/>
    <path class="cls-1" d="M30.905,90.587l2-1.3C33.47,90.628,32.642,90.665,30.905,90.587Z"/>
    <path class="cls-1" d="M27.577,87H26.194V86.65h1.383Z"/>
    <path class="cls-1" d="M41.4,89.242c.059-1.034.859-.587,1.382-.691v.691Z"/>
    <path class="cls-1" d="M34.6,89.606c-.249.877-.368,1.293-.487,1.709a5.715,5.715,0,0,1-.3-.968C33.805,90.246,34.061,90.106,34.6,89.606Z"/>
    <path class="cls-1" d="M31.742,93.234l-1.321.114-.06-.447,1.35-.264C31.721,92.836,31.732,93.035,31.742,93.234Z"/>
    <path class="cls-1" d="M33.1,92.007c-.059,1.034-.858.586-1.382.69C31.782,91.663,32.582,92.111,33.1,92.007Z"/>
    <path class="cls-1" d="M36.488,94.709c.161-.189.322-.377.482-.566l.218.218-.565.483Q36.556,94.775,36.488,94.709Z"/>
    <path class="cls-1" d="M33.1,92.007q.345-.347.692-.692Q33.451,91.662,33.1,92.007Z"/>
    <path class="cls-1" d="M47.618,82.331c1.72.616,2.006,2.316,2.884,3.5-.608.949-1.052,1.04-1.513.118a5.13,5.13,0,0,0-.68-.851c-.075-.421-.126-.848-.232-1.261C47.948,83.328,47.773,82.833,47.618,82.331Z"/>
    <path class="cls-1" d="M47.463,86.874c-.555-1.148-.949-1.964-1.344-2.78,1.034.281,1.931.664,2.15,1.693C48.318,86.017,47.863,86.356,47.463,86.874Z"/>
    <path class="cls-1" d="M45.545,82.331c.694-.947,1.378-.947,2.073,0Z"/>
    <path class="cls-1" d="M41.4,75.421h-.691V74.038C41.741,74.1,41.294,74.9,41.4,75.421Z"/>
    <path class="cls-1" d="M40.707,74.038l-.691-.69Z"/>
    <path class="cls-1" d="M40.016,73.348l-.691-.691Z"/>
    <path class="cls-1" d="M40.707,75.421v.691a4.81,4.81,0,0,1-3.833-2.3C38.859,73.363,39.478,75.011,40.707,75.421Z"/>
    <path class="cls-1" d="M36.926,76l1.848,1.063C37.535,78.087,37.179,76.9,36.926,76Z"/>
    <path class="cls-1" d="M39.033,77.387l1.674.476a5.743,5.743,0,0,1-.968.3C39.64,78.176,39.5,77.915,39.033,77.387Z"/>
    <path class="cls-1" d="M58.675,78.876q-.313-1.7,1.382-1.382Q59.367,78.185,58.675,78.876Z"/>
    <path class="cls-1" d="M60.094,78.313c-.078-1.738-.04-2.566,1.3-2.006Z"/>
    <path class="cls-1" d="M56.6,77.494l.69-.691Z"/>
    <path class="cls-1" d="M57.292,76.8q.348-.345.692-.691Q57.639,76.459,57.292,76.8Z"/>
    <path class="cls-1" d="M57.984,76.112l.691-.691Z"/>
    <path class="cls-1" d="M54.529,74.73c-.056-1.18-.147-2.378,1.382-2.765A3.177,3.177,0,0,1,54.529,74.73Z"/>
    <path class="cls-1" d="M53.146,78.185c.264-.681-.64-1.749.691-2.073C53.574,76.792,54.479,77.86,53.146,78.185Z"/>
    <path class="cls-1" d="M53.837,76.112c.1-.524-.342-1.324.692-1.382C54.425,75.254,54.871,76.053,53.837,76.112Z"/>
    <path class="cls-1" d="M55.838,76.05l.483-.566.217.218-.564.483Z"/>
    <path class="cls-1" d="M55.911,71.965l.691-.69Z"/>
    <path class="cls-1" d="M44.853,97.535c-.07-1.939.059-3.792,2.073-4.838C46.536,94.439,46.247,96.224,44.853,97.535Z"/>
    <path class="cls-1" d="M39.325,90.624A1.7,1.7,0,0,1,41.4,89.242v.692l-.691.69Z"/>
    <path class="cls-1" d="M39.4,90.687c-.16.188-.321.376-.481.565-.073-.074-.145-.146-.218-.218l.565-.482Z"/>
  </g>
</svg>
