<svg id="圖層_1" data-name="圖層 1" xmlns="http://www.w3.org/2000/svg" viewBox="0 0 166 166">
  <defs>
    <style>
      .cls-1 {
        fill: #d3bc31;
      }
    </style>
  </defs>
  <title>2018-07-29-YOLO-關於我們-精稿</title>
  <g>
    <path class="cls-1" d="M83.725,18.588c-.818.656-.9-.362-1.222-.288-1.969.449-3.664-.858-5.586-.784-2.446.1-4.929-.216-7.346.072a48.224,48.224,0,0,0-14.653,3.649A14.851,14.851,0,0,0,52,23.056c-1.491,1.17-2.462,2.966-4.385,3.635a1.292,1.292,0,0,0-.519.509c-1.135,1.612-2.379,3.162-3.358,4.864-1.643,2.854-3.416,5.683-3.913,9.036-.192,1.288.068,2.739-.438,3.864-.845,1.874.283,3.539.093,5.307-.207,1.916.858,3.55,1.315,5.307a5.546,5.546,0,0,0,1.515,2.7A49.82,49.82,0,0,0,46.5,62.407a9.253,9.253,0,0,1,3.166,6.041c.99,6.3,5.121,10.4,9.286,14.564,2.1.2,2.85,2.292,4.516,3.249a53.108,53.108,0,0,0,10.422,5.068c1.991.625,3.964,1.526,6.095,1.232C83.672,92.053,86.837,93.6,90.015,95,92.3,96,94.34,97.775,96.7,98.343c2.433.587,5.117.147,7.691.126a30.778,30.778,0,0,0,7.8-.662,23.018,23.018,0,0,0,10.451-6.879,45.8,45.8,0,0,0,4.011-5.708,28.558,28.558,0,0,0,2.569-8.5,37.608,37.608,0,0,0,.714-3.743c.394-4.412-.886-8.568-2.231-12.673a15.061,15.061,0,0,0-1.985-3.217c-.13-.2-.382-.326-.507-.529-3.163-5.127-8.056-7.87-13.569-9.814,1.809-.58,1.756-.406,3.045-.007a24.022,24.022,0,0,1,9.784,6.4c2.6,2.631,5.362,5.675,6.022,9.548.723,4.252,1.717,8.5.317,12.971-.844,2.7-1.267,5.564-2.315,8.246-.439,1.124-3.519,6.726-4.276,7.417-1.762,1.608-3.194,3.546-5.383,4.732a51.946,51.946,0,0,1-8.612,3.215,44.326,44.326,0,0,1-7.428.722c-4.847.32-9.053-1.613-13.326-3.389-.628-.261-1.16-.747-1.785-1.015-2.143-.924-4.228-1.826-6.727-1.577-3.671.368-6.983-1.4-10.39-2.392-3.2-.935-5.9-3.014-8.615-4.907a63.756,63.756,0,0,1-6.92-5.464,22,22,0,0,1-5.982-10.368c-1.019-3.569-2.552-6.769-5.495-9.124-4.359-3.488-5.25-8.3-5.62-13.505C37.422,41,40.038,34.7,44,29.073a27.128,27.128,0,0,1,9.483-8.821c2.465-1.25,5.045-2.747,8.058-2.75a13.459,13.459,0,0,0,2.64-.687c.9-.2,1.886.334,2.747-.535.321-.322,1.136-.2,1.725-.2,2.819-.017,5.655-.191,8.452.053a33.042,33.042,0,0,1,6,1.448C83.385,17.657,83.523,18.241,83.725,18.588Z"/>
    <path class="cls-1" d="M27.468,119.78c-10.324-17.5-8.9-21.939-6.475-26.174a3.674,3.674,0,0,1,1.491-1.765,69.329,69.329,0,0,1,8.67-3.94,9.741,9.741,0,0,1,8.926,1.418c3.81,2.51,6.4,6.32,8.9,10.143,1.2,1.834,1.55,3.895,2.2,5.865.643,1.945,1.2,3.944,1.679,5.953.509,2.128.694,4.329,1.155,6.449.727,3.341-.856,6.548-2.5,9.527-1.8,3.262-4.943,4.692-8.211,5.764-6.183,2.03-11.72.3-16.617-3.592-4.436-3.524-6.571-8.671-8.452-13.755-.959-2.589-.736-5.618,9.233,4.107,12.547,12.493,14.373,12.48,16.254,11.865,4.78-1.564,7.472-5.159,8.852-9.516,1.039-3.281-.386-6.825-.914-10.206-.136-.873-.254-1.824-.443-2.725a12.116,12.116,0,0,1-.672-2.634,8.7,8.7,0,0,0-1.13-3.744c-.945-2.309-2.748-3.978-3.976-6.06a19,19,0,0,0-5.315-5.517,10.6,10.6,0,0,0-6.407-2.349c-4.345-.087-7.8,2.036-10.9,4.651a11.024,11.024,0,0,0-3.134,4.886,40.535,40.535,0,0,0-1.461,8.183,18.584,18.584,0,0,0,.764,6.982,39.62,39.62,0,0,0,4.892,11.215c1.762,2.611,4.573,3.737,6.417,6.036C32.985,130.929,35.283,133.092,27.468,119.78Z"/>
    <path class="cls-1" d="M129.553,143.8a4.7,4.7,0,0,1-3.374-.112,15.713,15.713,0,0,1-8.73-8.721c-1.5-.79-.241-2.456-1.181-3.584-.746-.9-.4-2.162.386-3.261.349-.486.051-1.429.062-2.163.018-1.461-.392-3.115.154-4.343,1.714-3.853,1.823-8.244,4.229-11.856,1.544-2.315,2.7-4.9,4.786-6.825,3.838-3.54,8.411-5.373,13.562-4.352a8.4,8.4,0,0,1,6.645,5.592c1.275,4.1,2.789,8.209,2.28,12.669a14.7,14.7,0,0,0,0,3.667c.545,3.881-.986,7.39-1.829,11.021a29.773,29.773,0,0,1-1.3,4.236c-1.368,3.444-4.259,5.678-6.743,8.244h-1.8c.083-.265.082-.518.195-.59a19.31,19.31,0,0,0,6.226-6.179,23.975,23.975,0,0,0,2.154-4.987c.506-1.481.8-3.076,1.424-4.563.636-1.514-.506-3.387.908-4.77-.356-3.084.684-6.242-.608-9.3-.35-.833-.015-1.931-.153-2.883-.129-.9-.487-1.755-.707-2.64-.8-3.184-2.087-6.258-5.173-7.607-1.518-.664-3.44-2.375-5.437-.6a9.4,9.4,0,0,0-5.614,1.531,21.173,21.173,0,0,0-7.34,8.829,22.251,22.251,0,0,1-1.46,2.7c-1.4,2.4-1.587,5.21-2.679,7.711a1.748,1.748,0,0,0-.248.627c.039,3.35-1.122,6.587-.823,9.993a8.027,8.027,0,0,0,.928,3.673C120.937,139.069,124.218,142.478,129.553,143.8Z"/>
    <path class="cls-1" d="M87.372,35.259c-2.2-5.592.831-4.151,3.778-2.289a7.426,7.426,0,0,1,3.337,5.085,17.152,17.152,0,0,1-1,9.781c-1.608,3.5-3.875,6.072-7.715,6.855-2.154.44-4.355,1.556-6.5,1.015-2.242-.566-4.543-.7-6.79-1.23-2.122-.5-4.142-1.331-6.257-1.843a5.762,5.762,0,0,1-3.458-3.163c-1.31-2.461-2.319-4.839-1.963-7.636a7.205,7.205,0,0,1,2.033-4.673c2.141-2.015,4.044-4.325,7.155-4.907.877-1.492,2.919.021,3.8-1.471,2.582-.3,5.163-.6,13.582,4.476,6.521,2.5,4.681.144,2.219-1.732-2.154-1.642-4.344-3.221-7.463-2.819-2.549.328-4.979,1.066-7.476,1.5a15.216,15.216,0,0,0-10.986,7.089c-1.617,2.511-1.93,6.212-.468,8.222.9,1.237,1.68,2.759,2.908,3.5a6.769,6.769,0,0,0,4.3,1.135c.263-.033.557.431.873.508,3.519.86,7.063,1.968,10.7,1.594,2.845-.293,5.748-.855,7.756-3.436C91.958,47.96,93.261,44.851,87.372,35.259Z"/>
    <path class="cls-1" d="M120.212,62.349c-1.391-.815-2.812-1.584-4.166-2.456a7.394,7.394,0,0,0-4.3-1.181c-3.423.053-6.793-.046-10.059,1.458-4.075,1.878-5.894,2.867-7.143,7.124a9.089,9.089,0,0,1-.8,2.234,3.2,3.2,0,0,0,.011,3.575c.366.707.5,1.721.878,2.562.578,1.288,1.06,2.838,2.372,3.359a9.776,9.776,0,0,0,4.341,1.09,9.831,9.831,0,0,1,5.808,1.875,7.2,7.2,0,0,0,7.316.219c2.322-1.141,4.659-2.444,5.3-5.567a21.31,21.31,0,0,0,.615-4.126c.017-2.307,0-4.615,0-6.936,1.612.18,1.24,1.347,1.518,2.293.988,3.375.877,4.668-.306,7.742a15.666,15.666,0,0,1-3.937,6.08,9.369,9.369,0,0,1-6.919,2.852,8.6,8.6,0,0,1-3.588-1.139,14.829,14.829,0,0,0-6.576-1.895c-2.8,0-7.184-3.536-8.136-6.431-1.411-4.288-.908-8.185,2.264-11.674a14.924,14.924,0,0,1,11.67-5.4c2.692,0,5.386.04,8.078-.01C117.437,57.94,119.139,59.647,120.212,62.349Z"/>
    <path class="cls-1" d="M103.47,43.036l5.345,2.059c-.68.473-1.135,1.047-1.643,1.1-2.506.253-5.826-2.676-5.9-5.168-.062-2.2-.116-4.413.014-6.609A8.614,8.614,0,0,0,98.621,27.8c-1.552-1.646-3.035-3.432-5.143-4.411-1.742-.808-3.571-1.428-5.333-2.2A1.776,1.776,0,0,1,87.3,20c3.21.732,6.5,1.27,9.056,3.375a18.264,18.264,0,0,1,6.493,9.792,14.818,14.818,0,0,1,.61,3.4C103.489,38.645,103.47,40.727,103.47,43.036Z"/>
    <path class="cls-1" d="M22.536,60.95H17.508v-2.1H21.9c-.2-1.133-.345-1.967-.414-2.358l.6-1.539c1.932.465,1.9,1.735,2.094,2.974l2.622.143v2.018c-.622.071-1.2.138-2.027.235v4.11c-1.383.314-2.459.528-2.246-1.274A21.63,21.63,0,0,0,22.536,60.95Z"/>
    <path class="cls-1" d="M123.094,134.709c-1.07-.257-1.726-.246-1.818-.466a8.984,8.984,0,0,1-.845-2.927,72.579,72.579,0,0,1,.021-8.409,6.289,6.289,0,0,1,2.309-4.981C121.642,123.735,119.655,129.025,123.094,134.709Z"/>
    <path class="cls-1" d="M80.819,132.268c-.106-3.517-2.535-5.809-1.268-8.97,2.213,1.336,2.065,3.894,3.193,5.739Z"/>
    <path class="cls-1" d="M104.363,76.463c-4.186.6-6.667-1.582-6.531-5.577C99.317,73.894,101.87,75.106,104.363,76.463Z"/>
    <path class="cls-1" d="M83.119,134.442c2.846.559,2.616,3.054,3.047,5.239.045-.038-.312.277-.736.652C83.631,138.838,82.341,137.117,83.119,134.442Z"/>
    <path class="cls-1" d="M84.944,132.408c-.588-.473-1.045-.843-1.579-1.274,1-1.226.843-3.168,3.256-3.262C86.248,129.535,87.435,131.376,84.944,132.408Z"/>
    <path class="cls-1" d="M74.45,130.3c.5-.62.858-1.06,1.231-1.519L80,130.374C78.068,132.736,76.433,131.269,74.45,130.3Z"/>
    <path class="cls-1" d="M81.323,133.107c.522,2.9-1.788,2.818-3.4,4.064-.107-1.064-.174-1.718-.233-2.293Z"/>
    <path class="cls-1" d="M84.035,127.271c-.343-.809-1.3-1.393-.52-2.6.4-.63-.572-2.144,1.377-1.863v4.366Z"/>
    <path class="cls-1" d="M97.184,69.129l1.766-3.567c.417.8.823,1.22.8,1.618C99.7,68.372,99.639,68.373,97.184,69.129Z"/>
    <path class="cls-1" d="M92.791,80.96c2.885.408,3.224.686,2.942,2.09C94.369,83.045,94.037,81.8,92.791,80.96Z"/>
    <path class="cls-1" d="M23.941,71.378v1.216H21.866V71.378Z"/>
    <path class="cls-1" d="M26.314,66.851c1.921-.116,1.273,1.076,1.33,2.057l-1.33.14Z"/>
    <path class="cls-1" d="M23.5,67.885l1.48-2.651a6.831,6.831,0,0,1,.972.991C26.291,66.781,26.252,66.805,23.5,67.885Z"/>
    <path class="cls-1" d="M89.38,115.756l1.095-1.963c.448.462.773.795,1.23,1.267l-1.717,1.251Z"/>
    <path class="cls-1" d="M28.542,50.4c-.676.38-1.312.736-1.951,1.1-.855-1.4.2-1.7.772-2.277Z"/>
    <path class="cls-1" d="M88.691,147.4v2.44c-.376.051-.87.256-1.006.115C86.586,148.823,87.913,148.435,88.691,147.4Z"/>
    <path class="cls-1" d="M134.97,144.7h-3.422C132.651,143.861,133.825,144.189,134.97,144.7Z"/>
    <path class="cls-1" d="M107.728,78.263a4.289,4.289,0,0,1-.536-1.3c0-.188.587-.581.658-.53a2.052,2.052,0,0,1,.729.886C108.627,77.448,108.207,77.75,107.728,78.263Z"/>
    <path class="cls-1" d="M81.24,144.436c.479.513.9.815.852.941a2.065,2.065,0,0,1-.729.886c-.072.051-.66-.344-.659-.53A4.316,4.316,0,0,1,81.24,144.436Z"/>
    <path class="cls-1" d="M90.148,144.384l1.5-.707.914.914-2.185.276C90.3,144.705,90.227,144.545,90.148,144.384Z"/>
    <path class="cls-1" d="M124.462,136.577c-.513.479-.815.9-.941.851a2.052,2.052,0,0,1-.886-.729c-.051-.071.343-.659.53-.658A4.263,4.263,0,0,1,124.462,136.577Z"/>
    <path class="cls-1" d="M25.047,120.629c1.687,2,3.372,4.006,5.549,6.594C26.379,124.961,26.379,124.961,25.047,120.629Z"/>
    <path class="cls-1" d="M67.547,45.993l4.305,4.274c-2.094,1.662-2.674-1.493-4.279-1.3-1.24-2.489-2.668-4.96-.669-7.731l.254-.041C67.284,42.743,67.41,44.293,67.547,45.993Z"/>
    <path class="cls-1" d="M75.383,51.264H73.43c-.011-.128-.023-.256-.035-.384l1.95-.274C75.357,50.826,75.371,51.045,75.383,51.264Z"/>
  </g>
</svg>
