<svg id="圖層_1" data-name="圖層 1" xmlns="http://www.w3.org/2000/svg" viewBox="0 0 166 166">
  <defs>
    <style>
      .cls-1 {
        fill: #fc0b34;
      }
    </style>
  </defs>
  <title>2018-07-29-YOLO-關於我們-精稿</title>
  <g>
    <path class="cls-1" d="M148.64,58.448a3.758,3.758,0,0,1,3.665-1.672c2.093.078,3.344,1.542,4.826,3.046-1.458,1.832-.714,4.417-2.346,6.455-1.334,1.663-1.949,3.9-3.093,6.338l2.76-.466c.87.6,2.148,1.487,3.357,2.324V79.08l-2.582,2.006c.627,3.234-.694,5.515-2.841,7.657-2.015,2.01-4.645,2.009-7.5,2.805,5.224,1.287,9.108.118,11.848-4.124-.194-.791-.424-1.728-.7-2.838.5.092.827.075.863.17.415,1.091.782,2.2,1.1,3.115-3.041,3.992-6.775,6.032-11.875,5.768a22.515,22.515,0,0,1-.048,4.186,5.652,5.652,0,0,1-3.776,4.153c-2.063.782-4.046-.264-5.672-2.266-.792-.976-1.672-1.778-1.5-3.188.014-.109-.658-.306-1.265-.573a36.861,36.861,0,0,1-4.448,12.459,23.924,23.924,0,0,1-3.653,5.177,33.035,33.035,0,0,0-4.083,4.187c-1,1.426-2.478,2.2-3.579,3.444a16.948,16.948,0,0,1-5.2,3.577c-2.537,1.3-4.911,3.024-7.567,3.955a51.927,51.927,0,0,1-8.181,2.445,66.267,66.267,0,0,1-11.331,1.074c-10.908-.011-20.667-3.6-29.6-9.4-3.3-2.141-6.888-4.406-8.638-8.345-2.655-1.664-3.517-4.714-5.206-7.089-1.438-2.022-1.889-4.769-2.66-7.233A19.793,19.793,0,0,1,38.78,94.7,47.086,47.086,0,0,0,37.7,87.976c-3.87-.84-4.8-2.625-4.611-9.09l7.4-7.405c.061-1.6.34-3.248-.794-4.653h1.342c.5-1.64,1.018-3.316,1.533-4.991.014,2.421,1.428,4.878-.334,7.149-.2.262-.058.818-.022,1.235.287,3.287-1.377,6.4-.843,9.709-1.976,3.045.29,6.763-1.56,9.828,1.331,1.68.659,3.642.679,5.472.023,1.928.962,3.528,1.41,5.291a33.265,33.265,0,0,0,1.916,5.5c3.2,7.148,8.52,12.464,14.729,16.814a38.665,38.665,0,0,0,18.51,6.845c2.752,1.78,6.138-.019,8.98,1.609a3.022,3.022,0,0,0,2.765-.165,3.411,3.411,0,0,1,2.715-.584c4.491.212,8.574-1.447,12.615-2.958A44.489,44.489,0,0,0,115.5,121.55a48.382,48.382,0,0,0,8.616-8.224c2.084-2.583,4.4-5.228,5.477-8.574,1.725-5.363,4.463-10.435,4.04-16.378-.126-1.775.632-3.613,1.177-5.443.331,1.91,2.4,3.634.425,5.791.871,2.3.645,4.984,2.45,6.944.662.719,1.378,1.387,2.057,2.067h2.406c-.388-2.371-.749-4.574-1.168-7.133l-3.334-2.5c1.426-.19,2.032-.468,2.407-.281.821.408,1.453,1.263,2.293,1.541.856.285,1.923-.071,2.546.911,1.157-1.518,2.929-.314,4.217-.935a12.365,12.365,0,0,0,3.2-2.358,6.7,6.7,0,0,0,1.333-2.36,6.248,6.248,0,0,0,.032-1.9h-6.681c.751-2.84,4.152-.5,4.671-2.688.4-1.672,3.025-2.362,1.7-4.862h-6.029a17.849,17.849,0,0,0,5.835-8.948,6.877,6.877,0,0,0-.313-5.3C151.982,59.1,150.387,58.684,148.64,58.448Zm6.516,1.653-.723.038q.159.817.319,1.637c.181-.023.361-.048.541-.073-.045-.534-.091-1.068-.832-.587.094-2.106.048-3.111-1.572-2.431A2.567,2.567,0,0,0,155.156,60.1Zm-11.542,39.41h-3.742c-.858-.824-1.733-1.668-3.187-3.068.549,3.176,2.564,3.663,3.99,4.544a6.2,6.2,0,0,0,2.1-1.476c.279-.279.559-.558,1.1-.213.38-1.654,1.676-2.449,1.37-3.836a17.174,17.174,0,0,0-1.416-3.472c-.029-.062-.7.174-.775.2.262,2.259.5,4.363.557,6.488C143.332,98.953,143.052,99.232,143.614,99.511Zm10.053-19.274,2.514-.807c0-1.7.04-3.061-.037-4.414-.013-.23-.521-.431-.928-.749-.968-.779-.968-.779-2.358,0a18.758,18.758,0,0,1,2.485.1c-.038,1.586.372,3.28-1.376,4.384-.294.186-.209.973-.212,1.558l-.163-.163-.685.584c.089.088.176.176.264.264A2.421,2.421,0,0,0,153.667,80.237ZM39.7,73.682a27.851,27.851,0,0,1-2.709,3.756,7.186,7.186,0,0,0-2.241,6.716l2.7,2.307c.58-.894,1.306-1.511,1.353-2.176.166-2.386-.114-4.787.843-7.114C39.967,76.386,39.7,75.356,39.7,73.682ZM151.451,58.327l.54-.3c-.092-.094-.206-.278-.275-.262a2.556,2.556,0,0,0-.563.262C151.247,58.122,151.339,58.216,151.451,58.327Z"/>
    <path class="cls-1" d="M40.16,66.864c-3.611-.285-5.793-1.529-8.846-4.812-.1-1.347.2-2.452,1.736-2.764a20.317,20.317,0,0,1,4.252-.777,12.969,12.969,0,0,0,4.662-.935c.7-.252,1.672-.733,1.861-1.322,1.69-5.279,5.745-8.342,10.3-10.974-1.825-2.289-3.6-4.309-5.1-6.52-.435-.641-.067-1.827-.067-3.113l4.977.9c0-2.375.1-4.719-.031-7.049-.112-1.945.685-3.609,1.25-5.353a3.859,3.859,0,0,1,3.746-3.006c2.4,1.762,3.851,4.71,4.684,8.3l4.1-2.745,1.848,1.048c.36,1.312.806,2.934,1.282,4.667h3.905V36.86l2.021,2.156c-3.009,3.891-3.1,3.963-6.054,4.73-.072,1.678,1.35,2.515,2.367,3.112,3.53,2.072,4.685,5.456,6.041,9.618-.926-.631-1.5-.806-1.663-1.167-1.647-3.558-4.557-6.052-7.281-8.682C68.461,44.991,64.75,44.935,61.9,44.9c-3.194-.046-5.629,1.414-8.128,2.724-3.827,2.008-7.276,4.574-8.6,9.084a11.138,11.138,0,0,1-1.3,2.3c-1.853.858-3.787-.213-5.627,1-1.292.852-3.527-.527-4.987.984C34.215,64.347,38.042,64.374,40.16,66.864ZM55.6,36.96c.576,1.1,2.46,1.465,1.182,3.247-1.543-.785-3.018-1.58-4.535-2.281a7.028,7.028,0,0,0-1.727-.3c.625,3.265,3.032,4.715,4.408,6.289,3.87-.2,7.236-.383,10.6-.551.555-.027,1.114.017,1.669-.008,1.824-.08,5.9-2.285,7.8-4.4L71.6,40.125c2.166-2.563,1.561-4.68,1.542-6.965-2.346.432-3.01,2.589-4.938,3.549,0-1.4-.51-3.1.1-3.742,1.651-1.749.074-2.956-.242-4.366-.033-.151-.442-.218-1.052-.494L65.37,30.8l-.426-.475-.354,4.035c-2.2-1.448-2.358-1.463-2.232-2.773a7.783,7.783,0,0,0-1.715-5.57c-.922-1.241-1.874-2.459-2.834-3.715C54.729,27.13,55.834,32.222,55.6,36.96Z"/>
    <path class="cls-1" d="M103.622,109.27c-.319-1.114-.562-1.957-.877-3.054,1.687,0,3.472-.089,5.242.024s2.989-.9,4.607-1.876c-.2-1.736.641-3.619-.914-5.451,3.195-.338,5.533-1.839,6.66-5.028-1.815-3.65-1.815-3.65-.181-7.179.415.322.782.609,1.149.895-1.519,1.582.21,3.165,0,4.748,1.992,1.931.346,3.531-.733,4.834-.956,1.155-2.512,1.813-4.134,2.915v4.589c-1.946,2.632-4.949,2.111-7.3,3.161-.141.063-.561-.5-1.092-.992-.463,1.072-.872,2.019-1.523,3.529-3.132,1.668-6.908,1.046-10.556-.06-.865,1.184-1.644,2.25-2.357,3.223-6.2,1.192-11.149-1.908-16.345-4.023-4.645-4.486-9.083-8.931-10.578-15.743a39.979,39.979,0,0,1-.509-13.061,28.381,28.381,0,0,1,5.124-13.728,3.646,3.646,0,0,1,2.351-1.474c-.966,2.062-1.886,4.147-2.909,6.181a25.847,25.847,0,0,0-3.079,12.125c.029,1.814-.076,3.632.022,5.441a20.256,20.256,0,0,0,4.148,11.722c1.692,2.215,4.262,3.79,5.171,6.6,2.995,1.818,5.955,3.942,9.46,4.337,1.339.152,2.845,1.424,4.3.2,1.246,1.49,1.85-.769,2.935-.45.059-3.453-2.951-3.726-4.965-4.954v-2.146a8.415,8.415,0,0,1,2.394,1.272c2.645,2.968,6.528,3.188,9.9,4.438C100.143,110.7,101.772,109.723,103.622,109.27Z"/>
    <path class="cls-1" d="M133.413,62.429V74.351c-2.023-.934-2.125-3.022-2.2-4.372C131.1,68,130,67.155,128.981,66.014c-1.988,1.234-1.6,3.2-1.156,4.585a53.681,53.681,0,0,1,1.56,7.3,20.326,20.326,0,0,0,.845,2.672c-2.625.971-5.207,2.125-7.906,2.847-1.558.418-3.308.054-4.961.186-6.593.526-12.548-1.426-18.164-4.647A34.681,34.681,0,0,1,94.281,75.7C87.9,70.4,85.489,67.941,80.814,60.487l1.137-1.137c3.763,5.737,7.892,11.047,13.511,15.276,3.114,2.343,6.677,3.613,9.769,5.733,1.421.971,3.051-.03,4.124,1.237,3.219-.126,6.344,2.634,9.635.317,3.338.619,6.171-1.308,9.64-1.9-.442-1.873-.854-3.746-1.331-5.6a35.135,35.135,0,0,1-1.224-4.5,4.545,4.545,0,0,1,.627-3.5c1.407-2,2.768-2.285,4.346-.324a9.183,9.183,0,0,0,.973.917C133.534,65.7,131.806,63.622,133.413,62.429Z"/>
    <path class="cls-1" d="M148.64,58.448c0,.278.114.64-.019.821a31.629,31.629,0,0,1-5.054,5.721c.395-1.863.672-3.763,1.213-5.583a29.249,29.249,0,0,0,1.322-10.7c-.2-2.526-1.569-3.554-4.285-3.327a4.124,4.124,0,0,1,1.856,3.844c-.243,2.445-.062,4.931-.062,7.468h-1.676c0-.993.066-1.933-.016-2.86-.112-1.28,1.651-2.153.578-3.726-.617-.9-.625-2.224-.953-3.539a5.017,5.017,0,0,0-3.207,3.283c-1.222,3.382-2.622,6.7-3.943,10.043-.351.892.784,2.239-.84,2.743a16.382,16.382,0,0,1,.377-5.814c1.735-4.7,3.043-9.662,7.928-12.609h3.852c2.1,1.4.391,3.989,1.381,5.233,1.661,2.087-.309,3.51-.212,5.243.1,1.749-.479,3.534-.808,5.612Z"/>
    <path class="cls-1" d="M89.977,85.265c-.185-.72-.37-1.44-.63-2.449.6.042,1.75-.2,2.031.193,1.454,2.013,3.356,1.259,5.84,1.513-1.535-2.787-2.759-5.011-4.006-7.274,2.882-.031,4.977,3.164,5.157,7.868-.768.049-1.545.119-2.323.143-.815.025-1.63.006-2.046.006.648.648,1.452,1.453,2.258,2.257l-.494.546v2.8c-2.269,1.279-4.308.232-6.788-.468.9,2.132,2.781,3.913,1.426,6.529-1.836.183-4.07.482-5.872-.855A16.906,16.906,0,0,1,79.6,89.408c2.623.883,2.6,3.6,4.336,4.379,1.633.735,2.6,2.9,4.918,2.3,1.465-3.549-2.565-5.118-3.235-8.387,3.133.516,5.447,3.139,8.771,2.368A7.49,7.49,0,0,0,90.815,86.1Z"/>
    <path class="cls-1" d="M94.274,103.183l-2.083-2.108,2.7,1.761h2.994c2.824-2.8,2.824-2.8.488-5.432,2.11-.3,2.148-.286,5.249,1.409l1.788-2.646c.81-1.635-1.566-2.176-2.144-3.692,1.434-1.143,2.4-.118,3.5.38,1.8-1,2.96-2.333,2.394-4.644l-2.54-1.627c1.5-1.074,2.441-.359,3.4.71v5.548l-3.108,1.183a6.892,6.892,0,0,0-.164.79c-.212,1.56.7,3.393-1.351,4.7h-3.769c-.988,1.661-1.785,3-2.487,4.184h-5.38Z"/>
    <path class="cls-1" d="M146.963,128.843l2.474,1.918c.093,7.636-.386,9-4.585,13.166h-2.079c.574-.435,1.176-.837,1.718-1.309,3.407-2.965,4.495-6.747,4-11.585-1.713,1.925-3.43,3.058-5.723,2.838v-1.236C146.755,131.825,146.755,131.825,146.963,128.843Z"/>
    <path class="cls-1" d="M20.42,93.645c2.284-2.883,2.614-6.392,3.554-10.347l-2.716,1.046V82.751l2.633-.82c1.926.586,1.528,2.23,1.557,3.689-2.247,1.607-1.613,4.335-2.517,6.465A2.188,2.188,0,0,1,20.42,93.645Z"/>
    <path class="cls-1" d="M87.584,127.915c-.389-1.544.508-1.945,1.282-1.538,3.333,1.747,6.4.252,9.547-.519a33.27,33.27,0,0,1,5.634-1A29.453,29.453,0,0,1,87.584,127.915Z"/>
    <path class="cls-1" d="M17.906,94.483c.272.988.546,1.975.843,3.051-.374.124-.739.247-1.354.453-.2-.942-.388-1.786-.57-2.627-.98.179-.308,2.625-2.124,1.368.267-.534.535-1.068.785-1.566-.261-.3-.461-.673-.593-.651a6.521,6.521,0,0,1-4.489-1.25,1.914,1.914,0,0,1-.878-2.13c2.05,1.319,3.933,3,6.7,2.565C16.733,93.617,17.343,94.2,17.906,94.483Z"/>
    <path class="cls-1" d="M43.291,86.1c.732,0,.992-.012.993,0,.339,3.348,1.437,6.552,2.419,10.651C43.731,93.106,42.405,89.929,43.291,86.1Z"/>
    <path class="cls-1" d="M94.217,124.56c-.026-.56-.039-.831-.068-1.438,2.127-.079,4.363.208,6.364-.347,1.743-.483,3.227-1.906,5.53-2.484C103.249,123.264,99.2,124.673,94.217,124.56Z"/>
    <path class="cls-1" d="M134.392,143.927a6,6,0,0,1-5.335-4.063c-.682-1.8-1.483-3.553-2.166-5.351-.037-.1.518-.423.8-.642.28.439.726.848.812,1.323.612,3.385,1.944,6.233,5.293,7.754C134.082,143.079,134.2,143.592,134.392,143.927Z"/>
    <path class="cls-1" d="M77.423,98.72c-1.677-.134-3.486-.709-4.022-2.112-.788-2.064-3.473-3.444-2.529-6.112Z"/>
    <path class="cls-1" d="M65.931,120.714c-1.348,1-2.114.508-3.144-.118a19.416,19.416,0,0,1-6.679-7.074C59.9,115.909,61.6,120.01,65.931,120.714Z"/>
    <path class="cls-1" d="M111.215,119.575l9.744-6.077C118.082,117.394,115.231,119.258,111.215,119.575Z"/>
    <path class="cls-1" d="M69.864,121.677l-8.459-6.553c.063-.159.125-.319.188-.478a5.347,5.347,0,0,1,1.607.45c1.2.806,2.325,1.736,3.488,2.606,1.053.788,2.132,1.542,3.157,2.365C69.981,120.175,69.864,120.6,69.864,121.677Z"/>
    <path class="cls-1" d="M47.482,58.645l1.865,3.069c.84,0,2.156.725,2.182-1.2a15.889,15.889,0,0,1,2.152-.3c-1.284,1.864-1.931,3.483-3.93,3.236C48.314,63.264,47.441,61.558,47.482,58.645Z"/>
    <path class="cls-1" d="M131.04,127.166c-.1,1.616.362,3.308-.784,5.029h2.46v1.974l-3.83-1.745-1.2,1.447v-2.012c1.29-.743,2.921-1.2,2.539-3.283C130.123,128,129.963,127.165,131.04,127.166Z"/>
    <path class="cls-1" d="M17.311,87.956,15.264,90l1.953,1.092a2.044,2.044,0,0,0,1.555-2.023A2.816,2.816,0,0,1,19.4,87.8c.066-.091.489.077.808.138-.211.685-.418,1.364-.629,2.042a2.678,2.678,0,0,1-4.057,1.679,1.848,1.848,0,0,1-.968-2.1C14.859,88.418,15.416,87.6,17.311,87.956Z"/>
    <path class="cls-1" d="M74.7,126.9c-3.069.216-5.506-1.579-8.165-2.719C69.669,123.662,72.084,125.591,74.7,126.9Z"/>
    <path class="cls-1" d="M139.525,56.168c-.4,2.391-.8,4.783-1.2,7.23H136.9c.027-2.7,1.351-4.946,1.768-7.41Z"/>
    <path class="cls-1" d="M20.42,81.075a9.95,9.95,0,0,0-8.38-2.514c0-.137-.039-.38.006-.4a8.551,8.551,0,0,1,7.212.537A2.026,2.026,0,0,1,20.42,81.075Z"/>
    <path class="cls-1" d="M83.051,124.637c-1.444-.3-2.71-.523-3.954-.835-1.1-.276-2.182-.651-3.788-1.138,3.1-1.414,5.32,1.379,8.129-.124C83.215,123.747,83.129,124.218,83.051,124.637Z"/>
    <path class="cls-1" d="M43.759,96.09c2.712,1.27,2.907,3.848,4.633,6.168-1.066-.392-1.828-.429-2.079-.806A14.917,14.917,0,0,1,43.759,96.09Z"/>
    <path class="cls-1" d="M52.533,104.585c-.672-1.853-1.345-3.707-2.046-5.641C52.706,98.981,53.131,99.978,52.533,104.585Z"/>
    <path class="cls-1" d="M135.23,133.033c1.36.372,1.928-.733,2.943-1.666.839,1.035,2.372,1.512,2.086,3.342l-2.04-1.487-2.989,1.962Z"/>
    <path class="cls-1" d="M131.044,127.875c0-2.693-.277-4.735,1.229-6.573.341.678.653,1.3,1.08,2.144Z"/>
    <path class="cls-1" d="M53.28,94.557h1.2c.382,1.563.745,3.051,1.173,4.806a10.114,10.114,0,0,1-1.383-.007C54.078,97.755,52.621,96.376,53.28,94.557Z"/>
    <path class="cls-1" d="M142.773,143.927c0,.139.029.392,0,.4a16.5,16.5,0,0,1-8.372,0c-.033-.007,0-.26,0-.4Z"/>
    <path class="cls-1" d="M142.773,120.462a37.627,37.627,0,0,0-3.809-.808,33.43,33.43,0,0,0-3.734-.03c.1-.235.183-.671.289-.677,1.767-.085,3.537-.132,5.306-.155A1.938,1.938,0,0,1,142.773,120.462Z"/>
    <path class="cls-1" d="M143.611,121.3c2.1,1.045,2.548,2.917,2.514,5.028a6.076,6.076,0,0,1-.831-.628c-.581-.61-1.124-1.255-1.683-1.886Z"/>
    <path class="cls-1" d="M129.927,71.031l2.133,5.57c-1.312-.716-1.3-.721-1.863-2.4-.316-.941-.688-1.863-1.035-2.793Z"/>
    <path class="cls-1" d="M10.364,81.075H11.9a25.816,25.816,0,0,0,.178,2.7c.04.253.522.436.8.653-.051,1.017-.843,1.084-1.336.675-.6-.5-1.992-1.144-.872-2.147C11.819,81.924,9.951,81.757,10.364,81.075Z"/>
    <path class="cls-1" d="M75.1,124.536c2.11.386,4.221.771,6.446,1.179C79.155,127.445,77.18,125.372,75.1,124.536Z"/>
    <path class="cls-1" d="M138.7,94.6l-1.972-4.94,1.521-.263c.374,1.719.732,3.373,1.091,5.025Z"/>
    <path class="cls-1" d="M143.611,123.814c-.216,1.8-2.39.012-2.81,1.894l-1.38-1.894c.407,0,1.064.16,1.182-.024C141.659,122.137,142.621,123.405,143.611,123.814Z"/>
    <path class="cls-1" d="M77.065,98.673h3.308q.378-.817.783-1.7c.433.432.825.824,1.48,1.48a9.459,9.459,0,0,1-2.5,1C79.206,99.533,78.016,99.933,77.065,98.673Z"/>
    <path class="cls-1" d="M138.282,129.267c.5-2.113.982-3.065,2.8-2.88C141.179,128.087,140.2,128.553,138.282,129.267Z"/>
    <path class="cls-1" d="M46.7,105.358l2.821,4.536C46.569,107.563,46.569,107.563,46.7,105.358Z"/>
    <path class="cls-1" d="M78.541,93.71c-2.758-.833-2.74-.848-2.5-3.706C76.9,91.273,77.561,92.258,78.541,93.71Z"/>
    <path class="cls-1" d="M12.04,78.561q-.838,1.257-1.676,2.514-.839.418-1.676.838C9.112,79.757,9.885,78.985,12.04,78.561Z"/>
    <path class="cls-1" d="M144.15,87.835l.681-1.942c.541.287.966.533,1.412.739s.932.382,2.263.919Z"/>
    <path class="cls-1" d="M90.815,86.1q-.285.9-.571,1.8l-.678-.021a9.514,9.514,0,0,0-.438-1.21,16.02,16.02,0,0,0-.957-1.407h1.806Z"/>
    <path class="cls-1" d="M139.421,123.814a2.409,2.409,0,0,1-3.352,0A2.077,2.077,0,0,1,139.421,123.814Z"/>
    <path class="cls-1" d="M135.192,126.488l2.32,2.367C136.09,128.778,135.313,128.163,135.192,126.488Z"/>
    <path class="cls-1" d="M12.581,84.7c.563-1.412.991-2.486,1.509-3.783C15.056,82.75,14.39,83.74,12.581,84.7Z"/>
    <path class="cls-1" d="M8.066,89.459V85.337A3.919,3.919,0,0,1,8.066,89.459Z"/>
    <path class="cls-1" d="M92.9,82.038,90.665,80.79c.526-.509.907-.88,1.5-1.459a5.322,5.322,0,0,0,.344,1.3,5.783,5.783,0,0,0,.9.976C93.242,81.748,93.072,81.893,92.9,82.038Z"/>
    <path class="cls-1" d="M84.34,87.884c.733,1.828,1.13,2.818,1.682,4.191C84.051,91.226,83.917,90.121,84.34,87.884Z"/>
    <path class="cls-1" d="M141.1,135.547c.279-.347.536-.718.846-1.035a6.991,6.991,0,0,1,.83-.641,9.093,9.093,0,0,1-.027,1.644c-.059.316-.385.582-.592.87Z"/>
    <path class="cls-1" d="M135.861,123.5c-.278,1.251-.642,2.375-2.581,1.675Z"/>
    <path class="cls-1" d="M17.906,94.483c.393-1.615,1.69-.519,2.514-.838C20.028,95.26,18.731,94.164,17.906,94.483Z"/>
    <path class="cls-1" d="M146.963,128.843c-1.614-.394-.518-1.69-.838-2.515C147.74,126.722,146.644,128.018,146.963,128.843Z"/>
    <path class="cls-1" d="M102.017,119.91c-.227.228-.653.655-.908.908C101.054,119.669,101.054,119.669,102.017,119.91Z"/>
    <path class="cls-1" d="M136.223,119.668l-2.432,1.572C133.113,119.62,134.117,119.575,136.223,119.668Z"/>
    <path class="cls-1" d="M148.505,77.962c.459,1.59-.427,1.429-1.664.9Z"/>
    <path class="cls-1" d="M8.584,82.041V84.4C7.805,83.008,7.805,83.008,8.584,82.041Z"/>
    <path class="cls-1" d="M132.716,132.2l1.043-.838.633.838Z"/>
    <path class="cls-1" d="M148.849,66.828V65.152h.419v1.676Z"/>
    <path class="cls-1" d="M20.42,81.075c1.254.071.712,1.04.838,1.676C20.005,82.679,20.547,81.71,20.42,81.075Z"/>
    <path class="cls-1" d="M9.526,91.131c-1.254-.072-.711-1.041-.838-1.676C9.942,89.527,9.4,90.5,9.526,91.131Z"/>
    <path class="cls-1" d="M106.09,89.441c.445.094.889.181,1.329.291.03.007.038.258.021.263-.439.119-.882.219-1.324.323Q106.1,89.879,106.09,89.441Z"/>
    <path class="cls-1" d="M95.829,101c.094-.444.182-.89.291-1.329.008-.03.259-.039.264-.021.118.439.218.881.323,1.324Z"/>
    <path class="cls-1" d="M108.26,122.834h-1.39c-.018-.138-.037-.276-.056-.413l1.4-.305Q108.238,122.475,108.26,122.834Z"/>
    <path class="cls-1" d="M122.573,111.168l.584-.684c.088.087.176.175.263.263l-.683.584Z"/>
    <path class="cls-1" d="M122.748,111.32l-.584.684-.264-.264.684-.584C122.639,111.21,122.693,111.265,122.748,111.32Z"/>
    <path class="cls-1" d="M142.773,120.462q.418.42.838.838Q143.193,120.882,142.773,120.462Z"/>
    <path class="cls-1" d="M140.259,134.709l.838.838Z"/>
    <path class="cls-1" d="M134.392,132.2q.42.418.838.838Q134.812,132.613,134.392,132.2Z"/>
  </g>
</svg>
